Montserrat Test-Light.ufo
<glyph name="exclam" format="1">
  <advance width="192"/>
  <unicode hex="0021"/>
  <outline>
    <contour>
      <point x="106" y="188" type="line"/>
      <point x="106" y="520" type="line"/>
      <point x="106" y="682" type="line"/>
      <point x="86" y="682" type="line"/>
      <point x="86" y="520" type="line"/>
      <point x="86" y="188" type="line"/>
    </contour>
    <component base="period" xOffset="11"/>
  </outline>
</glyph>
<glyph name="numbersign" format="1">
  <advance width="682"/>
  <unicode hex="0023"/>
  <outline>
    <contour>
      <point x="438" y="0" type="line"/>
      <point x="524" y="700" type="line"/>
      <point x="504" y="700" type="line"/>
      <point x="418" y="0" type="line"/>
    </contour>
    <contour>
      <point x="616" y="210" type="line"/>
      <point x="615" y="229" type="line"/>
      <point x="35" y="229" type="line"/>
      <point x="36" y="210" type="line"/>
    </contour>
    <contour>
      <point x="178" y="0" type="line"/>
      <point x="264" y="700" type="line"/>
      <point x="244" y="700" type="line"/>
      <point x="158" y="0" type="line"/>
    </contour>
    <contour>
      <point x="647" y="471" type="line"/>
      <point x="646" y="490" type="line"/>
      <point x="66" y="490" type="line"/>
      <point x="67" y="471" type="line"/>
    </contour>
  </outline>
</glyph>
<glyph name="dollar" format="1">
  <advance width="593"/>
  <unicode hex="0024"/>
  <outline>
    <contour>
      <point x="300" y="-119" type="line"/>
      <point x="300" y="11" type="line"/>
      <point x="280" y="11" type="line"/>
      <point x="280" y="-119" type="line"/>
    </contour>
    <contour>
      <point x="300" y="687" type="line"/>
      <point x="300" y="804" type="line"/>
      <point x="280" y="804" type="line"/>
      <point x="280" y="687" type="line"/>
    </contour>
    <component base="S"/>
  </outline>
</glyph>
<glyph name="parenleft" format="1">
  <advance width="311"/>
  <unicode hex="0028"/>
  <outline>
    <contour>
      <point x="253" y="-194" type="line"/>
      <point x="177" y="-66"/>
      <point x="143" y="89"/>
      <point x="143" y="274" type="curve" smooth="yes"/>
      <point x="143" y="459"/>
      <point x="177" y="614"/>
      <point x="253" y="742" type="curve"/>
      <point x="234" y="742" type="line"/>
      <point x="163" y="624"/>
      <point x="123" y="459"/>
      <point x="123" y="274" type="curve" smooth="yes"/>
      <point x="123" y="89"/>
      <point x="163" y="-73"/>
      <point x="234" y="-194" type="curve"/>
    </contour>
  </outline>
</glyph>
<glyph name="parenright" format="1">
  <advance width="311"/>
  <unicode hex="0029"/>
  <outline>
    <contour>
      <point x="148" y="-73"/>
      <point x="188" y="89"/>
      <point x="188" y="274" type="curve" smooth="yes"/>
      <point x="188" y="459"/>
      <point x="148" y="624"/>
      <point x="77" y="742" type="curve"/>
      <point x="58" y="742" type="line"/>
      <point x="134" y="614"/>
      <point x="168" y="459"/>
      <point x="168" y="274" type="curve" smooth="yes"/>
      <point x="168" y="89"/>
      <point x="134" y="-66"/>
      <point x="58" y="-194" type="curve"/>
      <point x="77" y="-194" type="line"/>
    </contour>
  </outline>
</glyph>
<glyph name="comma" format="1">
  <advance width="170"/>
  <unicode hex="002C"/>
  <outline>
    <contour>
      <point x="74" y="-140" type="line"/>
      <point x="107" y="-10" type="line"/>
      <point x="109" y="1"/>
      <point x="111" y="8"/>
      <point x="111" y="19" type="curve" smooth="yes"/>
      <point x="111" y="31"/>
      <point x="101" y="45"/>
      <point x="85" y="45" type="curve" smooth="yes"/>
      <point x="70" y="45"/>
      <point x="59" y="33"/>
      <point x="59" y="19" type="curve" smooth="yes"/>
      <point x="59" y="5"/>
      <point x="71" y="-7"/>
      <point x="85" y="-7" type="curve"/>
      <point x="85" y="4" type="line"/>
      <point x="56" y="-140" type="line"/>
    </contour>
  </outline>
</glyph>
<glyph name="hyphen" format="1">
  <advance width="380"/>
  <unicode hex="002D"/>
  <outline>
    <contour>
      <point x="315" y="255" type="line"/>
      <point x="315" y="274" type="line"/>
      <point x="65" y="274" type="line"/>
      <point x="65" y="255" type="line"/>
    </contour>
  </outline>
</glyph>
<glyph name="zero" format="1">
  <advance width="696"/>
  <unicode hex="0030"/>
  <outline>
    <contour>
      <point x="513" y="-3"/>
      <point x="627" y="138"/>
      <point x="627" y="350" type="curve" smooth="yes"/>
      <point x="627" y="562"/>
      <point x="513" y="703"/>
      <point x="348" y="703" type="curve" smooth="yes"/>
      <point x="183" y="703"/>
      <point x="69" y="562"/>
      <point x="69" y="350" type="curve" smooth="yes"/>
      <point x="69" y="138"/>
      <point x="183" y="-3"/>
      <point x="348" y="-3" type="curve" smooth="yes"/>
    </contour>
    <contour>
      <point x="195" y="16"/>
      <point x="89" y="150"/>
      <point x="89" y="350" type="curve" smooth="yes"/>
      <point x="89" y="550"/>
      <point x="195" y="684"/>
      <point x="348" y="684" type="curve" smooth="yes"/>
      <point x="501" y="684"/>
      <point x="607" y="550"/>
      <point x="607" y="350" type="curve" smooth="yes"/>
      <point x="607" y="150"/>
      <point x="501" y="16"/>
      <point x="348" y="16" type="curve" smooth="yes"/>
    </contour>
  </outline>
</glyph>
<glyph name="one" format="1">
  <advance width="344"/>
  <unicode hex="0031"/>
  <outline>
    <contour>
      <point x="211" y="0" type="line"/>
      <point x="211" y="700" type="line"/>
      <point x="12" y="700" type="line"/>
      <point x="12" y="681" type="line"/>
      <point x="201" y="681" type="line"/>
      <point x="192" y="689" type="line"/>
      <point x="192" y="0" type="line"/>
    </contour>
  </outline>
</glyph>
<glyph name="two" format="1">
  <advance width="561"/>
  <unicode hex="0032"/>
  <outline>
    <contour>
      <point x="506" y="0" type="line"/>
      <point x="506" y="19" type="line"/>
      <point x="47" y="19" type="line"/>
      <point x="59" y="12" type="line"/>
      <point x="353" y="309" type="line" smooth="yes"/>
      <point x="446" y="402"/>
      <point x="471" y="458"/>
      <point x="471" y="527" type="curve" smooth="yes"/>
      <point x="471" y="619"/>
      <point x="401" y="703"/>
      <point x="243" y="703" type="curve" smooth="yes"/>
      <point x="148" y="703"/>
      <point x="75" y="675"/>
      <point x="20" y="618" type="curve"/>
      <point x="33" y="603" type="line"/>
      <point x="86" y="658"/>
      <point x="154" y="684"/>
      <point x="243" y="684" type="curve" smooth="yes"/>
      <point x="383" y="684"/>
      <point x="451" y="613"/>
      <point x="451" y="526" type="curve" smooth="yes"/>
      <point x="451" y="464"/>
      <point x="429" y="414"/>
      <point x="339" y="322" type="curve" smooth="yes"/>
      <point x="36" y="15" type="line"/>
      <point x="36" y="0" type="line"/>
    </contour>
  </outline>
</glyph>
<glyph name="three" format="1">
  <advance width="561"/>
  <unicode hex="0033"/>
  <outline>
    <contour>
      <point x="424" y="-3"/>
      <point x="502" y="74"/>
      <point x="502" y="182" type="curve" smooth="yes"/>
      <point x="502" y="290"/>
      <point x="424" y="367"/>
      <point x="258" y="367" type="curve" smooth="yes"/>
      <point x="230" y="367" type="line"/>
      <point x="231" y="360" type="line"/>
      <point x="477" y="685" type="line"/>
      <point x="477" y="700" type="line"/>
      <point x="5" y="700" type="line"/>
      <point x="5" y="681" type="line"/>
      <point x="457" y="681" type="line"/>
      <point x="456" y="688" type="line"/>
      <point x="210" y="363" type="line"/>
      <point x="210" y="348" type="line"/>
      <point x="259" y="348" type="line" smooth="yes"/>
      <point x="416" y="348"/>
      <point x="482" y="281"/>
      <point x="482" y="182" type="curve" smooth="yes"/>
      <point x="482" y="83"/>
      <point x="416" y="16"/>
      <point x="262" y="16" type="curve" smooth="yes"/>
      <point x="149" y="16"/>
      <point x="64" y="57"/>
      <point x="25" y="109" type="curve"/>
      <point x="11" y="96" type="line"/>
      <point x="53" y="38"/>
      <point x="147" y="-3"/>
      <point x="262" y="-3" type="curve" smooth="yes"/>
    </contour>
  </outline>
</glyph>
<glyph name="four" format="1">
  <advance width="644"/>
  <unicode hex="0034"/>
  <outline>
    <contour>
      <point x="627" y="208" type="line"/>
      <point x="627" y="227" type="line"/>
      <point x="57" y="227" type="line"/>
      <point x="70" y="223" type="line"/>
      <point x="464" y="700" type="line"/>
      <point x="440" y="700" type="line"/>
      <point x="46" y="223" type="line"/>
      <point x="46" y="208" type="line"/>
    </contour>
    <contour>
      <point x="471" y="0" type="line"/>
      <point x="471" y="410" type="line"/>
      <point x="451" y="410" type="line"/>
      <point x="451" y="227" type="line"/>
      <point x="451" y="208" type="line"/>
      <point x="451" y="0" type="line"/>
    </contour>
  </outline>
</glyph>
<glyph name="five" format="1">
  <advance width="561"/>
  <unicode hex="0035"/>
  <outline>
    <contour>
      <point x="425" y="-3"/>
      <point x="502" y="80"/>
      <point x="502" y="189" type="curve" smooth="yes"/>
      <point x="502" y="302"/>
      <point x="430" y="366"/>
      <point x="215" y="368" type="curve" smooth="yes"/>
      <point x="72" y="369" type="line"/>
      <point x="78" y="359" type="line"/>
      <point x="114" y="689" type="line"/>
      <point x="107" y="681" type="line"/>
      <point x="463" y="681" type="line"/>
      <point x="463" y="700" type="line"/>
      <point x="96" y="700" type="line"/>
      <point x="58" y="350" type="line"/>
      <point x="214" y="349" type="line" smooth="yes"/>
      <point x="417" y="348"/>
      <point x="482" y="292"/>
      <point x="482" y="189" type="curve" smooth="yes"/>
      <point x="482" y="90"/>
      <point x="416" y="16"/>
      <point x="262" y="16" type="curve" smooth="yes"/>
      <point x="149" y="16"/>
      <point x="66" y="57"/>
      <point x="23" y="102" type="curve"/>
      <point x="9" y="89" type="line"/>
      <point x="55" y="38"/>
      <point x="147" y="-3"/>
      <point x="262" y="-3" type="curve" smooth="yes"/>
    </contour>
  </outline>
</glyph>
<glyph name="six" format="1">
  <advance width="640"/>
  <unicode hex="0036"/>
  <outline>
    <contour>
      <point x="484" y="-3"/>
      <point x="579" y="84"/>
      <point x="579" y="214" type="curve" smooth="yes"/>
      <point x="579" y="344"/>
      <point x="486" y="430"/>
      <point x="339" y="430" type="curve" smooth="yes"/>
      <point x="209" y="430"/>
      <point x="105" y="350"/>
      <point x="100" y="209" type="curve"/>
      <point x="108" y="210" type="line"/>
      <point x="92" y="261"/>
      <point x="89" y="318"/>
      <point x="89" y="352" type="curve" smooth="yes"/>
      <point x="89" y="568"/>
      <point x="203" y="684"/>
      <point x="366" y="684" type="curve" smooth="yes"/>
      <point x="438" y="684"/>
      <point x="500" y="664"/>
      <point x="545" y="614" type="curve"/>
      <point x="559" y="627" type="line"/>
      <point x="512" y="680"/>
      <point x="442" y="703"/>
      <point x="366" y="703" type="curve" smooth="yes"/>
      <point x="193" y="703"/>
      <point x="69" y="581"/>
      <point x="69" y="350" type="curve" smooth="yes"/>
      <point x="69" y="137"/>
      <point x="163" y="-3"/>
      <point x="347" y="-3" type="curve" smooth="yes"/>
    </contour>
    <contour>
      <point x="199" y="16"/>
      <point x="120" y="118"/>
      <point x="120" y="214" type="curve" smooth="yes"/>
      <point x="120" y="323"/>
      <point x="210" y="411"/>
      <point x="339" y="411" type="curve" smooth="yes"/>
      <point x="477" y="411"/>
      <point x="559" y="331"/>
      <point x="559" y="214" type="curve" smooth="yes"/>
      <point x="559" y="97"/>
      <point x="474" y="16"/>
      <point x="347" y="16" type="curve" smooth="yes"/>
    </contour>
  </outline>
</glyph>
<glyph name="seven" format="1">
  <advance width="570"/>
  <unicode hex="0037"/>
  <outline>
    <contour>
      <point x="209" y="0" type="line"/>
      <point x="522" y="685" type="line"/>
      <point x="522" y="700" type="line"/>
      <point x="36" y="700" type="line"/>
      <point x="36" y="540" type="line"/>
      <point x="56" y="540" type="line"/>
      <point x="56" y="689" type="line"/>
      <point x="47" y="681" type="line"/>
      <point x="513" y="681" type="line"/>
      <point x="501" y="688" type="line"/>
      <point x="186" y="0" type="line"/>
    </contour>
  </outline>
</glyph>
<glyph name="eight" format="1">
  <advance width="696"/>
  <unicode hex="0038"/>
  <outline>
    <contour>
      <point x="533" y="-3"/>
      <point x="638" y="71"/>
      <point x="638" y="187" type="curve" smooth="yes"/>
      <point x="638" y="301"/>
      <point x="533" y="372"/>
      <point x="347" y="372" type="curve" smooth="yes"/>
      <point x="161" y="372"/>
      <point x="58" y="301"/>
      <point x="58" y="187" type="curve" smooth="yes"/>
      <point x="58" y="71"/>
      <point x="161" y="-3"/>
      <point x="347" y="-3" type="curve" smooth="yes"/>
    </contour>
    <contour>
      <point x="173" y="16"/>
      <point x="78" y="83"/>
      <point x="78" y="186" type="curve" smooth="yes"/>
      <point x="78" y="289"/>
      <point x="173" y="356"/>
      <point x="347" y="356" type="curve" smooth="yes"/>
      <point x="521" y="356"/>
      <point x="618" y="289"/>
      <point x="618" y="186" type="curve" smooth="yes"/>
      <point x="618" y="83"/>
      <point x="521" y="16"/>
      <point x="347" y="16" type="curve" smooth="yes"/>
    </contour>
    <contour>
      <point x="521" y="359"/>
      <point x="613" y="425"/>
      <point x="613" y="529" type="curve" smooth="yes"/>
      <point x="613" y="635"/>
      <point x="512" y="703"/>
      <point x="347" y="703" type="curve" smooth="yes"/>
      <point x="182" y="703"/>
      <point x="83" y="635"/>
      <point x="83" y="529" type="curve" smooth="yes"/>
      <point x="83" y="425"/>
      <point x="173" y="359"/>
      <point x="347" y="359" type="curve" smooth="yes"/>
    </contour>
    <contour>
      <point x="188" y="375"/>
      <point x="103" y="436"/>
      <point x="103" y="530" type="curve" smooth="yes"/>
      <point x="103" y="623"/>
      <point x="193" y="684"/>
      <point x="347" y="684" type="curve" smooth="yes"/>
      <point x="501" y="684"/>
      <point x="593" y="623"/>
      <point x="593" y="529" type="curve" smooth="yes"/>
      <point x="593" y="436"/>
      <point x="506" y="375"/>
      <point x="347" y="375" type="curve" smooth="yes"/>
    </contour>
  </outline>
</glyph>
<glyph name="question" format="1">
  <advance width="554"/>
  <unicode hex="003F"/>
  <outline>
    <contour>
      <point x="270" y="188" type="line"/>
      <point x="270" y="356"/>
      <point x="465" y="357"/>
      <point x="465" y="536" type="curve" smooth="yes"/>
      <point x="465" y="635"/>
      <point x="382" y="703"/>
      <point x="250" y="703" type="curve" smooth="yes"/>
      <point x="148" y="703"/>
      <point x="72" y="671"/>
      <point x="20" y="613" type="curve"/>
      <point x="34" y="599" type="line"/>
      <point x="85" y="656"/>
      <point x="154" y="684"/>
      <point x="250" y="684" type="curve" smooth="yes"/>
      <point x="377" y="684"/>
      <point x="445" y="621"/>
      <point x="445" y="535" type="curve" smooth="yes"/>
      <point x="445" y="368"/>
      <point x="250" y="370"/>
      <point x="250" y="188" type="curve"/>
    </contour>
    <contour>
      <point x="274" y="-3"/>
      <point x="286" y="9"/>
      <point x="286" y="23" type="curve" smooth="yes"/>
      <point x="286" y="37"/>
      <point x="274" y="49"/>
      <point x="260" y="49" type="curve" smooth="yes"/>
      <point x="246" y="49"/>
      <point x="234" y="37"/>
      <point x="234" y="23" type="curve" smooth="yes"/>
      <point x="234" y="9"/>
      <point x="246" y="-3"/>
      <point x="260" y="-3" type="curve" smooth="yes"/>
    </contour>
  </outline>
</glyph>
<glyph name="at" format="1">
  <advance width="1024"/>
  <unicode hex="0040"/>
  <outline>
    <contour>
      <point x="560" y="-178"/>
      <point x="639" y="-159"/>
      <point x="690" y="-132" type="curve"/>
      <point x="682" y="-114" type="line"/>
      <point x="635" y="-139"/>
      <point x="559" y="-158"/>
      <point x="503" y="-158" type="curve" smooth="yes"/>
      <point x="258" y="-158"/>
      <point x="79" y="19"/>
      <point x="79" y="262" type="curve" smooth="yes"/>
      <point x="79" y="516"/>
      <point x="263" y="701"/>
      <point x="516" y="701" type="curve" smooth="yes"/>
      <point x="764" y="701"/>
      <point x="945" y="515"/>
      <point x="945" y="259" type="curve" smooth="yes"/>
      <point x="945" y="104"/>
      <point x="894" y="4"/>
      <point x="816" y="4" type="curve" smooth="yes"/>
      <point x="776" y="4"/>
      <point x="741" y="40"/>
      <point x="741" y="96" type="curve" smooth="yes"/>
      <point x="741" y="525" type="line"/>
      <point x="721" y="525" type="line"/>
      <point x="721" y="373" type="line"/>
      <point x="684" y="466"/>
      <point x="597" y="527"/>
      <point x="488" y="527" type="curve" smooth="yes"/>
      <point x="342" y="527"/>
      <point x="235" y="417"/>
      <point x="235" y="266" type="curve" smooth="yes"/>
      <point x="235" y="116"/>
      <point x="342" y="6"/>
      <point x="488" y="6" type="curve" smooth="yes"/>
      <point x="597" y="6"/>
      <point x="684" y="67"/>
      <point x="721" y="160" type="curve"/>
      <point x="721" y="96" type="line"/>
      <point x="721" y="28"/>
      <point x="763" y="-16"/>
      <point x="814" y="-16" type="curve" smooth="yes"/>
      <point x="906" y="-16"/>
      <point x="965" y="92"/>
      <point x="965" y="259" type="curve" smooth="yes"/>
      <point x="965" y="526"/>
      <point x="776" y="721"/>
      <point x="516" y="721" type="curve" smooth="yes"/>
      <point x="252" y="721"/>
      <point x="59" y="528"/>
      <point x="59" y="262" type="curve" smooth="yes"/>
      <point x="59" y="7"/>
      <point x="246" y="-178"/>
      <point x="503" y="-178" type="curve" smooth="yes"/>
    </contour>
    <contour>
      <point x="353" y="26"/>
      <point x="255" y="127"/>
      <point x="255" y="266" type="curve" smooth="yes"/>
      <point x="255" y="405"/>
      <point x="353" y="507"/>
      <point x="488" y="507" type="curve" smooth="yes"/>
      <point x="623" y="507"/>
      <point x="721" y="405"/>
      <point x="721" y="266" type="curve" smooth="yes"/>
      <point x="721" y="127"/>
      <point x="623" y="26"/>
      <point x="488" y="26" type="curve" smooth="yes"/>
    </contour>
  </outline>
</glyph>
<glyph name="A" format="1">
  <advance width="688"/>
  <unicode hex="0041"/>
  <outline>
    <contour>
      <point x="32" y="0" type="line"/>
      <point x="349" y="684" type="line"/>
      <point x="339" y="684" type="line"/>
      <point x="656" y="0" type="line"/>
      <point x="679" y="0" type="line"/>
      <point x="354" y="700" type="line"/>
      <point x="334" y="700" type="line"/>
      <point x="9" y="0" type="line"/>
    </contour>
    <contour>
      <point x="581" y="187" type="line"/>
      <point x="571" y="206" type="line"/>
      <point x="116" y="206" type="line"/>
      <point x="106" y="187" type="line"/>
    </contour>
    <contour>
      <point x="679" y="0" type="move" name="ogonek"/>
    </contour>
    <contour>
      <point x="344" y="700" type="move" name="top"/>
    </contour>
    <contour>
      <point x="106" y="700" type="move" name="topleft"/>
    </contour>
    <contour>
      <point x="344" y="0" type="move" name="bottom"/>
    </contour>
  </outline>
</glyph>
<glyph name="E" format="1">
  <advance width="668"/>
  <unicode hex="0045"/>
  <outline>
    <contour>
      <point x="599" y="0" type="line"/>
      <point x="599" y="19" type="line"/>
      <point x="153" y="19" type="line"/>
      <point x="153" y="346" type="line"/>
      <point x="539" y="346" type="line"/>
      <point x="539" y="365" type="line"/>
      <point x="153" y="365" type="line"/>
      <point x="153" y="681" type="line"/>
      <point x="584" y="681" type="line"/>
      <point x="584" y="700" type="line"/>
      <point x="133" y="700" type="line"/>
      <point x="133" y="0" type="line"/>
    </contour>
    <contour>
      <point x="599" y="0" type="move" name="ogonek"/>
    </contour>
    <contour>
      <point x="359" y="700" type="move" name="top"/>
    </contour>
    <contour>
      <point x="41" y="700" type="move" name="topleft"/>
    </contour>
    <contour>
      <point x="376" y="0" type="move" name="bottom"/>
    </contour>
  </outline>
</glyph>
<glyph name="F" format="1">
  <advance width="632"/>
  <unicode hex="0046"/>
  <outline>
    <contour>
      <point x="153" y="0" type="line"/>
      <point x="153" y="326" type="line"/>
      <point x="539" y="326" type="line"/>
      <point x="539" y="345" type="line"/>
      <point x="153" y="345" type="line"/>
      <point x="153" y="681" type="line"/>
      <point x="584" y="681" type="line"/>
      <point x="584" y="700" type="line"/>
      <point x="133" y="700" type="line"/>
      <point x="133" y="0" type="line"/>
    </contour>
  </outline>
</glyph>
<glyph name="H" format="1">
  <advance width="816"/>
  <unicode hex="0048"/>
  <outline>
    <contour>
      <point x="153" y="0" type="line"/>
      <point x="153" y="346" type="line"/>
      <point x="663" y="346" type="line"/>
      <point x="663" y="0" type="line"/>
      <point x="683" y="0" type="line"/>
      <point x="683" y="700" type="line"/>
      <point x="663" y="700" type="line"/>
      <point x="663" y="365" type="line"/>
      <point x="153" y="365" type="line"/>
      <point x="153" y="700" type="line"/>
      <point x="133" y="700" type="line"/>
      <point x="133" y="0" type="line"/>
    </contour>
    <contour>
      <point x="408" y="538" type="move" name="center"/>
    </contour>
    <contour>
      <point x="408" y="0" type="move" name="bottom"/>
    </contour>
    <contour>
      <point x="408" y="700" type="move" name="top"/>
    </contour>
  </outline>
</glyph>
<glyph name="I" format="1">
  <advance width="286"/>
  <unicode hex="0049"/>
  <outline>
    <contour>
      <point x="153" y="0" type="line"/>
      <point x="153" y="700" type="line"/>
      <point x="133" y="700" type="line"/>
      <point x="133" y="0" type="line"/>
    </contour>
    <contour>
      <point x="153" y="0" type="move" name="ogonek"/>
    </contour>
    <contour>
      <point x="143" y="700" type="move" name="top"/>
    </contour>
    <contour>
      <point x="41" y="699" type="move" name="topleft"/>
    </contour>
    <contour>
      <point x="143" y="0" type="move" name="bottom"/>
    </contour>
  </outline>
</glyph>
<glyph name="L" format="1">
  <advance width="580"/>
  <unicode hex="004C"/>
  <outline>
    <contour>
      <point x="570" y="0" type="line"/>
      <point x="570" y="19" type="line"/>
      <point x="153" y="19" type="line"/>
      <point x="153" y="700" type="line"/>
      <point x="133" y="700" type="line"/>
      <point x="133" y="0" type="line"/>
    </contour>
    <contour>
      <point x="362" y="0" type="move" name="bottom"/>
    </contour>
    <contour>
      <point x="433" y="374" type="move" name="dot"/>
    </contour>
    <contour>
      <point x="143" y="700" type="move" name="top"/>
    </contour>
    <contour>
      <point x="446" y="700" type="move" name="topright"/>
    </contour>
    <contour>
      <point x="143" y="360" type="move" name="center"/>
    </contour>
  </outline>
</glyph>
<glyph name="N" format="1">
  <advance width="816"/>
  <unicode hex="004E"/>
  <outline>
    <contour>
      <point x="153" y="0" type="line"/>
      <point x="153" y="677" type="line"/>
      <point x="142" y="677" type="line"/>
      <point x="666" y="0" type="line"/>
      <point x="683" y="0" type="line"/>
      <point x="683" y="700" type="line"/>
      <point x="663" y="700" type="line"/>
      <point x="663" y="23" type="line"/>
      <point x="674" y="23" type="line"/>
      <point x="150" y="700" type="line"/>
      <point x="133" y="700" type="line"/>
      <point x="133" y="0" type="line"/>
    </contour>
    <contour>
      <point x="408" y="700" type="move" name="top"/>
    </contour>
    <contour>
      <point x="408" y="0" type="move" name="bottom"/>
    </contour>
  </outline>
</glyph>
<glyph name="O" format="1">
  <advance width="836"/>
  <unicode hex="004F"/>
  <outline>
    <contour>
      <point x="623" y="-3"/>
      <point x="777" y="148"/>
      <point x="777" y="350" type="curve" smooth="yes"/>
      <point x="777" y="552"/>
      <point x="623" y="703"/>
      <point x="418" y="703" type="curve" smooth="yes"/>
      <point x="213" y="703"/>
      <point x="59" y="552"/>
      <point x="59" y="350" type="curve" smooth="yes"/>
      <point x="59" y="148"/>
      <point x="213" y="-3"/>
      <point x="418" y="-3" type="curve" smooth="yes"/>
    </contour>
    <contour>
      <point x="225" y="16"/>
      <point x="79" y="159"/>
      <point x="79" y="350" type="curve" smooth="yes"/>
      <point x="79" y="541"/>
      <point x="225" y="684"/>
      <point x="418" y="684" type="curve" smooth="yes"/>
      <point x="611" y="684"/>
      <point x="757" y="541"/>
      <point x="757" y="350" type="curve" smooth="yes"/>
      <point x="757" y="159"/>
      <point x="611" y="16"/>
      <point x="418" y="16" type="curve" smooth="yes"/>
    </contour>
    <contour>
      <point x="418" y="0" type="move" name="bottom"/>
    </contour>
    <contour>
      <point x="469" y="0" type="move" name="ogonek"/>
    </contour>
    <contour>
      <point x="418" y="700" type="move" name="top"/>
    </contour>
    <contour>
      <point x="667" y="700" type="move" name="topright"/>
    </contour>
    <contour>
      <point x="59" y="700" type="move" name="topleft"/>
    </contour>
    <contour>
      <point x="418" y="350" type="move" name="center"/>
    </contour>
  </outline>
</glyph>
<glyph name="T" format="1">
  <advance width="548"/>
  <unicode hex="0054"/>
  <outline>
    <contour>
      <point x="284" y="0" type="line"/>
      <point x="284" y="681" type="line"/>
      <point x="544" y="681" type="line"/>
      <point x="544" y="700" type="line"/>
      <point x="4" y="700" type="line"/>
      <point x="4" y="681" type="line"/>
      <point x="264" y="681" type="line"/>
      <point x="264" y="0" type="line"/>
    </contour>
    <contour>
      <point x="274" y="356" type="move" name="center"/>
    </contour>
    <contour>
      <point x="274" y="0" type="move" name="bottom"/>
    </contour>
    <contour>
      <point x="274" y="700" type="move" name="top"/>
    </contour>
  </outline>
</glyph>
<glyph name="U" format="1">
  <advance width="794"/>
  <unicode hex="0055"/>
  <outline>
    <contour>
      <point x="564" y="-3"/>
      <point x="667" y="95"/>
      <point x="667" y="293" type="curve" smooth="yes"/>
      <point x="667" y="700" type="line"/>
      <point x="647" y="700" type="line"/>
      <point x="647" y="294" type="line" smooth="yes"/>
      <point x="647" y="107"/>
      <point x="556" y="16"/>
      <point x="397" y="16" type="curve" smooth="yes"/>
      <point x="238" y="16"/>
      <point x="147" y="107"/>
      <point x="147" y="294" type="curve" smooth="yes"/>
      <point x="147" y="700" type="line"/>
      <point x="127" y="700" type="line"/>
      <point x="127" y="293" type="line" smooth="yes"/>
      <point x="127" y="95"/>
      <point x="230" y="-3"/>
      <point x="397" y="-3" type="curve" smooth="yes"/>
    </contour>
    <contour>
      <point x="583" y="0" type="move" name="ogonek"/>
    </contour>
    <contour>
      <point x="397" y="700" type="move" name="top"/>
    </contour>
    <contour>
      <point x="672" y="700" type="move" name="topright"/>
    </contour>
    <contour>
      <point x="397" y="0" type="move" name="bottom"/>
    </contour>
  </outline>
</glyph>
<glyph name="V" format="1">
  <advance width="670"/>
  <unicode hex="0056"/>
  <outline>
    <contour>
      <point x="345" y="0" type="line"/>
      <point x="660" y="700" type="line"/>
      <point x="637" y="700" type="line"/>
      <point x="330" y="16" type="line"/>
      <point x="340" y="16" type="line"/>
      <point x="33" y="700" type="line"/>
      <point x="10" y="700" type="line"/>
      <point x="325" y="0" type="line"/>
    </contour>
  </outline>
</glyph>
<glyph name="W" format="1">
  <advance width="1116"/>
  <unicode hex="0057"/>
  <outline>
    <contour>
      <point x="313" y="0" type="line"/>
      <point x="560" y="678" type="line"/>
      <point x="556" y="678" type="line"/>
      <point x="803" y="0" type="line"/>
      <point x="823" y="0" type="line"/>
      <point x="1073" y="700" type="line"/>
      <point x="1052" y="700" type="line"/>
      <point x="808" y="16" type="line"/>
      <point x="818" y="16" type="line"/>
      <point x="568" y="700" type="line"/>
      <point x="548" y="700" type="line"/>
      <point x="298" y="16" type="line"/>
      <point x="309" y="16" type="line"/>
      <point x="65" y="700" type="line"/>
      <point x="43" y="700" type="line"/>
      <point x="293" y="0" type="line"/>
    </contour>
    <contour>
      <point x="558" y="700" type="move" name="top"/>
    </contour>
    <contour>
      <point x="558" y="0" type="move" name="bottom"/>
    </contour>
  </outline>
</glyph>
<glyph name="Y" format="1">
  <advance width="670"/>
  <unicode hex="0059"/>
  <outline>
    <contour>
      <point x="345" y="0" type="line"/>
      <point x="345" y="195" type="line"/>
      <point x="340" y="180" type="line"/>
      <point x="660" y="700" type="line"/>
      <point x="637" y="700" type="line"/>
      <point x="331" y="203" type="line"/>
      <point x="339" y="203" type="line"/>
      <point x="33" y="700" type="line"/>
      <point x="10" y="700" type="line"/>
      <point x="330" y="180" type="line"/>
      <point x="325" y="195" type="line"/>
      <point x="325" y="0" type="line"/>
    </contour>
    <contour>
      <point x="335" y="700" type="move" name="top"/>
    </contour>
    <contour>
      <point x="335" y="0" type="move" name="bottom"/>
    </contour>
  </outline>
</glyph>
<glyph name="Z" format="1">
  <advance width="639"/>
  <unicode hex="005A"/>
  <outline>
    <contour>
      <point x="600" y="0" type="line"/>
      <point x="600" y="19" type="line"/>
      <point x="72" y="19" type="line"/>
      <point x="73" y="12" type="line"/>
      <point x="590" y="685" type="line"/>
      <point x="590" y="700" type="line"/>
      <point x="55" y="700" type="line"/>
      <point x="55" y="681" type="line"/>
      <point x="568" y="681" type="line"/>
      <point x="567" y="688" type="line"/>
      <point x="50" y="15" type="line"/>
      <point x="50" y="0" type="line"/>
    </contour>
    <contour>
      <point x="325" y="700" type="move" name="top"/>
    </contour>
    <contour>
      <point x="335" y="0" type="move" name="bottom"/>
    </contour>
  </outline>
</glyph>
<glyph name="bracketleft" format="1">
  <advance width="284"/>
  <unicode hex="005B"/>
  <outline>
    <contour>
      <point x="257" y="-124" type="line"/>
      <point x="257" y="-104" type="line"/>
      <point x="128" y="-104" type="line"/>
      <point x="128" y="722" type="line"/>
      <point x="257" y="722" type="line"/>
      <point x="257" y="742" type="line"/>
      <point x="108" y="742" type="line"/>
      <point x="108" y="-124" type="line"/>
    </contour>
  </outline>
</glyph>
<glyph name="backslash" format="1">
  <advance width="300"/>
  <unicode hex="005C"/>
  <outline>
    <contour>
      <point x="-10" y="842" type="line"/>
      <point x="-30" y="842" type="line"/>
      <point x="300" y="-100" type="line"/>
      <point x="320" y="-100" type="line"/>
    </contour>
  </outline>
</glyph>
<glyph name="asciicircum" format="1">
  <advance width="562"/>
  <unicode hex="005E"/>
  <outline>
    <contour>
      <point x="121" y="145" type="line"/>
      <point x="285" y="542" type="line"/>
      <point x="277" y="542" type="line"/>
      <point x="441" y="145" type="line"/>
      <point x="463" y="145" type="line"/>
      <point x="292" y="555" type="line"/>
      <point x="270" y="555" type="line"/>
      <point x="99" y="145" type="line"/>
    </contour>
  </outline>
</glyph>
<glyph name="a" format="1">
  <advance width="574"/>
  <unicode hex="0061"/>
  <outline>
    <contour>
      <point x="465" y="0" type="line"/>
      <point x="465" y="339" type="line" smooth="yes"/>
      <point x="465" y="457"/>
      <point x="400" y="520"/>
      <point x="280" y="520" type="curve" smooth="yes"/>
      <point x="202" y="520"/>
      <point x="128" y="490"/>
      <point x="79" y="443" type="curve"/>
      <point x="93" y="429" type="line"/>
      <point x="138" y="472"/>
      <point x="204" y="501"/>
      <point x="281" y="501" type="curve" smooth="yes"/>
      <point x="388" y="501"/>
      <point x="445" y="446"/>
      <point x="445" y="338" type="curve" smooth="yes"/>
      <point x="445" y="140" type="line"/>
      <point x="445" y="123" type="line"/>
      <point x="445" y="0" type="line"/>
    </contour>
    <contour>
      <point x="356" y="-3"/>
      <point x="427" y="52"/>
      <point x="455" y="135" type="curve"/>
      <point x="445" y="148" type="line"/>
      <point x="411" y="64"/>
      <point x="348" y="16"/>
      <point x="248" y="16" type="curve" smooth="yes"/>
      <point x="145" y="16"/>
      <point x="85" y="65"/>
      <point x="85" y="143" type="curve" smooth="yes"/>
      <point x="85" y="212"/>
      <point x="131" y="262"/>
      <point x="248" y="262" type="curve" smooth="yes"/>
      <point x="456" y="262" type="line"/>
      <point x="456" y="281" type="line"/>
      <point x="249" y="281" type="line" smooth="yes"/>
      <point x="111" y="281"/>
      <point x="65" y="216"/>
      <point x="65" y="142" type="curve" smooth="yes"/>
      <point x="65" y="55"/>
      <point x="132" y="-3"/>
      <point x="248" y="-3" type="curve" smooth="yes"/>
    </contour>
    <contour>
      <point x="465" y="0" type="move" name="ogonek"/>
    </contour>
    <contour>
      <point x="283" y="0" type="move" name="bottom"/>
    </contour>
    <contour>
      <point x="273" y="517" type="move" name="top"/>
    </contour>
  </outline>
</glyph>
<glyph name="b" format="1">
  <advance width="671"/>
  <unicode hex="0062"/>
  <outline>
    <contour>
      <point x="508" y="-3"/>
      <point x="617" y="106"/>
      <point x="617" y="259" type="curve" smooth="yes"/>
      <point x="617" y="412"/>
      <point x="508" y="520"/>
      <point x="366" y="520" type="curve" smooth="yes"/>
      <point x="224" y="520"/>
      <point x="118" y="412"/>
      <point x="118" y="259" type="curve" smooth="yes"/>
      <point x="118" y="106"/>
      <point x="224" y="-3"/>
      <point x="366" y="-3" type="curve" smooth="yes"/>
    </contour>
    <contour>
      <point x="135" y="0" type="line"/>
      <point x="135" y="190" type="line"/>
      <point x="125" y="260" type="line"/>
      <point x="135" y="330" type="line"/>
      <point x="135" y="742" type="line"/>
      <point x="115" y="742" type="line"/>
      <point x="115" y="0" type="line"/>
    </contour>
    <contour>
      <point x="234" y="16"/>
      <point x="135" y="116"/>
      <point x="135" y="259" type="curve" smooth="yes"/>
      <point x="135" y="402"/>
      <point x="234" y="501"/>
      <point x="366" y="501" type="curve" smooth="yes"/>
      <point x="498" y="501"/>
      <point x="597" y="402"/>
      <point x="597" y="259" type="curve" smooth="yes"/>
      <point x="597" y="116"/>
      <point x="498" y="16"/>
      <point x="366" y="16" type="curve" smooth="yes"/>
    </contour>
  </outline>
</glyph>
<glyph name="d" format="1">
  <advance width="671"/>
  <unicode hex="0064"/>
  <outline>
    <contour>
      <point x="447" y="-3"/>
      <point x="553" y="106"/>
      <point x="553" y="259" type="curve" smooth="yes"/>
      <point x="553" y="412"/>
      <point x="447" y="520"/>
      <point x="305" y="520" type="curve" smooth="yes"/>
      <point x="163" y="520"/>
      <point x="54" y="412"/>
      <point x="54" y="259" type="curve" smooth="yes"/>
      <point x="54" y="106"/>
      <point x="163" y="-3"/>
      <point x="305" y="-3" type="curve" smooth="yes"/>
    </contour>
    <contour>
      <point x="173" y="16"/>
      <point x="74" y="116"/>
      <point x="74" y="259" type="curve" smooth="yes"/>
      <point x="74" y="402"/>
      <point x="173" y="501"/>
      <point x="305" y="501" type="curve" smooth="yes"/>
      <point x="437" y="501"/>
      <point x="536" y="402"/>
      <point x="536" y="259" type="curve" smooth="yes"/>
      <point x="536" y="116"/>
      <point x="437" y="16"/>
      <point x="305" y="16" type="curve" smooth="yes"/>
    </contour>
    <contour>
      <point x="556" y="0" type="line"/>
      <point x="556" y="742" type="line"/>
      <point x="536" y="742" type="line"/>
      <point x="536" y="330" type="line"/>
      <point x="546" y="260" type="line"/>
      <point x="536" y="190" type="line"/>
      <point x="536" y="0" type="line"/>
    </contour>
    <contour>
      <point x="482" y="630" type="move" name="center"/>
    </contour>
    <contour>
      <point x="328" y="0" type="move" name="bottom"/>
    </contour>
    <contour>
      <point x="656" y="742" type="move" name="topright"/>
    </contour>
  </outline>
</glyph>
<glyph name="h" format="1">
  <advance width="668"/>
  <unicode hex="0068"/>
  <outline>
    <contour>
      <point x="559" y="0" type="line"/>
      <point x="559" y="305" type="line" smooth="yes"/>
      <point x="559" y="445"/>
      <point x="479" y="520"/>
      <point x="352" y="520" type="curve" smooth="yes"/>
      <point x="207" y="520"/>
      <point x="120" y="424"/>
      <point x="120" y="287" type="curve"/>
      <point x="135" y="281" type="line"/>
      <point x="135" y="412"/>
      <point x="217" y="501"/>
      <point x="353" y="501" type="curve" smooth="yes"/>
      <point x="470" y="501"/>
      <point x="539" y="433"/>
      <point x="539" y="305" type="curve" smooth="yes"/>
      <point x="539" y="0" type="line"/>
    </contour>
    <contour>
      <point x="135" y="0" type="line"/>
      <point x="135" y="742" type="line"/>
      <point x="115" y="742" type="line"/>
      <point x="115" y="0" type="line"/>
    </contour>
    <contour>
      <point x="335" y="0" type="move" name="bottom"/>
    </contour>
    <contour>
      <point x="125" y="742" type="move" name="top"/>
    </contour>
    <contour>
      <point x="228" y="517" type="move" name="topright"/>
    </contour>
    <contour>
      <point x="189" y="630" type="move" name="center"/>
    </contour>
  </outline>
</glyph>
<glyph name="i" format="1">
  <advance width="250"/>
  <unicode hex="0069"/>
  <outline>
    <component base="idotless"/>
    <component base="dotaccentcomb.i" xOffset="-175"/>
    <contour>
      <point x="135" y="0" type="move" name="ogonek"/>
    </contour>
    <contour>
      <point x="125" y="0" type="move" name="bottom"/>
    </contour>
  </outline>
</glyph>
<glyph name="k" format="1">
  <advance width="557"/>
  <unicode hex="006B"/>
  <outline>
    <contour>
      <point x="288" y="299" type="line"/>
      <point x="304" y="311" type="line"/>
      <point x="529" y="517" type="line"/>
      <point x="500" y="517" type="line"/>
      <point x="128" y="178" type="line"/>
      <point x="128" y="154" type="line"/>
    </contour>
    <contour>
      <point x="135" y="0" type="line"/>
      <point x="135" y="742" type="line"/>
      <point x="115" y="742" type="line"/>
      <point x="115" y="0" type="line"/>
    </contour>
    <contour>
      <point x="552" y="0" type="line"/>
      <point x="300" y="316" type="line"/>
      <point x="284" y="304" type="line"/>
      <point x="526" y="0" type="line"/>
    </contour>
    <contour>
      <point x="125" y="742" type="move" name="top"/>
    </contour>
    <contour>
      <point x="307" y="0" type="move" name="bottom"/>
    </contour>
    <contour>
      <point x="223" y="517" type="move" name="topright"/>
    </contour>
  </outline>
</glyph>
<glyph name="l" format="1">
  <advance width="250"/>
  <unicode hex="006C"/>
  <outline>
    <contour>
      <point x="135" y="0" type="line"/>
      <point x="135" y="742" type="line"/>
      <point x="115" y="742" type="line"/>
      <point x="115" y="0" type="line"/>
    </contour>
    <contour>
      <point x="125" y="0" type="move" name="bottom"/>
    </contour>
    <contour>
      <point x="251" y="350" type="move" name="dot"/>
    </contour>
    <contour>
      <point x="125" y="742" type="move" name="top"/>
    </contour>
    <contour>
      <point x="235" y="742" type="move" name="topright"/>
    </contour>
    <contour>
      <point x="125" y="350" type="move" name="center"/>
    </contour>
  </outline>
</glyph>
<glyph name="o" format="1">
  <advance width="610"/>
  <unicode hex="006F"/>
  <outline>
    <contour>
      <point x="449" y="-3"/>
      <point x="556" y="106"/>
      <point x="556" y="259" type="curve" smooth="yes"/>
      <point x="556" y="412"/>
      <point x="449" y="520"/>
      <point x="305" y="520" type="curve" smooth="yes"/>
      <point x="161" y="520"/>
      <point x="54" y="412"/>
      <point x="54" y="259" type="curve" smooth="yes"/>
      <point x="54" y="106"/>
      <point x="161" y="-3"/>
      <point x="305" y="-3" type="curve" smooth="yes"/>
    </contour>
    <contour>
      <point x="173" y="16"/>
      <point x="74" y="116"/>
      <point x="74" y="259" type="curve" smooth="yes"/>
      <point x="74" y="402"/>
      <point x="173" y="501"/>
      <point x="305" y="501" type="curve" smooth="yes"/>
      <point x="437" y="501"/>
      <point x="536" y="402"/>
      <point x="536" y="259" type="curve" smooth="yes"/>
      <point x="536" y="116"/>
      <point x="437" y="16"/>
      <point x="305" y="16" type="curve" smooth="yes"/>
    </contour>
    <contour>
      <point x="305" y="0" type="move" name="bottom"/>
    </contour>
    <contour>
      <point x="390" y="0" type="move" name="ogonek"/>
    </contour>
    <contour>
      <point x="305" y="517" type="move" name="top"/>
    </contour>
    <contour>
      <point x="466" y="518" type="move" name="topright"/>
    </contour>
    <contour>
      <point x="305" y="259" type="move" name="center"/>
    </contour>
  </outline>
</glyph>
<glyph name="q" format="1">
  <advance width="671"/>
  <unicode hex="0071"/>
  <outline>
    <contour>
      <point x="447" y="-3"/>
      <point x="553" y="105"/>
      <point x="553" y="258" type="curve" smooth="yes"/>
      <point x="553" y="411"/>
      <point x="447" y="520"/>
      <point x="305" y="520" type="curve" smooth="yes"/>
      <point x="163" y="520"/>
      <point x="54" y="411"/>
      <point x="54" y="258" type="curve" smooth="yes"/>
      <point x="54" y="105"/>
      <point x="163" y="-3"/>
      <point x="305" y="-3" type="curve" smooth="yes"/>
    </contour>
    <contour>
      <point x="173" y="16"/>
      <point x="74" y="115"/>
      <point x="74" y="258" type="curve" smooth="yes"/>
      <point x="74" y="401"/>
      <point x="173" y="501"/>
      <point x="305" y="501" type="curve" smooth="yes"/>
      <point x="437" y="501"/>
      <point x="536" y="401"/>
      <point x="536" y="258" type="curve" smooth="yes"/>
      <point x="536" y="115"/>
      <point x="437" y="16"/>
      <point x="305" y="16" type="curve" smooth="yes"/>
    </contour>
    <contour>
      <point x="556" y="-194" type="line"/>
      <point x="556" y="517" type="line"/>
      <point x="536" y="517" type="line"/>
      <point x="536" y="327" type="line"/>
      <point x="546" y="257" type="line"/>
      <point x="536" y="187" type="line"/>
      <point x="536" y="-194" type="line"/>
    </contour>
    <contour>
      <point x="305" y="517" type="move" name="top"/>
    </contour>
    <contour>
      <point x="305" y="0" type="move" name="bottom"/>
    </contour>
  </outline>
</glyph>
<glyph name="r" format="1">
  <advance width="383"/>
  <unicode hex="0072"/>
  <outline>
    <contour>
      <point x="135" y="0" type="line"/>
      <point x="135" y="314" type="line"/>
      <point x="135" y="334" type="line"/>
      <point x="135" y="517" type="line"/>
      <point x="115" y="517" type="line"/>
      <point x="115" y="0" type="line"/>
    </contour>
    <contour>
      <point x="135" y="415"/>
      <point x="208" y="500"/>
      <point x="332" y="500" type="curve" smooth="yes"/>
      <point x="334" y="500"/>
      <point x="336" y="500"/>
      <point x="338" y="500" type="curve"/>
      <point x="338" y="520" type="line"/>
      <point x="199" y="520"/>
      <point x="120" y="430"/>
      <point x="120" y="282" type="curve"/>
      <point x="135" y="278" type="line"/>
    </contour>
    <contour>
      <point x="227" y="517" type="move" name="top"/>
    </contour>
    <contour>
      <point x="125" y="0" type="move" name="bottom"/>
    </contour>
  </outline>
</glyph>
<glyph name="t" format="1">
  <advance width="388"/>
  <unicode hex="0074"/>
  <outline>
    <contour>
      <point x="285" y="-3"/>
      <point x="325" y="9"/>
      <point x="349" y="34" type="curve"/>
      <point x="335" y="48" type="line"/>
      <point x="313" y="27"/>
      <point x="282" y="16"/>
      <point x="249" y="16" type="curve" smooth="yes"/>
      <point x="179" y="16"/>
      <point x="143" y="56"/>
      <point x="143" y="129" type="curve" smooth="yes"/>
      <point x="143" y="630" type="line"/>
      <point x="123" y="630" type="line"/>
      <point x="123" y="124" type="line" smooth="yes"/>
      <point x="123" y="48"/>
      <point x="166" y="-3"/>
      <point x="248" y="-3" type="curve" smooth="yes"/>
    </contour>
    <contour>
      <point x="318" y="498" type="line"/>
      <point x="318" y="517" type="line"/>
      <point x="23" y="517" type="line"/>
      <point x="23" y="498" type="line"/>
    </contour>
    <contour>
      <point x="241" y="0" type="move" name="bottom"/>
    </contour>
    <contour>
      <point x="133" y="630" type="move" name="top"/>
    </contour>
    <contour>
      <point x="248" y="742" type="move" name="topright"/>
    </contour>
    <contour>
      <point x="171" y="307" type="move" name="center"/>
    </contour>
  </outline>
</glyph>
<glyph name="u" format="1">
  <advance width="664"/>
  <unicode hex="0075"/>
  <outline>
    <contour>
      <point x="460" y="-3"/>
      <point x="544" y="93"/>
      <point x="544" y="230" type="curve"/>
      <point x="529" y="236" type="line"/>
      <point x="529" y="105"/>
      <point x="450" y="16"/>
      <point x="320" y="16" type="curve" smooth="yes"/>
      <point x="199" y="16"/>
      <point x="129" y="84"/>
      <point x="129" y="212" type="curve" smooth="yes"/>
      <point x="129" y="517" type="line"/>
      <point x="109" y="517" type="line"/>
      <point x="109" y="212" type="line" smooth="yes"/>
      <point x="109" y="72"/>
      <point x="190" y="-3"/>
      <point x="321" y="-3" type="curve" smooth="yes"/>
    </contour>
    <contour>
      <point x="549" y="0" type="line"/>
      <point x="549" y="517" type="line"/>
      <point x="529" y="517" type="line"/>
      <point x="529" y="203" type="line"/>
      <point x="529" y="183" type="line"/>
      <point x="529" y="0" type="line"/>
    </contour>
    <contour>
      <point x="549" y="0" type="move" name="ogonek"/>
    </contour>
    <contour>
      <point x="329" y="517" type="move" name="top"/>
    </contour>
    <contour>
      <point x="540" y="517" type="move" name="topright"/>
    </contour>
    <contour>
      <point x="329" y="0" type="move" name="bottom"/>
    </contour>
  </outline>
</glyph>
<glyph name="v" format="1">
  <advance width="508"/>
  <unicode hex="0076"/>
  <outline>
    <contour>
      <point x="264" y="0" type="line"/>
      <point x="502" y="517" type="line"/>
      <point x="479" y="517" type="line"/>
      <point x="250" y="14" type="line"/>
      <point x="258" y="14" type="line"/>
      <point x="29" y="517" type="line"/>
      <point x="6" y="517" type="line"/>
      <point x="244" y="0" type="line"/>
    </contour>
    <contour>
      <point x="254" y="517" type="move" name="top"/>
    </contour>
    <contour>
      <point x="254" y="0" type="move" name="bottom"/>
    </contour>
  </outline>
</glyph>
<glyph name="w" format="1">
  <advance width="964"/>
  <unicode hex="0077"/>
  <outline>
    <contour>
      <point x="261" y="0" type="line"/>
      <point x="486" y="498" type="line"/>
      <point x="478" y="498" type="line"/>
      <point x="703" y="0" type="line"/>
      <point x="723" y="0" type="line"/>
      <point x="953" y="517" type="line"/>
      <point x="930" y="517" type="line"/>
      <point x="709" y="14" type="line"/>
      <point x="717" y="14" type="line"/>
      <point x="492" y="517" type="line"/>
      <point x="472" y="517" type="line"/>
      <point x="247" y="14" type="line"/>
      <point x="255" y="14" type="line"/>
      <point x="34" y="517" type="line"/>
      <point x="11" y="517" type="line"/>
      <point x="241" y="0" type="line"/>
    </contour>
    <contour>
      <point x="482" y="517" type="move" name="top"/>
    </contour>
    <contour>
      <point x="482" y="0" type="move" name="bottom"/>
    </contour>
  </outline>
</glyph>
<glyph name="z" format="1">
  <advance width="491"/>
  <unicode hex="007A"/>
  <outline>
    <contour>
      <point x="443" y="0" type="line"/>
      <point x="443" y="19" type="line"/>
      <point x="57" y="19" type="line"/>
      <point x="69" y="13" type="line"/>
      <point x="438" y="502" type="line"/>
      <point x="438" y="517" type="line"/>
      <point x="51" y="517" type="line"/>
      <point x="51" y="498" type="line"/>
      <point x="423" y="498" type="line"/>
      <point x="415" y="504" type="line"/>
      <point x="46" y="15" type="line"/>
      <point x="46" y="0" type="line"/>
    </contour>
    <contour>
      <point x="245" y="517" type="move" name="top"/>
    </contour>
    <contour>
      <point x="255" y="0" type="move" name="bottom"/>
    </contour>
  </outline>
</glyph>
<glyph name="exclamdown" format="1">
  <advance width="182"/>
  <unicode hex="00A1"/>
  <outline>
    <contour>
      <point x="84" y="329" type="line"/>
      <point x="80" y="-154" type="line"/>
      <point x="102" y="-154" type="line"/>
      <point x="98" y="329" type="line"/>
    </contour>
    <contour>
      <point x="77" y="520"/>
      <point x="65" y="508"/>
      <point x="65" y="494" type="curve" smooth="yes"/>
      <point x="65" y="480"/>
      <point x="77" y="468"/>
      <point x="91" y="468" type="curve" smooth="yes"/>
      <point x="105" y="468"/>
      <point x="117" y="480"/>
      <point x="117" y="494" type="curve" smooth="yes"/>
      <point x="117" y="508"/>
      <point x="105" y="520"/>
      <point x="91" y="520" type="curve" smooth="yes"/>
    </contour>
  </outline>
</glyph>
<glyph name="cent" format="1">
  <advance width="600"/>
  <unicode hex="00A2"/>
  <outline>
    <contour>
      <point x="314" y="-139" type="line"/>
      <point x="314" y="11" type="line"/>
      <point x="294" y="11" type="line"/>
      <point x="294" y="-139" type="line"/>
    </contour>
    <contour>
      <point x="314" y="506" type="line"/>
      <point x="314" y="654" type="line"/>
      <point x="294" y="654" type="line"/>
      <point x="294" y="506" type="line"/>
    </contour>
    <component base="c"/>
  </outline>
</glyph>
<glyph name="sterling" format="1">
  <advance width="532"/>
  <unicode hex="00A3"/>
  <outline>
    <contour>
      <point x="482" y="0" type="line"/>
      <point x="482" y="20" type="line"/>
      <point x="157" y="20" type="line"/>
      <point x="166" y="11" type="line"/>
      <point x="166" y="502" type="line" smooth="yes"/>
      <point x="166" y="617"/>
      <point x="220" y="679"/>
      <point x="318" y="679" type="curve" smooth="yes"/>
      <point x="381" y="679"/>
      <point x="437" y="647"/>
      <point x="478" y="587" type="curve"/>
      <point x="492" y="601" type="line"/>
      <point x="448" y="664"/>
      <point x="386" y="699"/>
      <point x="318" y="699" type="curve" smooth="yes"/>
      <point x="207" y="699"/>
      <point x="146" y="629"/>
      <point x="146" y="502" type="curve" smooth="yes"/>
      <point x="146" y="11" type="line"/>
      <point x="155" y="20" type="line"/>
      <point x="52" y="20" type="line"/>
      <point x="52" y="0" type="line"/>
    </contour>
    <contour>
      <point x="357" y="330" type="line"/>
      <point x="357" y="350" type="line"/>
      <point x="52" y="350" type="line"/>
      <point x="52" y="330" type="line"/>
    </contour>
  </outline>
</glyph>
<glyph name="yen" format="1">
  <advance width="670"/>
  <unicode hex="00A5"/>
  <outline>
    <contour>
      <point x="345" y="0" type="line"/>
      <point x="345" y="301" type="line"/>
      <point x="340" y="286" type="line"/>
      <point x="660" y="700" type="line"/>
      <point x="637" y="700" type="line"/>
      <point x="331" y="307" type="line"/>
      <point x="339" y="307" type="line"/>
      <point x="33" y="700" type="line"/>
      <point x="10" y="700" type="line"/>
      <point x="330" y="286" type="line"/>
      <point x="325" y="301" type="line"/>
      <point x="325" y="0" type="line"/>
    </contour>
    <contour>
      <point x="585" y="157" type="line"/>
      <point x="585" y="175" type="line"/>
      <point x="85" y="175" type="line"/>
      <point x="85" y="157" type="line"/>
    </contour>
    <contour>
      <point x="585" y="295" type="line"/>
      <point x="585" y="313" type="line"/>
      <point x="85" y="313" type="line"/>
      <point x="85" y="295" type="line"/>
    </contour>
  </outline>
</glyph>
<glyph name="section" format="1">
  <advance width="433"/>
  <unicode hex="00A7"/>
  <outline>
    <contour>
      <point x="318" y="-80"/>
      <point x="393" y="-30"/>
      <point x="393" y="53" type="curve" smooth="yes"/>
      <point x="393" y="111"/>
      <point x="356" y="155"/>
      <point x="273" y="182" type="curve"/>
      <point x="327" y="188"/>
      <point x="395" y="234"/>
      <point x="395" y="314" type="curve" smooth="yes"/>
      <point x="395" y="486"/>
      <point x="82" y="419"/>
      <point x="82" y="572" type="curve" smooth="yes"/>
      <point x="82" y="638"/>
      <point x="141" y="674"/>
      <point x="228" y="674" type="curve" smooth="yes"/>
      <point x="279" y="674"/>
      <point x="323" y="662"/>
      <point x="355" y="640" type="curve"/>
      <point x="367" y="655" type="line"/>
      <point x="327" y="681"/>
      <point x="280" y="694"/>
      <point x="228" y="694" type="curve" smooth="yes"/>
      <point x="131" y="694"/>
      <point x="63" y="649"/>
      <point x="63" y="571" type="curve" smooth="yes"/>
      <point x="63" y="511"/>
      <point x="104" y="468"/>
      <point x="208" y="436" type="curve"/>
      <point x="117" y="429"/>
      <point x="61" y="387"/>
      <point x="61" y="314" type="curve" smooth="yes"/>
      <point x="61" y="140"/>
      <point x="374" y="206"/>
      <point x="374" y="54" type="curve" smooth="yes"/>
      <point x="374" y="-20"/>
      <point x="301" y="-60"/>
      <point x="216" y="-60" type="curve" smooth="yes"/>
      <point x="150" y="-60"/>
      <point x="90" y="-36"/>
      <point x="46" y="7" type="curve"/>
      <point x="32" y="-7" type="line"/>
      <point x="74" y="-50"/>
      <point x="140" y="-80"/>
      <point x="218" y="-80" type="curve" smooth="yes"/>
    </contour>
    <contour>
      <point x="159" y="197"/>
      <point x="80" y="256"/>
      <point x="80" y="321" type="curve" smooth="yes"/>
      <point x="80" y="378"/>
      <point x="139" y="417"/>
      <point x="227" y="417" type="curve" smooth="yes"/>
      <point x="321" y="417"/>
      <point x="376" y="373"/>
      <point x="376" y="310" type="curve" smooth="yes"/>
      <point x="376" y="243"/>
      <point x="315" y="197"/>
      <point x="242" y="197" type="curve" smooth="yes"/>
    </contour>
  </outline>
</glyph>
<glyph name="copyright" format="1">
  <advance width="795"/>
  <unicode hex="00A9"/>
  <outline>
    <contour>
      <point x="587" y="9"/>
      <point x="736" y="165"/>
      <point x="736" y="350" type="curve" smooth="yes"/>
      <point x="736" y="536"/>
      <point x="588" y="689"/>
      <point x="398" y="689" type="curve" smooth="yes"/>
      <point x="207" y="689"/>
      <point x="59" y="533"/>
      <point x="59" y="348" type="curve" smooth="yes"/>
      <point x="59" y="163"/>
      <point x="206" y="9"/>
      <point x="396" y="9" type="curve" smooth="yes"/>
    </contour>
    <contour>
      <point x="450" y="166"/>
      <point x="496" y="185"/>
      <point x="530" y="216" type="curve"/>
      <point x="517" y="229" type="line"/>
      <point x="486" y="202"/>
      <point x="445" y="186"/>
      <point x="402" y="186" type="curve" smooth="yes"/>
      <point x="309" y="186"/>
      <point x="234" y="259"/>
      <point x="234" y="349" type="curve" smooth="yes"/>
      <point x="234" y="438"/>
      <point x="309" y="511"/>
      <point x="402" y="511" type="curve" smooth="yes"/>
      <point x="446" y="511"/>
      <point x="486" y="495"/>
      <point x="517" y="468" type="curve"/>
      <point x="530" y="482" type="line"/>
      <point x="496" y="512"/>
      <point x="450" y="531"/>
      <point x="402" y="531" type="curve" smooth="yes"/>
      <point x="298" y="531"/>
      <point x="214" y="449"/>
      <point x="214" y="349" type="curve" smooth="yes"/>
      <point x="214" y="248"/>
      <point x="298" y="166"/>
      <point x="401" y="166" type="curve" smooth="yes"/>
    </contour>
    <contour>
      <point x="216" y="29"/>
      <point x="79" y="173"/>
      <point x="79" y="348" type="curve" smooth="yes"/>
      <point x="79" y="523"/>
      <point x="217" y="669"/>
      <point x="398" y="669" type="curve" smooth="yes"/>
      <point x="578" y="669"/>
      <point x="716" y="526"/>
      <point x="716" y="350" type="curve" smooth="yes"/>
      <point x="716" y="175"/>
      <point x="577" y="29"/>
      <point x="396" y="29" type="curve" smooth="yes"/>
    </contour>
  </outline>
</glyph>
<glyph name="logicalnot" format="1">
  <advance width="539"/>
  <unicode hex="00AC"/>
  <outline>
    <contour>
      <point x="440" y="340" type="line"/>
      <point x="440" y="360" type="line"/>
      <point x="40" y="360" type="line"/>
      <point x="40" y="340" type="line"/>
    </contour>
    <contour>
      <point x="440" y="160" type="line"/>
      <point x="440" y="360" type="line"/>
      <point x="420" y="360" type="line"/>
      <point x="420" y="160" type="line"/>
    </contour>
  </outline>
</glyph>
<glyph name="registered" format="1">
  <advance width="795"/>
  <unicode hex="00AE"/>
  <outline>
    <contour>
      <point x="587" y="9"/>
      <point x="736" y="165"/>
      <point x="736" y="350" type="curve" smooth="yes"/>
      <point x="736" y="536"/>
      <point x="588" y="689"/>
      <point x="398" y="689" type="curve" smooth="yes"/>
      <point x="207" y="689"/>
      <point x="59" y="533"/>
      <point x="59" y="348" type="curve" smooth="yes"/>
      <point x="59" y="163"/>
      <point x="206" y="9"/>
      <point x="396" y="9" type="curve" smooth="yes"/>
    </contour>
    <contour>
      <point x="548" y="168" type="line"/>
      <point x="449" y="305" type="line"/>
      <point x="425" y="305" type="line"/>
      <point x="523" y="168" type="line"/>
    </contour>
    <contour>
      <point x="216" y="29"/>
      <point x="79" y="173"/>
      <point x="79" y="348" type="curve" smooth="yes"/>
      <point x="79" y="523"/>
      <point x="217" y="669"/>
      <point x="398" y="669" type="curve" smooth="yes"/>
      <point x="578" y="669"/>
      <point x="716" y="526"/>
      <point x="716" y="350" type="curve" smooth="yes"/>
      <point x="716" y="175"/>
      <point x="577" y="29"/>
      <point x="396" y="29" type="curve" smooth="yes"/>
    </contour>
    <contour>
      <point x="290" y="168" type="line"/>
      <point x="290" y="294" type="line"/>
      <point x="401" y="294" type="line" smooth="yes"/>
      <point x="494" y="294"/>
      <point x="546" y="341"/>
      <point x="546" y="421" type="curve" smooth="yes"/>
      <point x="546" y="499"/>
      <point x="494" y="543"/>
      <point x="401" y="543" type="curve" smooth="yes"/>
      <point x="270" y="543" type="line"/>
      <point x="270" y="168" type="line"/>
    </contour>
    <contour>
      <point x="290" y="523" type="line"/>
      <point x="401" y="523" type="line" smooth="yes"/>
      <point x="480" y="523"/>
      <point x="526" y="488"/>
      <point x="526" y="421" type="curve" smooth="yes"/>
      <point x="526" y="353"/>
      <point x="480" y="314"/>
      <point x="401" y="314" type="curve" smooth="yes"/>
      <point x="290" y="314" type="line"/>
    </contour>
  </outline>
</glyph>
<glyph name="paragraph" format="1">
  <advance width="600"/>
  <unicode hex="00B6"/>
  <outline>
    <contour>
      <point x="245" y="-100" type="line"/>
      <point x="245" y="723" type="line"/>
      <point x="447" y="723" type="line"/>
      <point x="447" y="-100" type="line"/>
      <point x="467" y="-100" type="line"/>
      <point x="467" y="742" type="line"/>
      <point x="225" y="742" type="line" smooth="yes"/>
      <point x="104" y="742"/>
      <point x="25" y="681"/>
      <point x="25" y="581" type="curve" smooth="yes"/>
      <point x="25" y="482"/>
      <point x="104" y="419"/>
      <point x="225" y="419" type="curve"/>
      <point x="225" y="-100" type="line"/>
    </contour>
  </outline>
</glyph>
<glyph name="periodcentered" format="1">
  <advance width="170"/>
  <unicode hex="00B7"/>
  <outline>
    <contour>
      <point x="99" y="240"/>
      <point x="111" y="252"/>
      <point x="111" y="266" type="curve" smooth="yes"/>
      <point x="111" y="280"/>
      <point x="99" y="292"/>
      <point x="85" y="292" type="curve" smooth="yes"/>
      <point x="71" y="292"/>
      <point x="59" y="280"/>
      <point x="59" y="266" type="curve" smooth="yes"/>
      <point x="59" y="252"/>
      <point x="71" y="240"/>
      <point x="85" y="240" type="curve" smooth="yes"/>
    </contour>
    <contour>
      <point x="86" y="267" type="move" name="_dot"/>
    </contour>
  </outline>
</glyph>
<glyph name="AE" format="1">
  <advance width="1005"/>
  <unicode hex="00C6"/>
  <outline>
    <contour>
      <point x="32" y="0" type="line"/>
      <point x="467" y="685" type="line"/>
      <point x="453" y="681" type="line"/>
      <point x="475" y="681" type="line"/>
      <point x="475" y="700" type="line"/>
      <point x="454" y="700" type="line"/>
      <point x="9" y="0" type="line"/>
    </contour>
    <contour>
      <point x="475" y="187" type="line"/>
      <point x="475" y="206" type="line"/>
      <point x="153" y="206" type="line"/>
      <point x="143" y="187" type="line"/>
    </contour>
    <contour>
      <point x="936" y="0" type="line"/>
      <point x="936" y="19" type="line"/>
      <point x="490" y="19" type="line"/>
      <point x="490" y="346" type="line"/>
      <point x="876" y="346" type="line"/>
      <point x="876" y="365" type="line"/>
      <point x="490" y="365" type="line"/>
      <point x="490" y="681" type="line"/>
      <point x="921" y="681" type="line"/>
      <point x="921" y="700" type="line"/>
      <point x="470" y="700" type="line"/>
      <point x="470" y="0" type="line"/>
    </contour>
    <contour>
      <point x="480" y="700" type="move" name="top"/>
    </contour>
    <contour>
      <point x="480" y="0" type="move" name="bottom"/>
    </contour>
  </outline>
</glyph>
<glyph name="multiply" format="1">
  <advance width="560"/>
  <unicode hex="00D7"/>
  <outline>
    <contour>
      <point x="142" y="198" type="line"/>
      <point x="432" y="488" type="line"/>
      <point x="418" y="502" type="line"/>
      <point x="128" y="212" type="line"/>
    </contour>
    <contour>
      <point x="418" y="198" type="line"/>
      <point x="432" y="212" type="line"/>
      <point x="142" y="502" type="line"/>
      <point x="128" y="488" type="line"/>
    </contour>
  </outline>
</glyph>
<glyph name="Thorn" format="1">
  <advance width="710"/>
  <unicode hex="00DE"/>
  <outline>
    <contour>
      <point x="370" y="139" type="line" smooth="yes"/>
      <point x="542" y="139"/>
      <point x="645" y="224"/>
      <point x="645" y="369" type="curve" smooth="yes"/>
      <point x="645" y="514"/>
      <point x="542" y="599"/>
      <point x="370" y="599" type="curve" smooth="yes"/>
      <point x="144" y="599" type="line"/>
      <point x="144" y="580" type="line"/>
      <point x="372" y="580" type="line" smooth="yes"/>
      <point x="536" y="580"/>
      <point x="625" y="503"/>
      <point x="625" y="369" type="curve" smooth="yes"/>
      <point x="625" y="235"/>
      <point x="536" y="158"/>
      <point x="372" y="158" type="curve" smooth="yes"/>
      <point x="144" y="158" type="line"/>
      <point x="144" y="139" type="line"/>
    </contour>
    <contour>
      <point x="153" y="0" type="line"/>
      <point x="153" y="699" type="line"/>
      <point x="133" y="699" type="line"/>
      <point x="133" y="0" type="line"/>
    </contour>
  </outline>
</glyph>
<glyph name="divide" format="1">
  <advance width="560"/>
  <unicode hex="00F7"/>
  <outline>
    <contour>
      <point x="485" y="340" type="line"/>
      <point x="485" y="359" type="line"/>
      <point x="75" y="359" type="line"/>
      <point x="75" y="340" type="line"/>
    </contour>
    <contour>
      <point x="294" y="144"/>
      <point x="306" y="156"/>
      <point x="306" y="170" type="curve" smooth="yes"/>
      <point x="306" y="184"/>
      <point x="294" y="196"/>
      <point x="280" y="196" type="curve" smooth="yes"/>
      <point x="266" y="196"/>
      <point x="254" y="184"/>
      <point x="254" y="170" type="curve" smooth="yes"/>
      <point x="254" y="156"/>
      <point x="266" y="144"/>
      <point x="280" y="144" type="curve" smooth="yes"/>
    </contour>
    <contour>
      <point x="294" y="504"/>
      <point x="306" y="516"/>
      <point x="306" y="530" type="curve" smooth="yes"/>
      <point x="306" y="544"/>
      <point x="294" y="556"/>
      <point x="280" y="556" type="curve" smooth="yes"/>
      <point x="266" y="556"/>
      <point x="254" y="544"/>
      <point x="254" y="530" type="curve" smooth="yes"/>
      <point x="254" y="516"/>
      <point x="266" y="504"/>
      <point x="280" y="504" type="curve" smooth="yes"/>
    </contour>
  </outline>
</glyph>
<glyph name="oslash" format="1">
  <advance width="610"/>
  <unicode hex="00F8"/>
  <outline>
    <component base="o"/>
    <component base="slashlongcomb" xOffset="2"/>
    <contour>
      <point x="305" y="517" type="move" name="top"/>
    </contour>
  </outline>
</glyph>
<glyph name="Dcroat" format="1">
  <advance width="826"/>
  <unicode hex="0110"/>
  <outline>
    <component base="Eth"/>
    <contour>
      <point x="206" y="350" type="move" name="center"/>
    </contour>
    <contour>
      <point x="421" y="0" type="move" name="bottom"/>
    </contour>
    <contour>
      <point x="386" y="699" type="move" name="top"/>
    </contour>
  </outline>
</glyph>
<glyph name="idotless" format="1">
  <advance width="250"/>
  <unicode hex="0131"/>
  <outline>
    <contour>
      <point x="135" y="0" type="line"/>
      <point x="135" y="517" type="line"/>
      <point x="115" y="517" type="line"/>
      <point x="115" y="0" type="line"/>
    </contour>
    <contour>
      <point x="135" y="0" type="move" name="ogonek"/>
    </contour>
    <contour>
      <point x="125" y="0" type="move" name="bottom"/>
    </contour>
    <contour>
      <point x="125" y="517" type="move" name="top"/>
    </contour>
  </outline>
</glyph>
<glyph name="IJ" format="1">
  <advance width="714"/>
  <unicode hex="0132"/>
  <outline>
    <contour>
      <point x="484" y="-3"/>
      <point x="587" y="95"/>
      <point x="587" y="293" type="curve" smooth="yes"/>
      <point x="587" y="700" type="line"/>
      <point x="567" y="700" type="line"/>
      <point x="567" y="294" type="line" smooth="yes"/>
      <point x="567" y="107"/>
      <point x="476" y="16"/>
      <point x="328" y="16" type="curve" smooth="yes"/>
      <point x="253" y="16"/>
      <point x="185" y="39"/>
      <point x="132" y="78" type="curve"/>
      <point x="120" y="62" type="line"/>
      <point x="174" y="24"/>
      <point x="247" y="-3"/>
      <point x="327" y="-3" type="curve" smooth="yes"/>
    </contour>
    <contour>
      <point x="147" y="290" type="line"/>
      <point x="147" y="700" type="line"/>
      <point x="127" y="700" type="line"/>
      <point x="127" y="290" type="line"/>
    </contour>
    <contour>
      <point x="167" y="700" type="move" name="top"/>
    </contour>
  </outline>
</glyph>
<glyph name="OE" format="1">
  <advance width="1112"/>
  <unicode hex="0152"/>
  <outline>
    <contour>
      <point x="583" y="0" type="line"/>
      <point x="583" y="19" type="line"/>
      <point x="428" y="19" type="line" smooth="yes"/>
      <point x="217" y="19"/>
      <point x="79" y="158"/>
      <point x="79" y="349" type="curve" smooth="yes"/>
      <point x="79" y="540"/>
      <point x="217" y="681"/>
      <point x="428" y="681" type="curve" smooth="yes"/>
      <point x="583" y="681" type="line"/>
      <point x="583" y="700" type="line"/>
      <point x="428" y="700" type="line" smooth="yes"/>
      <point x="208" y="700"/>
      <point x="59" y="551"/>
      <point x="59" y="349" type="curve" smooth="yes"/>
      <point x="59" y="147"/>
      <point x="208" y="0"/>
      <point x="428" y="0" type="curve" smooth="yes"/>
    </contour>
    <contour>
      <point x="1043" y="0" type="line"/>
      <point x="1043" y="19" type="line"/>
      <point x="597" y="19" type="line"/>
      <point x="597" y="346" type="line"/>
      <point x="983" y="346" type="line"/>
      <point x="983" y="365" type="line"/>
      <point x="597" y="365" type="line"/>
      <point x="597" y="681" type="line"/>
      <point x="1028" y="681" type="line"/>
      <point x="1028" y="700" type="line"/>
      <point x="577" y="700" type="line"/>
      <point x="577" y="0" type="line"/>
    </contour>
    <contour>
      <point x="587" y="700" type="move" name="top"/>
    </contour>
    <contour>
      <point x="587" y="0" type="move" name="bottom"/>
    </contour>
  </outline>
</glyph>
<glyph name="Schwa" format="1">
  <advance width="816"/>
  <unicode hex="018F"/>
  <outline>
    <contour>
      <point x="602" y="-3"/>
      <point x="757" y="157"/>
      <point x="757" y="351" type="curve" smooth="yes"/>
      <point x="757" y="552"/>
      <point x="603" y="703"/>
      <point x="398" y="703" type="curve" smooth="yes"/>
      <point x="304" y="703"/>
      <point x="219" y="675"/>
      <point x="156" y="618" type="curve"/>
      <point x="167" y="603" type="line"/>
      <point x="234" y="661"/>
      <point x="311" y="684"/>
      <point x="398" y="684" type="curve" smooth="yes"/>
      <point x="590" y="684"/>
      <point x="737" y="539"/>
      <point x="737" y="351" type="curve" smooth="yes"/>
      <point x="737" y="349" type="line" smooth="yes"/>
      <point x="737" y="162"/>
      <point x="587" y="16"/>
      <point x="408" y="16" type="curve" smooth="yes"/>
      <point x="219" y="16"/>
      <point x="79" y="161"/>
      <point x="79" y="350" type="curve"/>
      <point x="71" y="341" type="line"/>
      <point x="742" y="341" type="line"/>
      <point x="742" y="360" type="line"/>
      <point x="59" y="360" type="line"/>
      <point x="59" y="350" type="line" smooth="yes"/>
      <point x="59" y="148"/>
      <point x="207" y="-3"/>
      <point x="408" y="-3" type="curve" smooth="yes"/>
    </contour>
    <contour>
      <point x="409" y="700" type="move" name="top"/>
    </contour>
    <contour>
      <point x="409" y="0" type="move" name="bottom"/>
    </contour>
  </outline>
</glyph>
<glyph name="jdotless" format="1">
  <advance width="255"/>
  <unicode hex="0237"/>
  <outline>
    <contour>
      <point x="97" y="-197"/>
      <point x="140" y="-146"/>
      <point x="140" y="-70" type="curve" smooth="yes"/>
      <point x="140" y="517" type="line"/>
      <point x="120" y="517" type="line"/>
      <point x="120" y="-65" type="line" smooth="yes"/>
      <point x="120" y="-138"/>
      <point x="84" y="-178"/>
      <point x="17" y="-178" type="curve" smooth="yes"/>
      <point x="-19" y="-178"/>
      <point x="-50" y="-167"/>
      <point x="-72" y="-146" type="curve"/>
      <point x="-86" y="-160" type="line"/>
      <point x="-62" y="-185"/>
      <point x="-22" y="-197"/>
      <point x="18" y="-197" type="curve" smooth="yes"/>
    </contour>
    <contour>
      <point x="130" y="517" type="move" name="top"/>
    </contour>
  </outline>
</glyph>
<glyph name="apostrophemod" format="1">
  <advance width="159"/>
  <unicode hex="02BC"/>
  <outline>
    <contour>
      <point x="85" y="441" type="line"/>
      <point x="92" y="700" type="line"/>
      <point x="72" y="700" type="line"/>
      <point x="67" y="441" type="line"/>
    </contour>
  </outline>
</glyph>
<glyph name="ringhalfright" format="1">
  <advance width="600"/>
  <unicode hex="02BE"/>
  <outline>
    <contour>
      <point x="353" y="597"/>
      <point x="391" y="638"/>
      <point x="391" y="687" type="curve" smooth="yes"/>
      <point x="391" y="737"/>
      <point x="352" y="780"/>
      <point x="299" y="780" type="curve"/>
      <point x="299" y="761" type="line"/>
      <point x="341" y="761"/>
      <point x="371" y="728"/>
      <point x="371" y="687" type="curve" smooth="yes"/>
      <point x="371" y="647"/>
      <point x="342" y="616"/>
      <point x="299" y="616" type="curve"/>
      <point x="299" y="597" type="line"/>
    </contour>
  </outline>
</glyph>
<glyph name="firsttonechinese" format="1">
  <advance width="600"/>
  <unicode hex="02C9"/>
  <outline>
    <contour>
      <point x="436" y="652" type="line"/>
      <point x="436" y="672" type="line"/>
      <point x="164" y="672" type="line"/>
      <point x="164" y="652" type="line"/>
    </contour>
    <contour>
      <point x="300" y="630" type="move" name="top"/>
    </contour>
    <contour>
      <point x="300" y="517" type="move" name="_top"/>
    </contour>
  </outline>
</glyph>
<glyph name="secondtonechinese" format="1">
  <advance width="600"/>
  <unicode hex="02CA"/>
  <outline>
    <contour>
      <point x="285" y="607" type="line"/>
      <point x="435" y="717" type="line"/>
      <point x="395" y="717" type="line"/>
      <point x="255" y="607" type="line"/>
    </contour>
    <contour>
      <point x="300" y="660" type="move" name="top"/>
    </contour>
    <contour>
      <point x="300" y="517" type="move" name="_top"/>
    </contour>
  </outline>
</glyph>
<glyph name="verticallinelowmod" format="1">
  <advance width="154"/>
  <unicode hex="02CC"/>
  <outline>
    <contour>
      <point x="87" y="-210" type="line"/>
      <point x="87" y="-30" type="line"/>
      <point x="67" y="-30" type="line"/>
      <point x="67" y="-210" type="line"/>
    </contour>
  </outline>
</glyph>
<glyph name="gravecomb" format="1">
  <advance width="600"/>
  <unicode hex="0300"/>
  <outline>
    <contour>
      <point x="345" y="607" type="line"/>
      <point x="205" y="717" type="line"/>
      <point x="165" y="717" type="line"/>
      <point x="315" y="607" type="line"/>
    </contour>
    <contour>
      <point x="300" y="660" type="move" name="top"/>
    </contour>
    <contour>
      <point x="300" y="517" type="move" name="_top"/>
    </contour>
  </outline>
</glyph>
<glyph name="acutecomb" format="1">
  <advance width="600"/>
  <unicode hex="0301"/>
  <outline>
    <contour>
      <point x="285" y="607" type="line"/>
      <point x="435" y="717" type="line"/>
      <point x="395" y="717" type="line"/>
      <point x="255" y="607" type="line"/>
    </contour>
    <contour>
      <point x="300" y="660" type="move" name="top"/>
    </contour>
    <contour>
      <point x="300" y="517" type="move" name="_top"/>
    </contour>
  </outline>
</glyph>
<glyph name="circumflexcomb" format="1">
  <advance width="600"/>
  <unicode hex="0302"/>
  <outline>
    <contour>
      <point x="189" y="607" type="line"/>
      <point x="303" y="703" type="line"/>
      <point x="297" y="703" type="line"/>
      <point x="411" y="607" type="line"/>
      <point x="438" y="607" type="line"/>
      <point x="316" y="717" type="line"/>
      <point x="284" y="717" type="line"/>
      <point x="162" y="607" type="line"/>
    </contour>
    <contour>
      <point x="300" y="650" type="move" name="top"/>
    </contour>
    <contour>
      <point x="300" y="517" type="move" name="_top"/>
    </contour>
  </outline>
</glyph>
<glyph name="tildecomb" format="1">
  <advance width="600"/>
  <unicode hex="0303"/>
  <outline>
    <contour>
      <point x="406" y="619"/>
      <point x="434" y="653"/>
      <point x="436" y="703" type="curve"/>
      <point x="417" y="703" type="line"/>
      <point x="415" y="664"/>
      <point x="395" y="638"/>
      <point x="363" y="638" type="curve" smooth="yes"/>
      <point x="318" y="638"/>
      <point x="294" y="707"/>
      <point x="237" y="707" type="curve" smooth="yes"/>
      <point x="194" y="707"/>
      <point x="166" y="673"/>
      <point x="164" y="621" type="curve"/>
      <point x="183" y="621" type="line"/>
      <point x="185" y="662"/>
      <point x="205" y="688"/>
      <point x="237" y="688" type="curve" smooth="yes"/>
      <point x="282" y="688"/>
      <point x="306" y="619"/>
      <point x="363" y="619" type="curve" smooth="yes"/>
    </contour>
    <contour>
      <point x="300" y="650" type="move" name="top"/>
    </contour>
    <contour>
      <point x="300" y="517" type="move" name="_top"/>
    </contour>
  </outline>
</glyph>
<glyph name="brevecomb" format="1">
  <advance width="600"/>
  <unicode hex="0306"/>
  <outline>
    <contour>
      <point x="372" y="604"/>
      <point x="430" y="647"/>
      <point x="432" y="717" type="curve"/>
      <point x="413" y="717" type="line"/>
      <point x="411" y="659"/>
      <point x="362" y="623"/>
      <point x="300" y="623" type="curve" smooth="yes"/>
      <point x="238" y="623"/>
      <point x="189" y="659"/>
      <point x="187" y="717" type="curve"/>
      <point x="168" y="717" type="line"/>
      <point x="170" y="647"/>
      <point x="228" y="604"/>
      <point x="300" y="604" type="curve" smooth="yes"/>
    </contour>
    <contour>
      <point x="300" y="650" type="move" name="top"/>
    </contour>
    <contour>
      <point x="300" y="517" type="move" name="_top"/>
    </contour>
  </outline>
</glyph>
<glyph name="dieresiscomb" format="1">
  <advance width="600"/>
  <unicode hex="0308"/>
  <outline>
    <contour>
      <point x="396" y="641"/>
      <point x="408" y="653"/>
      <point x="408" y="667" type="curve" smooth="yes"/>
      <point x="408" y="681"/>
      <point x="396" y="693"/>
      <point x="382" y="693" type="curve" smooth="yes"/>
      <point x="368" y="693"/>
      <point x="356" y="681"/>
      <point x="356" y="667" type="curve" smooth="yes"/>
      <point x="356" y="653"/>
      <point x="368" y="641"/>
      <point x="382" y="641" type="curve" smooth="yes"/>
    </contour>
    <contour>
      <point x="232" y="641"/>
      <point x="244" y="653"/>
      <point x="244" y="667" type="curve" smooth="yes"/>
      <point x="244" y="681"/>
      <point x="232" y="693"/>
      <point x="218" y="693" type="curve" smooth="yes"/>
      <point x="204" y="693"/>
      <point x="192" y="681"/>
      <point x="192" y="667" type="curve" smooth="yes"/>
      <point x="192" y="653"/>
      <point x="204" y="641"/>
      <point x="218" y="641" type="curve" smooth="yes"/>
    </contour>
    <contour>
      <point x="300" y="630" type="move" name="top"/>
    </contour>
    <contour>
      <point x="300" y="517" type="move" name="_top"/>
    </contour>
  </outline>
</glyph>
<glyph name="ringcomb" format="1">
  <advance width="600"/>
  <unicode hex="030A"/>
  <outline>
    <contour>
      <point x="353" y="597"/>
      <point x="392" y="638"/>
      <point x="392" y="687" type="curve" smooth="yes"/>
      <point x="392" y="737"/>
      <point x="352" y="780"/>
      <point x="299" y="780" type="curve" smooth="yes"/>
      <point x="246" y="780"/>
      <point x="207" y="737"/>
      <point x="207" y="687" type="curve" smooth="yes"/>
      <point x="207" y="638"/>
      <point x="245" y="597"/>
      <point x="299" y="597" type="curve" smooth="yes"/>
    </contour>
    <contour>
      <point x="256" y="616"/>
      <point x="227" y="647"/>
      <point x="227" y="687" type="curve" smooth="yes"/>
      <point x="227" y="728"/>
      <point x="257" y="761"/>
      <point x="299" y="761" type="curve" smooth="yes"/>
      <point x="341" y="761"/>
      <point x="372" y="727"/>
      <point x="372" y="687" type="curve" smooth="yes"/>
      <point x="372" y="648"/>
      <point x="342" y="616"/>
      <point x="299" y="616" type="curve" smooth="yes"/>
    </contour>
    <contour>
      <point x="300" y="720" type="move" name="top"/>
    </contour>
    <contour>
      <point x="300" y="517" type="move" name="_top"/>
    </contour>
  </outline>
</glyph>
<glyph name="hungarumlautcomb" format="1">
  <advance width="600"/>
  <unicode hex="030B"/>
  <outline>
    <contour>
      <point x="383" y="607" type="line"/>
      <point x="501" y="717" type="line"/>
      <point x="467" y="717" type="line"/>
      <point x="356" y="607" type="line"/>
    </contour>
    <contour>
      <point x="244" y="607" type="line"/>
      <point x="362" y="717" type="line"/>
      <point x="328" y="717" type="line"/>
      <point x="217" y="607" type="line"/>
    </contour>
    <contour>
      <point x="300" y="660" type="move" name="top"/>
    </contour>
    <contour>
      <point x="300" y="517" type="move" name="_top"/>
    </contour>
  </outline>
</glyph>
<glyph name="dblgravecomb" format="1">
  <advance width="600"/>
  <unicode hex="030F"/>
  <outline>
    <contour>
      <point x="383" y="607" type="line"/>
      <point x="272" y="717" type="line"/>
      <point x="238" y="717" type="line"/>
      <point x="356" y="607" type="line"/>
    </contour>
    <contour>
      <point x="244" y="607" type="line"/>
      <point x="133" y="717" type="line"/>
      <point x="99" y="717" type="line"/>
      <point x="217" y="607" type="line"/>
    </contour>
    <contour>
      <point x="300" y="660" type="move" name="top"/>
    </contour>
    <contour>
      <point x="300" y="517" type="move" name="_top"/>
    </contour>
  </outline>
</glyph>
<glyph name="commaturnedabovecomb" format="1">
  <advance width="600"/>
  <unicode hex="0312"/>
  <outline>
    <contour>
      <point x="315" y="604"/>
      <point x="326" y="616"/>
      <point x="326" y="630" type="curve" smooth="yes"/>
      <point x="326" y="644"/>
      <point x="314" y="656"/>
      <point x="300" y="656" type="curve"/>
      <point x="301" y="645" type="line"/>
      <point x="325" y="759" type="line"/>
      <point x="307" y="759" type="line"/>
      <point x="279" y="659" type="line"/>
      <point x="277" y="648"/>
      <point x="274" y="641"/>
      <point x="274" y="630" type="curve" smooth="yes"/>
      <point x="274" y="618"/>
      <point x="284" y="604"/>
      <point x="300" y="604" type="curve" smooth="yes"/>
    </contour>
    <contour>
      <point x="300" y="690" type="move" name="top"/>
    </contour>
    <contour>
      <point x="300" y="517" type="move" name="_top"/>
    </contour>
  </outline>
</glyph>
<glyph name="horncomb" format="1">
  <advance width="600"/>
  <unicode hex="031B"/>
  <outline>
    <contour>
      <point x="300" y="498" type="line" smooth="yes"/>
      <point x="365" y="498"/>
      <point x="390" y="539"/>
      <point x="390" y="588" type="curve" smooth="yes"/>
      <point x="390" y="614"/>
      <point x="381" y="642"/>
      <point x="368" y="662" type="curve"/>
      <point x="350" y="654" type="line"/>
      <point x="361" y="635"/>
      <point x="370" y="613"/>
      <point x="370" y="587" type="curve" smooth="yes"/>
      <point x="370" y="550"/>
      <point x="352" y="517"/>
      <point x="300" y="517" type="curve" smooth="yes"/>
      <point x="290" y="517" type="line"/>
      <point x="290" y="498" type="line"/>
    </contour>
    <contour>
      <point x="300" y="517" type="move" name="_topright"/>
    </contour>
  </outline>
</glyph>
<glyph name="dotbelowcomb" format="1">
  <advance width="600"/>
  <unicode hex="0323"/>
  <outline>
    <contour>
      <point x="314" y="-176"/>
      <point x="326" y="-164"/>
      <point x="326" y="-150" type="curve" smooth="yes"/>
      <point x="326" y="-136"/>
      <point x="314" y="-124"/>
      <point x="300" y="-124" type="curve" smooth="yes"/>
      <point x="286" y="-124"/>
      <point x="274" y="-136"/>
      <point x="274" y="-150" type="curve" smooth="yes"/>
      <point x="274" y="-164"/>
      <point x="286" y="-176"/>
      <point x="300" y="-176" type="curve" smooth="yes"/>
    </contour>
    <contour>
      <point x="300" y="0" type="move" name="_bottom"/>
    </contour>
    <contour>
      <point x="300" y="-113" type="move" name="bottom"/>
    </contour>
  </outline>
</glyph>
<glyph name="dieresisbelowcomb" format="1">
  <advance width="600"/>
  <unicode hex="0324"/>
  <outline>
    <contour>
      <point x="389" y="-176"/>
      <point x="401" y="-164"/>
      <point x="401" y="-150" type="curve" smooth="yes"/>
      <point x="401" y="-136"/>
      <point x="389" y="-124"/>
      <point x="375" y="-124" type="curve" smooth="yes"/>
      <point x="361" y="-124"/>
      <point x="349" y="-136"/>
      <point x="349" y="-150" type="curve" smooth="yes"/>
      <point x="349" y="-164"/>
      <point x="361" y="-176"/>
      <point x="375" y="-176" type="curve" smooth="yes"/>
    </contour>
    <contour>
      <point x="239" y="-176"/>
      <point x="251" y="-164"/>
      <point x="251" y="-150" type="curve" smooth="yes"/>
      <point x="251" y="-136"/>
      <point x="239" y="-124"/>
      <point x="225" y="-124" type="curve" smooth="yes"/>
      <point x="211" y="-124"/>
      <point x="199" y="-136"/>
      <point x="199" y="-150" type="curve" smooth="yes"/>
      <point x="199" y="-164"/>
      <point x="211" y="-176"/>
      <point x="225" y="-176" type="curve" smooth="yes"/>
    </contour>
    <contour>
      <point x="300" y="0" type="move" name="_bottom"/>
    </contour>
    <contour>
      <point x="300" y="-129" type="move" name="bottom"/>
    </contour>
  </outline>
</glyph>
<glyph name="commaaccentcomb" format="1">
  <advance width="600"/>
  <unicode hex="0326"/>
  <outline>
    <contour>
      <point x="297" y="-259" type="line"/>
      <point x="320" y="-182" type="line" smooth="yes"/>
      <point x="323" y="-171"/>
      <point x="326" y="-161"/>
      <point x="326" y="-150" type="curve" smooth="yes"/>
      <point x="326" y="-138"/>
      <point x="316" y="-124"/>
      <point x="300" y="-124" type="curve" smooth="yes"/>
      <point x="285" y="-124"/>
      <point x="274" y="-136"/>
      <point x="274" y="-150" type="curve" smooth="yes"/>
      <point x="274" y="-164"/>
      <point x="286" y="-176"/>
      <point x="300" y="-176" type="curve"/>
      <point x="299" y="-165" type="line"/>
      <point x="279" y="-259" type="line"/>
    </contour>
    <contour>
      <point x="300" y="0" type="move" name="_bottom"/>
    </contour>
    <contour>
      <point x="300" y="-113" type="move" name="bottom"/>
    </contour>
  </outline>
</glyph>
<glyph name="cedillacomb" format="1">
  <advance width="600"/>
  <unicode hex="0327"/>
  <outline>
    <contour>
      <point x="336" y="-213"/>
      <point x="375" y="-182"/>
      <point x="375" y="-134" type="curve" smooth="yes"/>
      <point x="375" y="-89"/>
      <point x="342" y="-59"/>
      <point x="292" y="-56" type="curve"/>
      <point x="309" y="5" type="line"/>
      <point x="290" y="5" type="line"/>
      <point x="268" y="-74" type="line"/>
      <point x="284" y="-74" type="line" smooth="yes"/>
      <point x="329" y="-74"/>
      <point x="355" y="-99"/>
      <point x="355" y="-134" type="curve" smooth="yes"/>
      <point x="355" y="-173"/>
      <point x="324" y="-194"/>
      <point x="283" y="-194" type="curve" smooth="yes"/>
      <point x="260" y="-194"/>
      <point x="237" y="-186"/>
      <point x="221" y="-171" type="curve"/>
      <point x="210" y="-186" type="line"/>
      <point x="232" y="-205"/>
      <point x="256" y="-213"/>
      <point x="284" y="-213" type="curve" smooth="yes"/>
    </contour>
    <contour>
      <point x="300" y="0" type="move" name="_bottom"/>
    </contour>
  </outline>
</glyph>
<glyph name="brevebelowcomb" format="1">
  <advance width="600"/>
  <unicode hex="032E"/>
  <outline>
    <contour>
      <point x="372" y="-198"/>
      <point x="430" y="-157"/>
      <point x="432" y="-90" type="curve"/>
      <point x="413" y="-90" type="line"/>
      <point x="411" y="-145"/>
      <point x="362" y="-179"/>
      <point x="300" y="-179" type="curve" smooth="yes"/>
      <point x="238" y="-179"/>
      <point x="189" y="-145"/>
      <point x="187" y="-90" type="curve"/>
      <point x="168" y="-90" type="line"/>
      <point x="170" y="-157"/>
      <point x="228" y="-198"/>
      <point x="300" y="-198" type="curve" smooth="yes"/>
    </contour>
    <contour>
      <point x="300" y="0" type="move" name="_bottom"/>
    </contour>
    <contour>
      <point x="300" y="-128" type="move" name="bottom"/>
    </contour>
  </outline>
</glyph>
<glyph name="macronbelowcomb" format="1">
  <advance width="600"/>
  <unicode hex="0331"/>
  <outline>
    <contour>
      <point x="436" y="-160" type="line"/>
      <point x="436" y="-140" type="line"/>
      <point x="164" y="-140" type="line"/>
      <point x="164" y="-160" type="line"/>
    </contour>
    <contour>
      <point x="300" y="0" type="move" name="_bottom"/>
    </contour>
    <contour>
      <point x="300" y="-118" type="move" name="bottom"/>
    </contour>
  </outline>
</glyph>
<glyph name="strokelongcomb" format="1">
  <advance width="800"/>
  <unicode hex="0336"/>
  <outline>
    <contour>
      <point x="788" y="432" type="line"/>
      <point x="788" y="451" type="line"/>
      <point x="12" y="451" type="line"/>
      <point x="12" y="432" type="line"/>
    </contour>
    <contour>
      <point x="400" y="441" type="move" name="_center"/>
    </contour>
  </outline>
</glyph>
<glyph name="slashshortcomb" format="1">
  <advance width="322"/>
  <unicode hex="0337"/>
  <outline>
    <contour>
      <point x="255" y="441" type="line"/>
      <point x="244" y="455" type="line"/>
      <point x="51" y="313" type="line"/>
      <point x="62" y="299" type="line"/>
    </contour>
    <contour>
      <point x="153" y="377" type="move" name="_center"/>
    </contour>
  </outline>
</glyph>
<glyph name="slashlongcomb" format="1">
  <advance width="606"/>
  <unicode hex="0338"/>
  <outline>
    <contour>
      <point x="91" y="-70" type="line"/>
      <point x="537" y="587" type="line"/>
      <point x="514" y="587" type="line"/>
      <point x="68" y="-70" type="line"/>
    </contour>
    <contour>
      <point x="303" y="259" type="move" name="_center"/>
    </contour>
  </outline>
</glyph>
<glyph name="Omega" format="1">
  <advance width="908"/>
  <unicode hex="03A9"/>
  <outline>
    <contour>
      <point x="309" y="0" type="line"/>
      <point x="309" y="20" type="line"/>
      <point x="196" y="78"/>
      <point x="115" y="218"/>
      <point x="115" y="353" type="curve" smooth="yes"/>
      <point x="115" y="541"/>
      <point x="258" y="679"/>
      <point x="454" y="679" type="curve" smooth="yes"/>
      <point x="650" y="679"/>
      <point x="793" y="541"/>
      <point x="793" y="353" type="curve" smooth="yes"/>
      <point x="793" y="218"/>
      <point x="712" y="79"/>
      <point x="600" y="21" type="curve"/>
      <point x="600" y="0" type="line"/>
      <point x="904" y="0" type="line"/>
      <point x="904" y="20" type="line"/>
      <point x="638" y="20" type="line"/>
      <point x="741" y="89"/>
      <point x="813" y="224"/>
      <point x="813" y="353" type="curve" smooth="yes"/>
      <point x="813" y="551"/>
      <point x="660" y="699"/>
      <point x="454" y="699" type="curve" smooth="yes"/>
      <point x="248" y="699"/>
      <point x="95" y="551"/>
      <point x="95" y="353" type="curve" smooth="yes"/>
      <point x="95" y="224"/>
      <point x="167" y="89"/>
      <point x="270" y="20" type="curve"/>
      <point x="4" y="20" type="line"/>
      <point x="4" y="0" type="line"/>
    </contour>
    <contour>
      <point x="11" y="699" type="move" name="topleft"/>
    </contour>
  </outline>
</glyph>
<glyph name="mu" format="1">
  <advance width="686"/>
  <unicode hex="03BC"/>
  <outline>
    <contour>
      <point x="135" y="-194" type="line"/>
      <point x="135" y="517" type="line"/>
      <point x="115" y="517" type="line"/>
      <point x="115" y="-194" type="line"/>
    </contour>
    <component base="u" xOffset="22"/>
  </outline>
</glyph>
<glyph name="Germandbls" format="1">
  <advance width="742"/>
  <unicode hex="1E9E"/>
  <outline>
    <contour>
      <point x="589" y="-3"/>
      <point x="677" y="64"/>
      <point x="677" y="192" type="curve" smooth="yes"/>
      <point x="677" y="320"/>
      <point x="588" y="388"/>
      <point x="453" y="388" type="curve" smooth="yes"/>
      <point x="426" y="388"/>
      <point x="398" y="385"/>
      <point x="374" y="377" type="curve"/>
      <point x="375" y="367" type="line"/>
      <point x="616" y="612" type="line"/>
      <point x="616" y="628" type="line"/>
      <point x="560" y="676"/>
      <point x="485" y="699"/>
      <point x="398" y="699" type="curve" smooth="yes"/>
      <point x="229" y="699"/>
      <point x="127" y="594"/>
      <point x="127" y="418" type="curve" smooth="yes"/>
      <point x="127" y="0" type="line"/>
      <point x="147" y="0" type="line"/>
      <point x="147" y="416" type="line" smooth="yes"/>
      <point x="147" y="588"/>
      <point x="239" y="680"/>
      <point x="398" y="680" type="curve" smooth="yes"/>
      <point x="481" y="680"/>
      <point x="551" y="661"/>
      <point x="603" y="615" type="curve"/>
      <point x="606" y="627" type="line"/>
      <point x="356" y="373" type="line"/>
      <point x="363" y="357" type="line"/>
      <point x="389" y="365"/>
      <point x="422" y="369"/>
      <point x="454" y="369" type="curve" smooth="yes"/>
      <point x="577" y="369"/>
      <point x="657" y="309"/>
      <point x="657" y="192" type="curve" smooth="yes"/>
      <point x="657" y="76"/>
      <point x="578" y="16"/>
      <point x="458" y="16" type="curve" smooth="yes"/>
      <point x="408" y="16"/>
      <point x="365" y="25"/>
      <point x="327" y="44" type="curve"/>
      <point x="319" y="25" type="line"/>
      <point x="361" y="6"/>
      <point x="399" y="-3"/>
      <point x="458" y="-3" type="curve" smooth="yes"/>
    </contour>
  </outline>
</glyph>
<glyph name="endash" format="1">
  <advance width="400"/>
  <unicode hex="2013"/>
  <outline>
    <contour>
      <point x="400" y="290" type="line"/>
      <point x="400" y="310" type="line"/>
      <point x="0" y="310" type="line"/>
      <point x="0" y="290" type="line"/>
    </contour>
  </outline>
</glyph>
<glyph name="dagger" format="1">
  <advance width="520"/>
  <unicode hex="2020"/>
  <outline>
    <contour>
      <point x="270" y="-194" type="line"/>
      <point x="270" y="410" type="line"/>
      <point x="490" y="410" type="line"/>
      <point x="490" y="429" type="line"/>
      <point x="270" y="429" type="line"/>
      <point x="270" y="700" type="line"/>
      <point x="250" y="700" type="line"/>
      <point x="250" y="429" type="line"/>
      <point x="30" y="429" type="line"/>
      <point x="30" y="410" type="line"/>
      <point x="250" y="410" type="line"/>
      <point x="250" y="-194" type="line"/>
    </contour>
  </outline>
</glyph>
<glyph name="bullet" format="1">
  <advance width="258"/>
  <unicode hex="2022"/>
  <outline>
    <contour>
      <point x="153" y="225"/>
      <point x="173" y="245"/>
      <point x="173" y="269" type="curve" smooth="yes"/>
      <point x="173" y="293"/>
      <point x="153" y="313"/>
      <point x="129" y="313" type="curve" smooth="yes"/>
      <point x="105" y="313"/>
      <point x="85" y="293"/>
      <point x="85" y="269" type="curve" smooth="yes"/>
      <point x="85" y="245"/>
      <point x="105" y="225"/>
      <point x="129" y="225" type="curve" smooth="yes"/>
    </contour>
  </outline>
</glyph>
<glyph name="minute" format="1">
  <advance width="115"/>
  <unicode hex="2032"/>
  <outline>
    <contour>
      <point x="48" y="459" type="line"/>
      <point x="69" y="699" type="line"/>
      <point x="49" y="699" type="line"/>
      <point x="32" y="459" type="line"/>
    </contour>
  </outline>
</glyph>
<glyph name="guilsinglleft" format="1">
  <advance width="273"/>
  <unicode hex="2039"/>
  <outline>
    <contour>
      <point x="228" y="74" type="line"/>
      <point x="82" y="259" type="line"/>
      <point x="228" y="444" type="line"/>
      <point x="205" y="444" type="line"/>
      <point x="58" y="259" type="line"/>
      <point x="205" y="74" type="line"/>
    </contour>
  </outline>
</glyph>
<glyph name="guilsinglright" format="1">
  <advance width="273"/>
  <unicode hex="203A"/>
  <outline>
    <contour>
      <point x="215" y="259" type="line"/>
      <point x="68" y="444" type="line"/>
      <point x="45" y="444" type="line"/>
      <point x="191" y="259" type="line"/>
      <point x="45" y="74" type="line"/>
      <point x="68" y="74" type="line"/>
    </contour>
  </outline>
</glyph>
<glyph name="colonsign" format="1">
  <advance width="705"/>
  <unicode hex="20A1"/>
  <outline>
    <contour>
      <point x="457" y="-119" type="line"/>
      <point x="477" y="11" type="line"/>
      <point x="457" y="11" type="line"/>
      <point x="437" y="-119" type="line"/>
    </contour>
    <contour>
      <point x="347" y="-119" type="line"/>
      <point x="367" y="11" type="line"/>
      <point x="347" y="11" type="line"/>
      <point x="327" y="-119" type="line"/>
    </contour>
    <contour>
      <point x="367" y="687" type="line"/>
      <point x="387" y="804" type="line"/>
      <point x="367" y="804" type="line"/>
      <point x="347" y="687" type="line"/>
    </contour>
    <contour>
      <point x="477" y="687" type="line"/>
      <point x="497" y="804" type="line"/>
      <point x="477" y="804" type="line"/>
      <point x="457" y="687" type="line"/>
    </contour>
    <component base="C"/>
  </outline>
</glyph>
<glyph name="franc" format="1">
  <advance width="632"/>
  <unicode hex="20A3"/>
  <outline>
    <contour>
      <point x="383" y="157" type="line"/>
      <point x="383" y="175" type="line"/>
      <point x="23" y="175" type="line"/>
      <point x="23" y="157" type="line"/>
    </contour>
    <contour>
      <point x="153" y="0" type="line"/>
      <point x="153" y="326" type="line"/>
      <point x="539" y="326" type="line"/>
      <point x="539" y="345" type="line"/>
      <point x="153" y="345" type="line"/>
      <point x="153" y="681" type="line"/>
      <point x="584" y="681" type="line"/>
      <point x="584" y="700" type="line"/>
      <point x="133" y="700" type="line"/>
      <point x="133" y="0" type="line"/>
    </contour>
  </outline>
</glyph>
<glyph name="lira" format="1">
  <advance width="595"/>
  <unicode hex="20A4"/>
  <outline>
    <contour>
      <point x="567" y="0" type="line"/>
      <point x="567" y="19" type="line"/>
      <point x="7" y="19" type="line"/>
      <point x="7" y="0" type="line"/>
    </contour>
    <contour>
      <point x="147" y="10" type="line"/>
      <point x="147" y="479" type="line" smooth="yes"/>
      <point x="147" y="607"/>
      <point x="217" y="684"/>
      <point x="372" y="684" type="curve" smooth="yes"/>
      <point x="446" y="684"/>
      <point x="512" y="667"/>
      <point x="564" y="626" type="curve"/>
      <point x="577" y="642" type="line"/>
      <point x="524" y="684"/>
      <point x="452" y="703"/>
      <point x="372" y="703" type="curve" smooth="yes"/>
      <point x="205" y="703"/>
      <point x="127" y="613"/>
      <point x="127" y="482" type="curve" smooth="yes"/>
      <point x="127" y="10" type="line"/>
    </contour>
    <contour>
      <point x="446" y="272" type="line"/>
      <point x="446" y="290" type="line"/>
      <point x="7" y="290" type="line"/>
      <point x="7" y="272" type="line"/>
    </contour>
    <contour>
      <point x="446" y="410" type="line"/>
      <point x="446" y="428" type="line"/>
      <point x="7" y="428" type="line"/>
      <point x="7" y="410" type="line"/>
    </contour>
  </outline>
</glyph>
<glyph name="naira" format="1">
  <advance width="816"/>
  <unicode hex="20A6"/>
  <outline>
    <contour>
      <point x="803" y="272" type="line"/>
      <point x="803" y="290" type="line"/>
      <point x="13" y="290" type="line"/>
      <point x="13" y="272" type="line"/>
    </contour>
    <contour>
      <point x="803" y="410" type="line"/>
      <point x="803" y="428" type="line"/>
      <point x="13" y="428" type="line"/>
      <point x="13" y="410" type="line"/>
    </contour>
    <contour>
      <point x="153" y="0" type="line"/>
      <point x="153" y="677" type="line"/>
      <point x="142" y="677" type="line"/>
      <point x="666" y="0" type="line"/>
      <point x="683" y="0" type="line"/>
      <point x="683" y="700" type="line"/>
      <point x="663" y="700" type="line"/>
      <point x="663" y="23" type="line"/>
      <point x="674" y="23" type="line"/>
      <point x="150" y="700" type="line"/>
      <point x="133" y="700" type="line"/>
      <point x="133" y="0" type="line"/>
    </contour>
  </outline>
</glyph>
<glyph name="won" format="1">
  <advance width="1116"/>
  <unicode hex="20A9"/>
  <outline>
    <contour>
      <point x="313" y="0" type="line"/>
      <point x="560" y="678" type="line"/>
      <point x="556" y="678" type="line"/>
      <point x="803" y="0" type="line"/>
      <point x="823" y="0" type="line"/>
      <point x="1073" y="700" type="line"/>
      <point x="1052" y="700" type="line"/>
      <point x="808" y="16" type="line"/>
      <point x="818" y="16" type="line"/>
      <point x="568" y="700" type="line"/>
      <point x="548" y="700" type="line"/>
      <point x="298" y="16" type="line"/>
      <point x="309" y="16" type="line"/>
      <point x="65" y="700" type="line"/>
      <point x="43" y="700" type="line"/>
      <point x="293" y="0" type="line"/>
    </contour>
    <contour>
      <point x="1091" y="272" type="line"/>
      <point x="1091" y="290" type="line"/>
      <point x="25" y="290" type="line"/>
      <point x="25" y="272" type="line"/>
    </contour>
    <contour>
      <point x="1091" y="410" type="line"/>
      <point x="1091" y="428" type="line"/>
      <point x="25" y="428" type="line"/>
      <point x="25" y="410" type="line"/>
    </contour>
  </outline>
</glyph>
<glyph name="euro" format="1">
  <advance width="762"/>
  <unicode hex="20AC"/>
  <outline>
    <contour>
      <point x="534" y="272" type="line"/>
      <point x="534" y="290" type="line"/>
      <point x="0" y="290" type="line"/>
      <point x="0" y="272" type="line"/>
    </contour>
    <contour>
      <point x="534" y="410" type="line"/>
      <point x="534" y="428" type="line"/>
      <point x="0" y="428" type="line"/>
      <point x="0" y="410" type="line"/>
    </contour>
    <contour>
      <point x="561" y="-3"/>
      <point x="647" y="27"/>
      <point x="707" y="87" type="curve"/>
      <point x="695" y="101" type="line"/>
      <point x="631" y="40"/>
      <point x="554" y="16"/>
      <point x="469" y="16" type="curve" smooth="yes"/>
      <point x="276" y="16"/>
      <point x="130" y="161"/>
      <point x="130" y="350" type="curve" smooth="yes"/>
      <point x="130" y="539"/>
      <point x="276" y="684"/>
      <point x="469" y="684" type="curve" smooth="yes"/>
      <point x="554" y="684"/>
      <point x="631" y="661"/>
      <point x="695" y="600" type="curve"/>
      <point x="707" y="614" type="line"/>
      <point x="647" y="674"/>
      <point x="561" y="703"/>
      <point x="469" y="703" type="curve" smooth="yes"/>
      <point x="264" y="703"/>
      <point x="110" y="552"/>
      <point x="110" y="350" type="curve" smooth="yes"/>
      <point x="110" y="148"/>
      <point x="264" y="-3"/>
      <point x="469" y="-3" type="curve" smooth="yes"/>
    </contour>
  </outline>
</glyph>
<glyph name="kip" format="1">
  <advance width="555"/>
  <unicode hex="20AD"/>
  <outline>
    <contour>
      <point x="466" y="341" type="line"/>
      <point x="466" y="360" type="line"/>
      <point x="23" y="360" type="line"/>
      <point x="23" y="341" type="line"/>
    </contour>
    <contour>
      <point x="153" y="0" type="line"/>
      <point x="153" y="700" type="line"/>
      <point x="133" y="700" type="line"/>
      <point x="133" y="0" type="line"/>
    </contour>
    <contour>
      <point x="539" y="0" type="line"/>
      <point x="192" y="350" type="line"/>
      <point x="164" y="350" type="line"/>
      <point x="511" y="0" type="line"/>
    </contour>
    <contour>
      <point x="164" y="350" type="line"/>
      <point x="192" y="350" type="line"/>
      <point x="539" y="700" type="line"/>
      <point x="511" y="700" type="line"/>
    </contour>
  </outline>
</glyph>
<glyph name="peso" format="1">
  <advance width="734"/>
  <unicode hex="20B1"/>
  <outline>
    <contour>
      <point x="144" y="0" type="line"/>
      <point x="144" y="249" type="line"/>
      <point x="135" y="240" type="line"/>
      <point x="361" y="240" type="line" smooth="yes"/>
      <point x="531" y="240"/>
      <point x="628" y="325"/>
      <point x="628" y="472" type="curve" smooth="yes"/>
      <point x="628" y="616"/>
      <point x="531" y="699"/>
      <point x="361" y="699" type="curve" smooth="yes"/>
      <point x="124" y="699" type="line"/>
      <point x="124" y="0" type="line"/>
    </contour>
    <contour>
      <point x="708" y="407" type="line"/>
      <point x="708" y="427" type="line"/>
      <point x="34" y="427" type="line"/>
      <point x="34" y="407" type="line"/>
    </contour>
    <contour>
      <point x="144" y="688" type="line"/>
      <point x="135" y="679" type="line"/>
      <point x="361" y="679" type="line" smooth="yes"/>
      <point x="518" y="679"/>
      <point x="608" y="604"/>
      <point x="608" y="472" type="curve" smooth="yes"/>
      <point x="608" y="337"/>
      <point x="518" y="260"/>
      <point x="361" y="260" type="curve" smooth="yes"/>
      <point x="135" y="260" type="line"/>
      <point x="144" y="251" type="line"/>
    </contour>
    <contour>
      <point x="708" y="517" type="line"/>
      <point x="708" y="537" type="line"/>
      <point x="34" y="537" type="line"/>
      <point x="34" y="517" type="line"/>
    </contour>
  </outline>
</glyph>
<glyph name="cedi" format="1">
  <advance width="705"/>
  <unicode hex="20B5"/>
  <outline>
    <contour>
      <point x="411" y="-119" type="line"/>
      <point x="411" y="11" type="line"/>
      <point x="391" y="11" type="line"/>
      <point x="391" y="-119" type="line"/>
    </contour>
    <contour>
      <point x="411" y="687" type="line"/>
      <point x="411" y="804" type="line"/>
      <point x="391" y="804" type="line"/>
      <point x="391" y="687" type="line"/>
    </contour>
    <component base="C"/>
  </outline>
</glyph>
<glyph name="rupeeIndian" format="1">
  <advance width="634"/>
  <unicode hex="20B9"/>
  <outline>
    <contour>
      <point x="277" y="240" type="line" smooth="yes"/>
      <point x="447" y="240"/>
      <point x="544" y="325"/>
      <point x="544" y="472" type="curve" smooth="yes"/>
      <point x="544" y="582"/>
      <point x="487" y="657"/>
      <point x="385" y="685" type="curve"/>
      <point x="383" y="679" type="line"/>
      <point x="620" y="679" type="line"/>
      <point x="620" y="699" type="line"/>
      <point x="40" y="699" type="line"/>
      <point x="40" y="679" type="line"/>
      <point x="277" y="679" type="line" smooth="yes"/>
      <point x="434" y="679"/>
      <point x="524" y="604"/>
      <point x="524" y="472" type="curve" smooth="yes"/>
      <point x="524" y="337"/>
      <point x="434" y="260"/>
      <point x="277" y="260" type="curve" smooth="yes"/>
      <point x="40" y="260" type="line"/>
      <point x="40" y="240" type="line"/>
    </contour>
    <contour>
      <point x="620" y="0" type="line"/>
      <point x="408" y="270" type="line"/>
      <point x="383" y="270" type="line"/>
      <point x="595" y="0" type="line"/>
    </contour>
    <contour>
      <point x="620" y="460" type="line"/>
      <point x="620" y="480" type="line"/>
      <point x="40" y="480" type="line"/>
      <point x="40" y="460" type="line"/>
    </contour>
  </outline>
</glyph>
<glyph name="liraTurkish" format="1">
  <advance width="645"/>
  <unicode hex="20BA"/>
  <outline>
    <contour>
      <point x="218" y="0" type="line" smooth="yes"/>
      <point x="468" y="0"/>
      <point x="595" y="125"/>
      <point x="595" y="349" type="curve"/>
      <point x="576" y="349" type="line"/>
      <point x="576" y="138"/>
      <point x="455" y="20"/>
      <point x="218" y="20" type="curve" smooth="yes"/>
      <point x="153" y="20" type="line"/>
      <point x="153" y="699" type="line"/>
      <point x="133" y="699" type="line"/>
      <point x="133" y="0" type="line"/>
    </contour>
    <contour>
      <point x="452" y="464" type="line"/>
      <point x="452" y="484" type="line"/>
      <point x="13" y="256" type="line"/>
      <point x="13" y="236" type="line"/>
    </contour>
    <contour>
      <point x="452" y="604" type="line"/>
      <point x="452" y="624" type="line"/>
      <point x="13" y="396" type="line"/>
      <point x="13" y="376" type="line"/>
    </contour>
  </outline>
</glyph>
<glyph name="manat" format="1">
  <advance width="718"/>
  <unicode hex="20BC"/>
  <outline>
    <contour>
      <point x="60" y="0" type="line"/>
      <point x="60" y="260" type="line" smooth="yes"/>
      <point x="60" y="448"/>
      <point x="179" y="589"/>
      <point x="359" y="589" type="curve" smooth="yes"/>
      <point x="539" y="589"/>
      <point x="658" y="448"/>
      <point x="658" y="260" type="curve" smooth="yes"/>
      <point x="658" y="0" type="line"/>
      <point x="678" y="0" type="line"/>
      <point x="678" y="260" type="line"/>
      <point x="678" y="459"/>
      <point x="551" y="609"/>
      <point x="359" y="609" type="curve" smooth="yes"/>
      <point x="167" y="609"/>
      <point x="40" y="459"/>
      <point x="40" y="260" type="curve" smooth="yes"/>
      <point x="40" y="0" type="line"/>
    </contour>
    <contour>
      <point x="369" y="0" type="line"/>
      <point x="369" y="699" type="line"/>
      <point x="349" y="699" type="line"/>
      <point x="349" y="0" type="line"/>
    </contour>
  </outline>
</glyph>
<glyph name="ruble" format="1">
  <advance width="662"/>
  <unicode hex="20BD"/>
  <outline>
    <contour>
      <point x="148" y="0" type="line"/>
      <point x="148" y="259" type="line"/>
      <point x="139" y="250" type="line"/>
      <point x="365" y="250" type="line" smooth="yes"/>
      <point x="535" y="250"/>
      <point x="632" y="333"/>
      <point x="632" y="477" type="curve" smooth="yes"/>
      <point x="632" y="618"/>
      <point x="535" y="699"/>
      <point x="365" y="699" type="curve" smooth="yes"/>
      <point x="128" y="699" type="line"/>
      <point x="128" y="0" type="line"/>
    </contour>
    <contour>
      <point x="420" y="146" type="line"/>
      <point x="420" y="166" type="line"/>
      <point x="38" y="166" type="line"/>
      <point x="38" y="146" type="line"/>
    </contour>
    <contour>
      <point x="148" y="688" type="line"/>
      <point x="139" y="679" type="line"/>
      <point x="365" y="679" type="line" smooth="yes"/>
      <point x="522" y="679"/>
      <point x="612" y="606"/>
      <point x="612" y="477" type="curve" smooth="yes"/>
      <point x="612" y="345"/>
      <point x="522" y="270"/>
      <point x="365" y="270" type="curve" smooth="yes"/>
      <point x="139" y="270" type="line"/>
      <point x="148" y="261" type="line"/>
    </contour>
  </outline>
</glyph>
<glyph name="increment" format="1">
  <advance width="657"/>
  <unicode hex="2206"/>
  <outline>
    <contour>
      <point x="657" y="0" type="line"/>
      <point x="657" y="16" type="line"/>
      <point x="337" y="699" type="line"/>
      <point x="315" y="699" type="line"/>
      <point x="0" y="16" type="line"/>
      <point x="0" y="0" type="line"/>
    </contour>
    <contour>
      <point x="326" y="676" type="line"/>
      <point x="633" y="20" type="line"/>
      <point x="24" y="20" type="line"/>
    </contour>
  </outline>
</glyph>
<glyph name="product" format="1">
  <advance width="773"/>
  <unicode hex="220F"/>
  <outline>
    <contour>
      <point x="153" y="-194" type="line"/>
      <point x="153" y="722" type="line"/>
      <point x="620" y="722" type="line"/>
      <point x="620" y="-194" type="line"/>
      <point x="640" y="-194" type="line"/>
      <point x="640" y="742" type="line"/>
      <point x="133" y="742" type="line"/>
      <point x="133" y="-194" type="line"/>
    </contour>
  </outline>
</glyph>
<glyph name="summation" format="1">
  <advance width="639"/>
  <unicode hex="2211"/>
  <outline>
    <contour>
      <point x="600" y="-194" type="line"/>
      <point x="600" y="-175" type="line"/>
      <point x="69" y="-175" type="line"/>
      <point x="73" y="-182" type="line"/>
      <point x="427" y="246" type="line"/>
      <point x="427" y="261" type="line"/>
      <point x="83" y="688" type="line"/>
      <point x="79" y="681" type="line"/>
      <point x="595" y="681" type="line"/>
      <point x="595" y="700" type="line"/>
      <point x="60" y="700" type="line"/>
      <point x="60" y="685" type="line"/>
      <point x="413" y="247" type="line"/>
      <point x="413" y="261" type="line"/>
      <point x="50" y="-179" type="line"/>
      <point x="50" y="-194" type="line"/>
    </contour>
  </outline>
</glyph>
<glyph name="infinity" format="1">
  <advance width="914"/>
  <unicode hex="221E"/>
  <outline>
    <contour>
      <point x="784" y="131"/>
      <point x="860" y="207"/>
      <point x="860" y="307" type="curve" smooth="yes"/>
      <point x="860" y="407"/>
      <point x="784" y="483"/>
      <point x="684" y="483" type="curve" smooth="yes"/>
      <point x="419" y="483"/>
      <point x="478" y="150"/>
      <point x="230" y="150" type="curve" smooth="yes"/>
      <point x="140" y="150"/>
      <point x="74" y="216"/>
      <point x="74" y="306" type="curve" smooth="yes"/>
      <point x="74" y="396"/>
      <point x="140" y="462"/>
      <point x="230" y="462" type="curve" smooth="yes"/>
      <point x="478" y="462"/>
      <point x="419" y="131"/>
      <point x="684" y="131" type="curve" smooth="yes"/>
    </contour>
    <contour>
      <point x="495" y="130"/>
      <point x="436" y="463"/>
      <point x="684" y="463" type="curve" smooth="yes"/>
      <point x="774" y="463"/>
      <point x="840" y="397"/>
      <point x="840" y="307" type="curve" smooth="yes"/>
      <point x="840" y="217"/>
      <point x="774" y="151"/>
      <point x="684" y="151" type="curve" smooth="yes"/>
      <point x="436" y="151"/>
      <point x="495" y="482"/>
      <point x="230" y="482" type="curve" smooth="yes"/>
      <point x="130" y="482"/>
      <point x="54" y="406"/>
      <point x="54" y="306" type="curve" smooth="yes"/>
      <point x="54" y="206"/>
      <point x="130" y="130"/>
      <point x="230" y="130" type="curve" smooth="yes"/>
    </contour>
  </outline>
</glyph>
<glyph name="notequal" format="1">
  <advance width="480"/>
  <unicode hex="2260"/>
  <outline>
    <contour>
      <point x="156" y="49" type="line"/>
      <point x="328" y="586" type="line"/>
      <point x="309" y="586" type="line"/>
      <point x="137" y="49" type="line"/>
    </contour>
    <contour>
      <point x="440" y="210" type="line"/>
      <point x="440" y="230" type="line"/>
      <point x="40" y="230" type="line"/>
      <point x="40" y="210" type="line"/>
    </contour>
    <contour>
      <point x="440" y="410" type="line"/>
      <point x="440" y="430" type="line"/>
      <point x="40" y="430" type="line"/>
      <point x="40" y="410" type="line"/>
    </contour>
  </outline>
</glyph>
<glyph name="Saltillo" format="1">
  <advance width="208"/>
  <unicode hex="A78B"/>
  <outline>
    <contour>
      <point x="114" y="298" type="line"/>
      <point x="114" y="699" type="line"/>
      <point x="94" y="699" type="line"/>
      <point x="94" y="298" type="line"/>
    </contour>
  </outline>
</glyph>
<glyph name="Adieresis.alt" format="1">
  <advance width="688"/>
  <outline>
    <contour>
      <point x="32" y="0" type="line"/>
      <point x="349" y="684" type="line"/>
      <point x="339" y="684" type="line"/>
      <point x="656" y="0" type="line"/>
      <point x="679" y="0" type="line"/>
      <point x="354" y="700" type="line"/>
      <point x="334" y="700" type="line"/>
      <point x="9" y="0" type="line"/>
    </contour>
    <contour>
      <point x="581" y="187" type="line"/>
      <point x="571" y="206" type="line"/>
      <point x="116" y="206" type="line"/>
      <point x="106" y="187" type="line"/>
    </contour>
    <contour>
      <point x="226" y="651"/>
      <point x="238" y="663"/>
      <point x="238" y="677" type="curve" smooth="yes"/>
      <point x="238" y="691"/>
      <point x="226" y="703"/>
      <point x="212" y="703" type="curve" smooth="yes"/>
      <point x="198" y="703"/>
      <point x="186" y="691"/>
      <point x="186" y="677" type="curve" smooth="yes"/>
      <point x="186" y="663"/>
      <point x="198" y="651"/>
      <point x="212" y="651" type="curve" smooth="yes"/>
    </contour>
    <contour>
      <point x="490" y="651"/>
      <point x="502" y="663"/>
      <point x="502" y="677" type="curve" smooth="yes"/>
      <point x="502" y="691"/>
      <point x="490" y="703"/>
      <point x="476" y="703" type="curve" smooth="yes"/>
      <point x="462" y="703"/>
      <point x="450" y="691"/>
      <point x="450" y="677" type="curve" smooth="yes"/>
      <point x="450" y="663"/>
      <point x="462" y="651"/>
      <point x="476" y="651" type="curve" smooth="yes"/>
    </contour>
  </outline>
</glyph>
<glyph name="Eogonek.ss01" format="1">
  <advance width="614"/>
  <outline>
    <contour>
      <point x="535" y="-213"/>
      <point x="559" y="-205"/>
      <point x="581" y="-186" type="curve"/>
      <point x="570" y="-171" type="line"/>
      <point x="554" y="-186"/>
      <point x="531" y="-194"/>
      <point x="508" y="-194" type="curve" smooth="yes"/>
      <point x="467" y="-194"/>
      <point x="437" y="-171"/>
      <point x="437" y="-128" type="curve" smooth="yes"/>
      <point x="437" y="-83"/>
      <point x="458" y="-18"/>
      <point x="589" y="90" type="curve"/>
      <point x="575" y="105" type="line"/>
      <point x="524" y="54"/>
      <point x="433" y="16"/>
      <point x="325" y="16" type="curve" smooth="yes"/>
      <point x="163" y="16"/>
      <point x="85" y="85"/>
      <point x="85" y="185" type="curve" smooth="yes"/>
      <point x="85" y="295"/>
      <point x="177" y="346"/>
      <point x="306" y="346" type="curve" smooth="yes"/>
      <point x="469" y="346" type="line"/>
      <point x="469" y="365" type="line"/>
      <point x="305" y="365" type="line" smooth="yes"/>
      <point x="187" y="365"/>
      <point x="115" y="421"/>
      <point x="115" y="520" type="curve" smooth="yes"/>
      <point x="115" y="613"/>
      <point x="190" y="684"/>
      <point x="340" y="684" type="curve" smooth="yes"/>
      <point x="417" y="684"/>
      <point x="487" y="664"/>
      <point x="546" y="627" type="curve"/>
      <point x="556" y="643" type="line"/>
      <point x="502" y="681"/>
      <point x="421" y="703"/>
      <point x="339" y="703" type="curve" smooth="yes"/>
      <point x="178" y="703"/>
      <point x="95" y="621"/>
      <point x="95" y="521" type="curve" smooth="yes"/>
      <point x="95" y="436"/>
      <point x="144" y="377"/>
      <point x="230" y="356" type="curve"/>
      <point x="133" y="339"/>
      <point x="65" y="281"/>
      <point x="65" y="184" type="curve" smooth="yes"/>
      <point x="65" y="76"/>
      <point x="152" y="-3"/>
      <point x="324" y="-3" type="curve" smooth="yes"/>
      <point x="394" y="-3"/>
      <point x="454" y="9"/>
      <point x="508" y="33" type="curve"/>
      <point x="507" y="38" type="line"/>
      <point x="433" y="-32"/>
      <point x="417" y="-86"/>
      <point x="417" y="-128" type="curve" smooth="yes"/>
      <point x="417" y="-180"/>
      <point x="455" y="-213"/>
      <point x="507" y="-213" type="curve" smooth="yes"/>
    </contour>
    <contour>
      <point x="336" y="700" type="move" name="top"/>
    </contour>
    <contour>
      <point x="336" y="0" type="move" name="bottom"/>
    </contour>
    <contour>
      <point x="68" y="700" type="move" name="topleft"/>
    </contour>
  </outline>
</glyph>
<glyph name="G.ss01" format="1">
  <advance width="774"/>
  <outline>
    <contour>
      <point x="498" y="-3"/>
      <point x="590" y="29"/>
      <point x="657" y="99" type="curve"/>
      <point x="650" y="120" type="line"/>
      <point x="584" y="48"/>
      <point x="494" y="16"/>
      <point x="408" y="16" type="curve" smooth="yes"/>
      <point x="240" y="16"/>
      <point x="79" y="140"/>
      <point x="79" y="350" type="curve" smooth="yes"/>
      <point x="79" y="539"/>
      <point x="225" y="684"/>
      <point x="421" y="684" type="curve" smooth="yes"/>
      <point x="509" y="684"/>
      <point x="586" y="661"/>
      <point x="650" y="600" type="curve"/>
      <point x="662" y="614" type="line"/>
      <point x="602" y="674"/>
      <point x="516" y="703"/>
      <point x="421" y="703" type="curve" smooth="yes"/>
      <point x="213" y="703"/>
      <point x="59" y="552"/>
      <point x="59" y="350" type="curve" smooth="yes"/>
      <point x="59" y="123"/>
      <point x="233" y="-3"/>
      <point x="408" y="-3" type="curve" smooth="yes"/>
    </contour>
    <contour>
      <point x="662" y="0" type="line"/>
      <point x="662" y="343" type="line"/>
      <point x="643" y="343" type="line"/>
      <point x="643" y="100" type="line"/>
      <point x="643" y="96" type="line"/>
      <point x="643" y="0" type="line"/>
    </contour>
    <contour>
      <point x="402" y="700" type="move" name="top"/>
    </contour>
    <contour>
      <point x="402" y="0" type="move" name="bottom"/>
    </contour>
  </outline>
</glyph>
<glyph name="I.ss01" format="1">
  <advance width="422"/>
  <outline>
    <contour>
      <point x="221" y="10" type="line"/>
      <point x="221" y="690" type="line"/>
      <point x="201" y="690" type="line"/>
      <point x="201" y="10" type="line"/>
    </contour>
    <contour>
      <point x="375" y="0" type="line"/>
      <point x="375" y="19" type="line"/>
      <point x="47" y="19" type="line"/>
      <point x="47" y="0" type="line"/>
    </contour>
    <contour>
      <point x="375" y="681" type="line"/>
      <point x="375" y="700" type="line"/>
      <point x="47" y="700" type="line"/>
      <point x="47" y="681" type="line"/>
    </contour>
    <contour>
      <point x="221" y="0" type="move" name="ogonek"/>
    </contour>
    <contour>
      <point x="211" y="700" type="move" name="top"/>
    </contour>
    <contour>
      <point x="7" y="700" type="move" name="topleft"/>
    </contour>
    <contour>
      <point x="211" y="0" type="move" name="bottom"/>
    </contour>
  </outline>
</glyph>
<glyph name="J.ss01" format="1">
  <advance width="477"/>
  <outline>
    <contour>
      <point x="292" y="-103"/>
      <point x="350" y="-37"/>
      <point x="350" y="94" type="curve" smooth="yes"/>
      <point x="350" y="700" type="line"/>
      <point x="68" y="700" type="line"/>
      <point x="68" y="681" type="line"/>
      <point x="330" y="681" type="line"/>
      <point x="330" y="96" type="line" smooth="yes"/>
      <point x="330" y="-26"/>
      <point x="281" y="-84"/>
      <point x="179" y="-84" type="curve" smooth="yes"/>
      <point x="113" y="-84"/>
      <point x="56" y="-51"/>
      <point x="18" y="8" type="curve"/>
      <point x="4" y="-4" type="line"/>
      <point x="41" y="-66"/>
      <point x="107" y="-103"/>
      <point x="178" y="-103" type="curve" smooth="yes"/>
    </contour>
    <contour>
      <point x="209" y="700" type="move" name="top"/>
    </contour>
  </outline>
</glyph>
<glyph name="M.ss01" format="1">
  <advance width="1120"/>
  <outline>
    <contour>
      <point x="993" y="0" type="line"/>
      <point x="993" y="442" type="line" smooth="yes"/>
      <point x="993" y="615"/>
      <point x="908" y="703"/>
      <point x="774" y="703" type="curve" smooth="yes"/>
      <point x="640" y="703"/>
      <point x="553" y="615"/>
      <point x="553" y="415" type="curve" smooth="yes"/>
      <point x="553" y="330" type="line"/>
      <point x="573" y="330" type="line"/>
      <point x="573" y="421" type="line" smooth="yes"/>
      <point x="573" y="603"/>
      <point x="646" y="684"/>
      <point x="773" y="684" type="curve" smooth="yes"/>
      <point x="901" y="684"/>
      <point x="973" y="604"/>
      <point x="973" y="441" type="curve" smooth="yes"/>
      <point x="973" y="0" type="line"/>
    </contour>
    <contour>
      <point x="153" y="0" type="line"/>
      <point x="153" y="464" type="line"/>
      <point x="153" y="481" type="line"/>
      <point x="153" y="700" type="line"/>
      <point x="133" y="700" type="line"/>
      <point x="133" y="0" type="line"/>
    </contour>
    <contour>
      <point x="573" y="0" type="line"/>
      <point x="573" y="442" type="line" smooth="yes"/>
      <point x="573" y="615"/>
      <point x="488" y="703"/>
      <point x="354" y="703" type="curve" smooth="yes"/>
      <point x="220" y="703"/>
      <point x="135" y="615"/>
      <point x="135" y="412" type="curve" smooth="yes"/>
      <point x="135" y="300" type="line"/>
      <point x="153" y="300" type="line"/>
      <point x="153" y="421" type="line" smooth="yes"/>
      <point x="153" y="603"/>
      <point x="226" y="684"/>
      <point x="353" y="684" type="curve" smooth="yes"/>
      <point x="481" y="684"/>
      <point x="553" y="604"/>
      <point x="553" y="441" type="curve" smooth="yes"/>
      <point x="553" y="0" type="line"/>
    </contour>
    <contour>
      <point x="563" y="700" type="move" name="top"/>
    </contour>
    <contour>
      <point x="563" y="0" type="move" name="bottom"/>
    </contour>
  </outline>
</glyph>
<glyph name="N.ss01" format="1">
  <advance width="800"/>
  <outline>
    <contour>
      <point x="673" y="0" type="line"/>
      <point x="673" y="422" type="line" smooth="yes"/>
      <point x="673" y="605"/>
      <point x="570" y="703"/>
      <point x="404" y="703" type="curve" smooth="yes"/>
      <point x="238" y="703"/>
      <point x="135" y="605"/>
      <point x="135" y="402" type="curve" smooth="yes"/>
      <point x="135" y="300" type="line"/>
      <point x="153" y="300" type="line"/>
      <point x="153" y="401" type="line" smooth="yes"/>
      <point x="153" y="593"/>
      <point x="244" y="684"/>
      <point x="403" y="684" type="curve" smooth="yes"/>
      <point x="562" y="684"/>
      <point x="653" y="594"/>
      <point x="653" y="421" type="curve" smooth="yes"/>
      <point x="653" y="0" type="line"/>
    </contour>
    <contour>
      <point x="153" y="0" type="line"/>
      <point x="153" y="464" type="line"/>
      <point x="153" y="481" type="line"/>
      <point x="153" y="700" type="line"/>
      <point x="133" y="700" type="line"/>
      <point x="133" y="0" type="line"/>
    </contour>
    <contour>
      <point x="403" y="700" type="move" name="top"/>
    </contour>
    <contour>
      <point x="401" y="0" type="move" name="bottom"/>
    </contour>
  </outline>
</glyph>
<glyph name="Q.ss01" format="1">
  <advance width="836"/>
  <outline>
    <contour>
      <point x="623" y="-3"/>
      <point x="777" y="148"/>
      <point x="777" y="350" type="curve" smooth="yes"/>
      <point x="777" y="552"/>
      <point x="623" y="703"/>
      <point x="418" y="703" type="curve" smooth="yes"/>
      <point x="213" y="703"/>
      <point x="59" y="552"/>
      <point x="59" y="350" type="curve" smooth="yes"/>
      <point x="59" y="148"/>
      <point x="213" y="-3"/>
      <point x="418" y="-3" type="curve" smooth="yes"/>
    </contour>
    <contour>
      <point x="428" y="-135" type="line"/>
      <point x="428" y="1" type="line"/>
      <point x="428" y="10" type="line"/>
      <point x="428" y="205" type="line"/>
      <point x="408" y="205" type="line"/>
      <point x="408" y="10" type="line"/>
      <point x="408" y="1" type="line"/>
      <point x="408" y="-135" type="line"/>
    </contour>
    <contour>
      <point x="225" y="16"/>
      <point x="79" y="161"/>
      <point x="79" y="350" type="curve" smooth="yes"/>
      <point x="79" y="539"/>
      <point x="225" y="684"/>
      <point x="418" y="684" type="curve" smooth="yes"/>
      <point x="611" y="684"/>
      <point x="757" y="539"/>
      <point x="757" y="350" type="curve" smooth="yes"/>
      <point x="757" y="161"/>
      <point x="611" y="16"/>
      <point x="418" y="16" type="curve" smooth="yes"/>
    </contour>
  </outline>
</glyph>
<glyph name="T_h" format="1">
  <advance width="1115"/>
  <outline>
    <contour>
      <point x="284" y="0" type="line"/>
      <point x="284" y="679" type="line"/>
      <point x="564" y="679" type="line"/>
      <point x="564" y="699" type="line"/>
      <point x="4" y="699" type="line"/>
      <point x="4" y="679" type="line"/>
      <point x="264" y="679" type="line"/>
      <point x="264" y="0" type="line"/>
    </contour>
    <contour>
      <point x="584" y="0" type="line"/>
      <point x="584" y="699" type="line"/>
      <point x="564" y="699" type="line"/>
      <point x="564" y="0" type="line"/>
    </contour>
    <contour>
      <point x="1006" y="0" type="line"/>
      <point x="1006" y="313" type="line"/>
      <point x="1006" y="441"/>
      <point x="931" y="517"/>
      <point x="803" y="517" type="curve"/>
      <point x="654" y="514"/>
      <point x="566" y="416"/>
      <point x="566" y="253" type="curve"/>
      <point x="584" y="253" type="line"/>
      <point x="584" y="403"/>
      <point x="665" y="494"/>
      <point x="803" y="497" type="curve"/>
      <point x="918" y="497"/>
      <point x="986" y="429"/>
      <point x="986" y="313" type="curve"/>
      <point x="986" y="0" type="line" smooth="yes"/>
    </contour>
    <contour>
      <point x="268" y="0" type="move" name="bottom_1"/>
    </contour>
    <contour>
      <point x="-9" y="0" type="move" name="center_2"/>
    </contour>
    <contour>
      <point x="-9" y="0" type="move" name="center_1"/>
    </contour>
    <contour>
      <point x="822" y="517" type="move" name="top_2"/>
    </contour>
    <contour>
      <point x="545" y="0" type="move" name="caret_1"/>
    </contour>
    <contour>
      <point x="268" y="517" type="move" name="top_1"/>
    </contour>
    <contour>
      <point x="822" y="0" type="move" name="bottom_2"/>
    </contour>
  </outline>
</glyph>
<glyph name="U.ss01" format="1">
  <advance width="800"/>
  <outline>
    <contour>
      <point x="562" y="-3"/>
      <point x="665" y="95"/>
      <point x="665" y="298" type="curve" smooth="yes"/>
      <point x="665" y="400" type="line"/>
      <point x="647" y="400" type="line"/>
      <point x="647" y="299" type="line" smooth="yes"/>
      <point x="647" y="107"/>
      <point x="556" y="16"/>
      <point x="397" y="16" type="curve" smooth="yes"/>
      <point x="238" y="16"/>
      <point x="147" y="106"/>
      <point x="147" y="279" type="curve" smooth="yes"/>
      <point x="147" y="700" type="line"/>
      <point x="127" y="700" type="line"/>
      <point x="127" y="278" type="line" smooth="yes"/>
      <point x="127" y="95"/>
      <point x="230" y="-3"/>
      <point x="396" y="-3" type="curve" smooth="yes"/>
    </contour>
    <contour>
      <point x="667" y="0" type="line"/>
      <point x="667" y="700" type="line"/>
      <point x="647" y="700" type="line"/>
      <point x="647" y="236" type="line"/>
      <point x="647" y="219" type="line"/>
      <point x="647" y="0" type="line"/>
    </contour>
    <contour>
      <point x="667" y="0" type="move" name="ogonek"/>
    </contour>
    <contour>
      <point x="397" y="700" type="move" name="top"/>
    </contour>
    <contour>
      <point x="661" y="699" type="move" name="topright"/>
    </contour>
    <contour>
      <point x="397" y="0" type="move" name="bottom"/>
    </contour>
  </outline>
</glyph>
<glyph name="Udieresis.alt.02" format="1">
  <advance width="794"/>
  <outline>
    <contour>
      <point x="564" y="-3"/>
      <point x="667" y="95"/>
      <point x="667" y="293" type="curve" smooth="yes"/>
      <point x="667" y="700" type="line"/>
      <point x="647" y="700" type="line"/>
      <point x="647" y="294" type="line" smooth="yes"/>
      <point x="647" y="107"/>
      <point x="556" y="16"/>
      <point x="397" y="16" type="curve" smooth="yes"/>
      <point x="238" y="16"/>
      <point x="147" y="107"/>
      <point x="147" y="294" type="curve" smooth="yes"/>
      <point x="147" y="700" type="line"/>
      <point x="127" y="700" type="line"/>
      <point x="127" y="293" type="line" smooth="yes"/>
      <point x="127" y="95"/>
      <point x="230" y="-3"/>
      <point x="397" y="-3" type="curve" smooth="yes"/>
    </contour>
    <contour>
      <point x="419" y="522"/>
      <point x="437" y="540"/>
      <point x="437" y="561" type="curve" smooth="yes"/>
      <point x="437" y="582"/>
      <point x="419" y="600"/>
      <point x="397" y="600" type="curve" smooth="yes"/>
      <point x="375" y="600"/>
      <point x="357" y="582"/>
      <point x="357" y="561" type="curve" smooth="yes"/>
      <point x="357" y="540"/>
      <point x="375" y="522"/>
      <point x="397" y="522" type="curve" smooth="yes"/>
    </contour>
    <contour>
      <point x="419" y="625"/>
      <point x="437" y="643"/>
      <point x="437" y="664" type="curve" smooth="yes"/>
      <point x="437" y="685"/>
      <point x="419" y="703"/>
      <point x="397" y="703" type="curve" smooth="yes"/>
      <point x="375" y="703"/>
      <point x="357" y="685"/>
      <point x="357" y="664" type="curve" smooth="yes"/>
      <point x="357" y="643"/>
      <point x="375" y="625"/>
      <point x="397" y="625" type="curve" smooth="yes"/>
    </contour>
  </outline>
</glyph>
<glyph name="Udieresis.ss01.alt.02" format="1">
  <advance width="800"/>
  <outline>
    <contour>
      <point x="562" y="-3"/>
      <point x="665" y="95"/>
      <point x="665" y="298" type="curve" smooth="yes"/>
      <point x="665" y="400" type="line"/>
      <point x="647" y="400" type="line"/>
      <point x="647" y="299" type="line" smooth="yes"/>
      <point x="647" y="107"/>
      <point x="556" y="16"/>
      <point x="397" y="16" type="curve" smooth="yes"/>
      <point x="238" y="16"/>
      <point x="147" y="106"/>
      <point x="147" y="279" type="curve" smooth="yes"/>
      <point x="147" y="700" type="line"/>
      <point x="127" y="700" type="line"/>
      <point x="127" y="278" type="line" smooth="yes"/>
      <point x="127" y="95"/>
      <point x="230" y="-3"/>
      <point x="396" y="-3" type="curve" smooth="yes"/>
    </contour>
    <contour>
      <point x="419" y="522"/>
      <point x="437" y="540"/>
      <point x="437" y="561" type="curve" smooth="yes"/>
      <point x="437" y="582"/>
      <point x="419" y="600"/>
      <point x="397" y="600" type="curve" smooth="yes"/>
      <point x="375" y="600"/>
      <point x="357" y="582"/>
      <point x="357" y="561" type="curve" smooth="yes"/>
      <point x="357" y="540"/>
      <point x="375" y="522"/>
      <point x="397" y="522" type="curve" smooth="yes"/>
    </contour>
    <contour>
      <point x="667" y="0" type="line"/>
      <point x="667" y="700" type="line"/>
      <point x="647" y="700" type="line"/>
      <point x="647" y="236" type="line"/>
      <point x="647" y="219" type="line"/>
      <point x="647" y="0" type="line"/>
    </contour>
    <contour>
      <point x="419" y="625"/>
      <point x="437" y="643"/>
      <point x="437" y="664" type="curve" smooth="yes"/>
      <point x="437" y="685"/>
      <point x="419" y="703"/>
      <point x="397" y="703" type="curve" smooth="yes"/>
      <point x="375" y="703"/>
      <point x="357" y="685"/>
      <point x="357" y="664" type="curve" smooth="yes"/>
      <point x="357" y="643"/>
      <point x="375" y="625"/>
      <point x="397" y="625" type="curve" smooth="yes"/>
    </contour>
  </outline>
</glyph>
<glyph name="Udieresis.ss01.alt" format="1">
  <advance width="800"/>
  <outline>
    <contour>
      <point x="562" y="-3"/>
      <point x="665" y="95"/>
      <point x="665" y="298" type="curve" smooth="yes"/>
      <point x="665" y="400" type="line"/>
      <point x="647" y="400" type="line"/>
      <point x="647" y="299" type="line" smooth="yes"/>
      <point x="647" y="107"/>
      <point x="556" y="16"/>
      <point x="397" y="16" type="curve" smooth="yes"/>
      <point x="238" y="16"/>
      <point x="147" y="106"/>
      <point x="147" y="279" type="curve" smooth="yes"/>
      <point x="147" y="700" type="line"/>
      <point x="127" y="700" type="line"/>
      <point x="127" y="278" type="line" smooth="yes"/>
      <point x="127" y="95"/>
      <point x="230" y="-3"/>
      <point x="396" y="-3" type="curve" smooth="yes"/>
    </contour>
    <contour>
      <point x="329" y="651"/>
      <point x="341" y="663"/>
      <point x="341" y="677" type="curve" smooth="yes"/>
      <point x="341" y="691"/>
      <point x="329" y="703"/>
      <point x="315" y="703" type="curve" smooth="yes"/>
      <point x="301" y="703"/>
      <point x="289" y="691"/>
      <point x="289" y="677" type="curve" smooth="yes"/>
      <point x="289" y="663"/>
      <point x="301" y="651"/>
      <point x="315" y="651" type="curve" smooth="yes"/>
    </contour>
    <contour>
      <point x="667" y="0" type="line"/>
      <point x="667" y="700" type="line"/>
      <point x="647" y="700" type="line"/>
      <point x="647" y="236" type="line"/>
      <point x="647" y="219" type="line"/>
      <point x="647" y="0" type="line"/>
    </contour>
    <contour>
      <point x="493" y="651"/>
      <point x="505" y="663"/>
      <point x="505" y="677" type="curve" smooth="yes"/>
      <point x="505" y="691"/>
      <point x="493" y="703"/>
      <point x="479" y="703" type="curve" smooth="yes"/>
      <point x="465" y="703"/>
      <point x="453" y="691"/>
      <point x="453" y="677" type="curve" smooth="yes"/>
      <point x="453" y="663"/>
      <point x="465" y="651"/>
      <point x="479" y="651" type="curve" smooth="yes"/>
    </contour>
  </outline>
</glyph>
<glyph name="Z.ss01" format="1">
  <advance width="649"/>
  <outline>
    <contour>
      <point x="605" y="0" type="line"/>
      <point x="605" y="19" type="line"/>
      <point x="77" y="19" type="line"/>
      <point x="78" y="12" type="line"/>
      <point x="590" y="685" type="line"/>
      <point x="590" y="700" type="line"/>
      <point x="55" y="700" type="line"/>
      <point x="55" y="681" type="line"/>
      <point x="568" y="681" type="line"/>
      <point x="567" y="688" type="line"/>
      <point x="55" y="15" type="line"/>
      <point x="55" y="0" type="line"/>
    </contour>
    <contour>
      <point x="316" y="346" type="line"/>
      <point x="323" y="346" type="line"/>
      <point x="521" y="346" type="line"/>
      <point x="521" y="365" type="line"/>
      <point x="337" y="365" type="line"/>
      <point x="330" y="365" type="line"/>
      <point x="121" y="365" type="line"/>
      <point x="121" y="346" type="line"/>
    </contour>
    <contour>
      <point x="325" y="700" type="move" name="top"/>
    </contour>
    <contour>
      <point x="335" y="0" type="move" name="bottom"/>
    </contour>
  </outline>
</glyph>
<glyph name="a.sc" format="1">
  <advance width="563"/>
  <outline>
    <contour>
      <point x="31" y="0" type="line"/>
      <point x="286" y="544" type="line"/>
      <point x="277" y="544" type="line"/>
      <point x="531" y="0" type="line"/>
      <point x="554" y="0" type="line"/>
      <point x="291" y="559" type="line"/>
      <point x="271" y="559" type="line"/>
      <point x="9" y="0" type="line"/>
    </contour>
    <contour>
      <point x="472" y="147" type="line"/>
      <point x="463" y="166" type="line"/>
      <point x="98" y="166" type="line"/>
      <point x="89" y="147" type="line"/>
    </contour>
    <contour>
      <point x="554" y="0" type="move" name="ogonek"/>
    </contour>
    <contour>
      <point x="281" y="559" type="move" name="top"/>
    </contour>
    <contour>
      <point x="88" y="559" type="move" name="topleft"/>
    </contour>
    <contour>
      <point x="281" y="0" type="move" name="bottom"/>
    </contour>
  </outline>
</glyph>
<glyph name="a.sc.ss01" format="1">
  <advance width="659"/>
  <outline>
    <contour>
      <point x="124" y="0" type="line"/>
      <point x="124" y="178" type="line"/>
      <point x="535" y="178" type="line"/>
      <point x="535" y="0" type="line"/>
      <point x="555" y="0" type="line"/>
      <point x="555" y="335" type="line" smooth="yes"/>
      <point x="555" y="478"/>
      <point x="472" y="563"/>
      <point x="329" y="563" type="curve" smooth="yes"/>
      <point x="187" y="563"/>
      <point x="104" y="478"/>
      <point x="104" y="335" type="curve" smooth="yes"/>
      <point x="104" y="0" type="line"/>
    </contour>
    <contour>
      <point x="124" y="335" type="line" smooth="yes"/>
      <point x="124" y="466"/>
      <point x="200" y="543"/>
      <point x="329" y="543" type="curve" smooth="yes"/>
      <point x="459" y="543"/>
      <point x="535" y="466"/>
      <point x="535" y="335" type="curve" smooth="yes"/>
      <point x="535" y="198" type="line"/>
      <point x="124" y="198" type="line"/>
    </contour>
    <contour>
      <point x="555" y="0" type="move" name="ogonek"/>
    </contour>
    <contour>
      <point x="329" y="559" type="move" name="top"/>
    </contour>
    <contour>
      <point x="75" y="559" type="move" name="topleft"/>
    </contour>
    <contour>
      <point x="329" y="0" type="move" name="bottom"/>
    </contour>
  </outline>
</glyph>
<glyph name="acutecomb.loclVIET" format="1">
  <advance width="600"/>
  <outline>
    <contour>
      <point x="285" y="607" type="line"/>
      <point x="422" y="707" type="line"/>
      <point x="382" y="707" type="line"/>
      <point x="255" y="607" type="line"/>
    </contour>
    <contour>
      <point x="300" y="630" type="move" name="top"/>
    </contour>
    <contour>
      <point x="300" y="517" type="move" name="_top"/>
    </contour>
  </outline>
</glyph>
<glyph name="acutecomb_dotaccentcomb.case" format="1">
  <advance width="600"/>
  <outline>
    <component base="acutecomb_dotaccentcomb" yOffset="150"/>
    <contour>
      <point x="300" y="700" type="move" name="_top"/>
    </contour>
  </outline>
</glyph>
<glyph name="acutecomb_dotaccentcomb" format="1">
  <advance width="600"/>
  <outline>
    <component base="acutecomb.loclVIET"/>
    <component base="dotaccentcomb.loclVIET" yOffset="113"/>
    <contour>
      <point x="300" y="517" type="move" name="_top"/>
    </contour>
  </outline>
</glyph>
<glyph name="adieresis.sc.alt" format="1">
  <advance width="563"/>
  <outline>
    <contour>
      <point x="31" y="0" type="line"/>
      <point x="286" y="544" type="line"/>
      <point x="277" y="544" type="line"/>
      <point x="531" y="0" type="line"/>
      <point x="554" y="0" type="line"/>
      <point x="291" y="559" type="line"/>
      <point x="271" y="559" type="line"/>
      <point x="9" y="0" type="line"/>
    </contour>
    <contour>
      <point x="472" y="147" type="line"/>
      <point x="463" y="166" type="line"/>
      <point x="98" y="166" type="line"/>
      <point x="89" y="147" type="line"/>
    </contour>
    <contour>
      <point x="164" y="510"/>
      <point x="176" y="522"/>
      <point x="176" y="536" type="curve" smooth="yes"/>
      <point x="176" y="550"/>
      <point x="164" y="562"/>
      <point x="150" y="562" type="curve" smooth="yes"/>
      <point x="136" y="562"/>
      <point x="124" y="550"/>
      <point x="124" y="536" type="curve" smooth="yes"/>
      <point x="124" y="522"/>
      <point x="136" y="510"/>
      <point x="150" y="510" type="curve" smooth="yes"/>
    </contour>
    <contour>
      <point x="427" y="510"/>
      <point x="439" y="522"/>
      <point x="439" y="536" type="curve" smooth="yes"/>
      <point x="439" y="550"/>
      <point x="427" y="562"/>
      <point x="413" y="562" type="curve" smooth="yes"/>
      <point x="399" y="562"/>
      <point x="387" y="550"/>
      <point x="387" y="536" type="curve" smooth="yes"/>
      <point x="387" y="522"/>
      <point x="399" y="510"/>
      <point x="413" y="510" type="curve" smooth="yes"/>
    </contour>
  </outline>
</glyph>
<glyph name="ae.sc" format="1">
  <advance width="820"/>
  <outline>
    <contour>
      <point x="31" y="0" type="line"/>
      <point x="381" y="546" type="line"/>
      <point x="367" y="540" type="line"/>
      <point x="388" y="540" type="line"/>
      <point x="388" y="559" type="line"/>
      <point x="367" y="559" type="line"/>
      <point x="9" y="0" type="line"/>
    </contour>
    <contour>
      <point x="388" y="147" type="line"/>
      <point x="388" y="166" type="line"/>
      <point x="127" y="166" type="line"/>
      <point x="119" y="147" type="line"/>
    </contour>
    <contour>
      <point x="762" y="0" type="line"/>
      <point x="762" y="19" type="line"/>
      <point x="403" y="19" type="line"/>
      <point x="403" y="274" type="line"/>
      <point x="713" y="274" type="line"/>
      <point x="713" y="293" type="line"/>
      <point x="403" y="293" type="line"/>
      <point x="403" y="540" type="line"/>
      <point x="750" y="540" type="line"/>
      <point x="750" y="559" type="line"/>
      <point x="383" y="559" type="line"/>
      <point x="383" y="0" type="line"/>
    </contour>
    <contour>
      <point x="393" y="559" type="move" name="top"/>
    </contour>
    <contour>
      <point x="393" y="0" type="move" name="bottom"/>
    </contour>
  </outline>
</glyph>
<glyph name="ae.ss01" format="1">
  <advance width="996"/>
  <outline>
    <contour>
      <point x="359" y="-3"/>
      <point x="455" y="54"/>
      <point x="466" y="187" type="curve"/>
      <point x="453" y="189" type="line"/>
      <point x="488" y="61"/>
      <point x="596" y="-3"/>
      <point x="713" y="-3" type="curve" smooth="yes"/>
      <point x="791" y="-3"/>
      <point x="864" y="26"/>
      <point x="911" y="82" type="curve"/>
      <point x="897" y="96" type="line"/>
      <point x="854" y="42"/>
      <point x="786" y="16"/>
      <point x="713" y="16" type="curve" smooth="yes"/>
      <point x="571" y="16"/>
      <point x="465" y="116"/>
      <point x="465" y="259" type="curve" smooth="yes"/>
      <point x="465" y="263" type="line" smooth="yes"/>
      <point x="465" y="399"/>
      <point x="562" y="501"/>
      <point x="700" y="501" type="curve" smooth="yes"/>
      <point x="830" y="501"/>
      <point x="914" y="399"/>
      <point x="922" y="292" type="curve"/>
      <point x="931" y="306" type="line"/>
      <point x="457" y="216" type="line"/>
      <point x="464" y="198" type="line"/>
      <point x="942" y="289" type="line"/>
      <point x="933" y="414"/>
      <point x="839" y="520"/>
      <point x="700" y="520" type="curve" smooth="yes"/>
      <point x="586" y="520"/>
      <point x="496" y="456"/>
      <point x="462" y="359" type="curve"/>
      <point x="465" y="350" type="line"/>
      <point x="458" y="464"/>
      <point x="396" y="520"/>
      <point x="280" y="520" type="curve" smooth="yes"/>
      <point x="202" y="520"/>
      <point x="128" y="490"/>
      <point x="79" y="443" type="curve"/>
      <point x="93" y="429" type="line"/>
      <point x="138" y="472"/>
      <point x="204" y="501"/>
      <point x="281" y="501" type="curve" smooth="yes"/>
      <point x="388" y="501"/>
      <point x="445" y="446"/>
      <point x="445" y="338" type="curve" smooth="yes"/>
      <point x="445" y="202" type="line" smooth="yes"/>
      <point x="445" y="82"/>
      <point x="364" y="16"/>
      <point x="248" y="16" type="curve" smooth="yes"/>
      <point x="145" y="16"/>
      <point x="85" y="65"/>
      <point x="85" y="143" type="curve" smooth="yes"/>
      <point x="85" y="211"/>
      <point x="131" y="261"/>
      <point x="248" y="261" type="curve" smooth="yes"/>
      <point x="451" y="261" type="line"/>
      <point x="451" y="280" type="line"/>
      <point x="249" y="280" type="line" smooth="yes"/>
      <point x="111" y="280"/>
      <point x="65" y="215"/>
      <point x="65" y="142" type="curve" smooth="yes"/>
      <point x="65" y="55"/>
      <point x="132" y="-3"/>
      <point x="248" y="-3" type="curve" smooth="yes"/>
    </contour>
    <contour>
      <point x="489" y="517" type="move" name="top"/>
    </contour>
  </outline>
</glyph>
<glyph name="areas" format="1">
  <advance width="357"/>
  <outline>
    <contour>
      <point x="123" y="581" type="line"/>
      <point x="178" y="581" type="line"/>
      <point x="173" y="586" type="line"/>
      <point x="168" y="591" type="line"/>
      <point x="163" y="596" type="line"/>
      <point x="156" y="601" type="line"/>
      <point x="150" y="606" type="line"/>
      <point x="145" y="611" type="line"/>
      <point x="141" y="616" type="line"/>
      <point x="138" y="621" type="line"/>
      <point x="134" y="626" type="line"/>
      <point x="132" y="631" type="line"/>
      <point x="129" y="636" type="line"/>
      <point x="127" y="641" type="line"/>
      <point x="126" y="646" type="line"/>
      <point x="125" y="651" type="line"/>
      <point x="124" y="656" type="line"/>
      <point x="123" y="661" type="line"/>
      <point x="123" y="666" type="line"/>
      <point x="123" y="671" type="line"/>
      <point x="124" y="676" type="line"/>
      <point x="124" y="681" type="line"/>
      <point x="125" y="686" type="line"/>
      <point x="127" y="691" type="line"/>
      <point x="128" y="696" type="line"/>
      <point x="131" y="701" type="line"/>
      <point x="133" y="706" type="line"/>
      <point x="136" y="711" type="line"/>
      <point x="139" y="716" type="line"/>
      <point x="143" y="721" type="line"/>
      <point x="148" y="726" type="line"/>
      <point x="153" y="731" type="line"/>
      <point x="158" y="736" type="line"/>
      <point x="163" y="741" type="line"/>
      <point x="168" y="746" type="line"/>
      <point x="173" y="751" type="line"/>
      <point x="123" y="754" type="line"/>
      <point x="123" y="581" type="line"/>
    </contour>
    <contour>
      <point x="302" y="581" type="line"/>
      <point x="302" y="581" type="line"/>
      <point x="302" y="754" type="line"/>
      <point x="252" y="751" type="line"/>
      <point x="257" y="746" type="line"/>
      <point x="262" y="741" type="line"/>
      <point x="267" y="736" type="line"/>
      <point x="272" y="731" type="line"/>
      <point x="277" y="726" type="line"/>
      <point x="282" y="721" type="line"/>
      <point x="286" y="716" type="line"/>
      <point x="289" y="711" type="line"/>
      <point x="292" y="706" type="line"/>
      <point x="294" y="701" type="line"/>
      <point x="296" y="696" type="line"/>
      <point x="298" y="691" type="line"/>
      <point x="300" y="686" type="line"/>
      <point x="301" y="681" type="line"/>
      <point x="301" y="676" type="line"/>
      <point x="302" y="671" type="line"/>
      <point x="297" y="666" type="line"/>
      <point x="302" y="661" type="line"/>
      <point x="301" y="656" type="line"/>
      <point x="300" y="651" type="line"/>
      <point x="299" y="646" type="line"/>
      <point x="298" y="641" type="line"/>
      <point x="296" y="636" type="line"/>
      <point x="293" y="631" type="line"/>
      <point x="291" y="626" type="line"/>
      <point x="287" y="621" type="line"/>
      <point x="284" y="616" type="line"/>
      <point x="280" y="611" type="line"/>
      <point x="275" y="606" type="line"/>
      <point x="270" y="601" type="line"/>
      <point x="265" y="596" type="line"/>
      <point x="260" y="591" type="line"/>
      <point x="255" y="586" type="line"/>
      <point x="250" y="581" type="line"/>
    </contour>
  </outline>
</glyph>
<glyph name="b.sc" format="1">
  <advance width="627"/>
  <outline>
    <contour>
      <point x="347" y="0" type="line" smooth="yes"/>
      <point x="476" y="0"/>
      <point x="550" y="55"/>
      <point x="550" y="150" type="curve" smooth="yes"/>
      <point x="550" y="229"/>
      <point x="498" y="281"/>
      <point x="409" y="291" type="curve"/>
      <point x="480" y="304"/>
      <point x="520" y="351"/>
      <point x="520" y="421" type="curve" smooth="yes"/>
      <point x="520" y="509"/>
      <point x="456" y="559"/>
      <point x="347" y="559" type="curve" smooth="yes"/>
      <point x="118" y="559" type="line"/>
      <point x="118" y="0" type="line"/>
    </contour>
    <contour>
      <point x="138" y="280" type="line"/>
      <point x="346" y="280" type="line" smooth="yes"/>
      <point x="463" y="280"/>
      <point x="530" y="233"/>
      <point x="530" y="151" type="curve" smooth="yes"/>
      <point x="530" y="67"/>
      <point x="463" y="20"/>
      <point x="346" y="20" type="curve" smooth="yes"/>
      <point x="138" y="20" type="line"/>
    </contour>
    <contour>
      <point x="138" y="540" type="line"/>
      <point x="346" y="540" type="line" smooth="yes"/>
      <point x="444" y="540"/>
      <point x="500" y="496"/>
      <point x="500" y="420" type="curve" smooth="yes"/>
      <point x="500" y="343"/>
      <point x="444" y="299"/>
      <point x="346" y="299" type="curve" smooth="yes"/>
      <point x="138" y="299" type="line"/>
    </contour>
  </outline>
</glyph>
<glyph name="brevecomb.narrow" format="1">
  <advance width="600"/>
  <outline>
    <contour>
      <point x="362" y="604"/>
      <point x="407" y="647"/>
      <point x="407" y="717" type="curve"/>
      <point x="388" y="717" type="line"/>
      <point x="388" y="659"/>
      <point x="352" y="623"/>
      <point x="300" y="623" type="curve" smooth="yes"/>
      <point x="248" y="623"/>
      <point x="212" y="659"/>
      <point x="212" y="717" type="curve"/>
      <point x="193" y="717" type="line"/>
      <point x="193" y="647"/>
      <point x="238" y="604"/>
      <point x="300" y="604" type="curve" smooth="yes"/>
    </contour>
    <contour>
      <point x="300" y="650" type="move" name="top"/>
    </contour>
    <contour>
      <point x="300" y="517" type="move" name="_top"/>
    </contour>
  </outline>
</glyph>
<glyph name="brevecomb_gravecomb" format="1">
  <advance width="600"/>
  <outline>
    <component base="brevecomb.loclVIET"/>
    <component base="gravecomb.loclVIET" yOffset="94"/>
    <contour>
      <point x="300" y="517" type="move" name="_top"/>
    </contour>
  </outline>
</glyph>
<glyph name="breveinvertedcomb.narrow" format="1">
  <advance width="600"/>
  <outline>
    <contour>
      <point x="212" y="607" type="line"/>
      <point x="212" y="665"/>
      <point x="248" y="701"/>
      <point x="300" y="701" type="curve" smooth="yes"/>
      <point x="352" y="701"/>
      <point x="388" y="665"/>
      <point x="388" y="607" type="curve"/>
      <point x="407" y="607" type="line"/>
      <point x="407" y="677"/>
      <point x="362" y="720"/>
      <point x="300" y="720" type="curve" smooth="yes"/>
      <point x="238" y="720"/>
      <point x="193" y="677"/>
      <point x="193" y="607" type="curve"/>
    </contour>
    <contour>
      <point x="300" y="650" type="move" name="top"/>
    </contour>
    <contour>
      <point x="300" y="517" type="move" name="_top"/>
    </contour>
  </outline>
</glyph>
<glyph name="c.sc" format="1">
  <advance width="594"/>
  <outline>
    <contour>
      <point x="431" y="-3"/>
      <point x="500" y="26"/>
      <point x="552" y="72" type="curve"/>
      <point x="539" y="85" type="line"/>
      <point x="490" y="42"/>
      <point x="426" y="16"/>
      <point x="356" y="16" type="curve" smooth="yes"/>
      <point x="207" y="16"/>
      <point x="85" y="136"/>
      <point x="85" y="280" type="curve" smooth="yes"/>
      <point x="85" y="425"/>
      <point x="207" y="544"/>
      <point x="356" y="544" type="curve" smooth="yes"/>
      <point x="426" y="544"/>
      <point x="491" y="519"/>
      <point x="539" y="476" type="curve"/>
      <point x="552" y="489" type="line"/>
      <point x="500" y="535"/>
      <point x="431" y="563"/>
      <point x="356" y="563" type="curve" smooth="yes"/>
      <point x="196" y="563"/>
      <point x="65" y="436"/>
      <point x="65" y="280" type="curve" smooth="yes"/>
      <point x="65" y="125"/>
      <point x="196" y="-3"/>
      <point x="356" y="-3" type="curve" smooth="yes"/>
    </contour>
    <contour>
      <point x="356" y="559" type="move" name="top"/>
    </contour>
    <contour>
      <point x="346" y="0" type="move" name="bottom"/>
    </contour>
  </outline>
</glyph>
<glyph name="caroncomb.alt" format="1">
  <advance width="600"/>
  <outline>
    <contour>
      <point x="318" y="520" type="line"/>
      <point x="320" y="700" type="line"/>
      <point x="300" y="700" type="line"/>
      <point x="300" y="520" type="line"/>
    </contour>
    <contour>
      <point x="300" y="700" type="move" name="_topright"/>
    </contour>
  </outline>
</glyph>
<glyph name="caroncomb.loclVIET" format="1">
  <advance width="600"/>
  <outline>
    <contour>
      <point x="315" y="607" type="line"/>
      <point x="438" y="687" type="line"/>
      <point x="408" y="687" type="line"/>
      <point x="295" y="620" type="line"/>
      <point x="305" y="620" type="line"/>
      <point x="192" y="687" type="line"/>
      <point x="162" y="687" type="line"/>
      <point x="285" y="607" type="line"/>
    </contour>
    <contour>
      <point x="300" y="607" type="move" name="top"/>
    </contour>
    <contour>
      <point x="300" y="517" type="move" name="_top"/>
    </contour>
  </outline>
</glyph>
<glyph name="caroncomb.narrow" format="1">
  <advance width="600"/>
  <outline>
    <contour>
      <point x="315" y="607" type="line"/>
      <point x="413" y="717" type="line"/>
      <point x="386" y="717" type="line"/>
      <point x="298" y="621" type="line"/>
      <point x="302" y="621" type="line"/>
      <point x="214" y="717" type="line"/>
      <point x="187" y="717" type="line"/>
      <point x="285" y="607" type="line"/>
    </contour>
    <contour>
      <point x="300" y="650" type="move" name="top"/>
    </contour>
    <contour>
      <point x="300" y="517" type="move" name="_top"/>
    </contour>
  </outline>
</glyph>
<glyph name="circumflexcomb.narrow" format="1">
  <advance width="600"/>
  <outline>
    <contour>
      <point x="214" y="607" type="line"/>
      <point x="302" y="703" type="line"/>
      <point x="298" y="703" type="line"/>
      <point x="386" y="607" type="line"/>
      <point x="413" y="607" type="line"/>
      <point x="315" y="717" type="line"/>
      <point x="285" y="717" type="line"/>
      <point x="187" y="607" type="line"/>
    </contour>
    <contour>
      <point x="300" y="650" type="move" name="top"/>
    </contour>
    <contour>
      <point x="300" y="517" type="move" name="_top"/>
    </contour>
  </outline>
</glyph>
<glyph name="circumflexcomb_tildecomb" format="1">
  <advance width="600"/>
  <outline>
    <component base="circumflexcomb.loclVIET"/>
    <component base="tildecomb.loclVIET" yOffset="98"/>
    <contour>
      <point x="300" y="517" type="move" name="_top"/>
    </contour>
  </outline>
</glyph>
<glyph name="commaaccentcomb.alt" format="1">
  <advance width="600"/>
  <outline>
    <component base="commaaccentcomb" xOffset="600" yOffset="550" xScale="-1" yScale="-1"/>
    <contour>
      <point x="300" y="517" type="move" name="_top"/>
    </contour>
  </outline>
</glyph>
<glyph name="d.sc" format="1">
  <advance width="693"/>
  <outline>
    <contour>
      <point x="338" y="0" type="line"/>
      <point x="525" y="0"/>
      <point x="637" y="118"/>
      <point x="637" y="280" type="curve" smooth="yes"/>
      <point x="637" y="441"/>
      <point x="525" y="559"/>
      <point x="338" y="559" type="curve" smooth="yes"/>
      <point x="122" y="559" type="line"/>
      <point x="122" y="0" type="line"/>
    </contour>
    <contour>
      <point x="142" y="540" type="line"/>
      <point x="336" y="540" type="line" smooth="yes"/>
      <point x="516" y="540"/>
      <point x="617" y="430"/>
      <point x="617" y="280" type="curve" smooth="yes"/>
      <point x="617" y="129"/>
      <point x="516" y="19"/>
      <point x="336" y="19" type="curve" smooth="yes"/>
      <point x="142" y="19" type="line"/>
    </contour>
    <contour>
      <point x="178" y="284" type="move" name="center"/>
    </contour>
    <contour>
      <point x="336" y="0" type="move" name="bottom"/>
    </contour>
    <contour>
      <point x="332" y="559" type="move" name="top"/>
    </contour>
  </outline>
</glyph>
<glyph name="dcroat.sc" format="1">
  <advance width="703"/>
  <outline>
    <contour>
      <point x="348" y="0" type="line" smooth="yes"/>
      <point x="508" y="0"/>
      <point x="638" y="125"/>
      <point x="638" y="279" type="curve" smooth="yes"/>
      <point x="638" y="434"/>
      <point x="508" y="559"/>
      <point x="348" y="559" type="curve" smooth="yes"/>
      <point x="125" y="559" type="line"/>
      <point x="125" y="0" type="line"/>
    </contour>
    <contour>
      <point x="371" y="271" type="line"/>
      <point x="371" y="289" type="line"/>
      <point x="67" y="289" type="line"/>
      <point x="67" y="271" type="line"/>
    </contour>
    <contour>
      <point x="145" y="540" type="line"/>
      <point x="348" y="540" type="line" smooth="yes"/>
      <point x="496" y="540"/>
      <point x="618" y="423"/>
      <point x="618" y="279" type="curve" smooth="yes"/>
      <point x="618" y="136"/>
      <point x="496" y="20"/>
      <point x="348" y="20" type="curve" smooth="yes"/>
      <point x="145" y="20" type="line"/>
    </contour>
    <contour>
      <point x="189" y="280" type="move" name="center"/>
    </contour>
    <contour>
      <point x="362" y="0" type="move" name="bottom"/>
    </contour>
    <contour>
      <point x="334" y="559" type="move" name="top"/>
    </contour>
  </outline>
</glyph>
<glyph name="dieresiscomb.loclVIET" format="1">
  <advance width="600"/>
  <outline>
    <contour>
      <point x="396" y="641"/>
      <point x="408" y="653"/>
      <point x="408" y="667" type="curve" smooth="yes"/>
      <point x="408" y="681"/>
      <point x="396" y="693"/>
      <point x="382" y="693" type="curve" smooth="yes"/>
      <point x="368" y="693"/>
      <point x="356" y="681"/>
      <point x="356" y="667" type="curve" smooth="yes"/>
      <point x="356" y="653"/>
      <point x="368" y="641"/>
      <point x="382" y="641" type="curve" smooth="yes"/>
    </contour>
    <contour>
      <point x="232" y="641"/>
      <point x="244" y="653"/>
      <point x="244" y="667" type="curve" smooth="yes"/>
      <point x="244" y="681"/>
      <point x="232" y="693"/>
      <point x="218" y="693" type="curve" smooth="yes"/>
      <point x="204" y="693"/>
      <point x="192" y="681"/>
      <point x="192" y="667" type="curve" smooth="yes"/>
      <point x="192" y="653"/>
      <point x="204" y="641"/>
      <point x="218" y="641" type="curve" smooth="yes"/>
    </contour>
    <contour>
      <point x="300" y="630" type="move" name="top"/>
    </contour>
    <contour>
      <point x="300" y="517" type="move" name="_top"/>
    </contour>
  </outline>
</glyph>
<glyph name="dieresiscomb_gravecomb" format="1">
  <advance width="600"/>
  <outline>
    <component base="dieresiscomb.loclVIET"/>
    <component base="gravecomb.loclVIET" yOffset="113"/>
    <contour>
      <point x="300" y="517" type="move" name="_top"/>
    </contour>
  </outline>
</glyph>
<glyph name="dieresiscomb_macroncomb.case" format="1">
  <advance width="600"/>
  <outline>
    <component base="dieresiscomb_macroncomb" yOffset="150"/>
    <contour>
      <point x="300" y="700" type="move" name="_top"/>
    </contour>
  </outline>
</glyph>
<glyph name="dotaccentcomb.case" format="1">
  <advance width="600"/>
  <outline>
    <component base="dotaccentcomb" yOffset="150"/>
    <contour>
      <point x="300" y="700" type="move" name="_top"/>
    </contour>
  </outline>
</glyph>
<glyph name="dotaccentcomb.i" format="1">
  <advance width="600"/>
  <outline>
    <contour>
      <point x="314" y="660"/>
      <point x="326" y="672"/>
      <point x="326" y="686" type="curve" smooth="yes"/>
      <point x="326" y="700"/>
      <point x="314" y="712"/>
      <point x="300" y="712" type="curve" smooth="yes"/>
      <point x="286" y="712"/>
      <point x="274" y="700"/>
      <point x="274" y="686" type="curve" smooth="yes"/>
      <point x="274" y="672"/>
      <point x="286" y="660"/>
      <point x="300" y="660" type="curve" smooth="yes"/>
    </contour>
    <contour>
      <point x="300" y="649" type="move" name="top"/>
    </contour>
    <contour>
      <point x="300" y="517" type="move" name="_top"/>
    </contour>
  </outline>
</glyph>
<glyph name="dotaccentcomb.loclVIET" format="1">
  <advance width="600"/>
  <outline>
    <contour>
      <point x="314" y="641"/>
      <point x="326" y="653"/>
      <point x="326" y="667" type="curve" smooth="yes"/>
      <point x="326" y="681"/>
      <point x="314" y="693"/>
      <point x="300" y="693" type="curve" smooth="yes"/>
      <point x="286" y="693"/>
      <point x="274" y="681"/>
      <point x="274" y="667" type="curve" smooth="yes"/>
      <point x="274" y="653"/>
      <point x="286" y="641"/>
      <point x="300" y="641" type="curve" smooth="yes"/>
    </contour>
    <contour>
      <point x="300" y="630" type="move" name="top"/>
    </contour>
    <contour>
      <point x="300" y="517" type="move" name="_top"/>
    </contour>
  </outline>
</glyph>
<glyph name="dotaccentcomb_macroncomb" format="1">
  <advance width="600"/>
  <outline>
    <component base="dotaccentcomb.loclVIET"/>
    <component base="macroncomb.loclVIET" yOffset="113"/>
    <contour>
      <point x="300" y="517" type="move" name="_top"/>
    </contour>
  </outline>
</glyph>
<glyph name="e.sc" format="1">
  <advance width="524"/>
  <outline>
    <contour>
      <point x="486" y="0" type="line"/>
      <point x="486" y="20" type="line"/>
      <point x="138" y="20" type="line"/>
      <point x="138" y="278" type="line"/>
      <point x="438" y="278" type="line"/>
      <point x="438" y="297" type="line"/>
      <point x="138" y="297" type="line"/>
      <point x="138" y="540" type="line"/>
      <point x="475" y="540" type="line"/>
      <point x="475" y="559" type="line"/>
      <point x="118" y="559" type="line"/>
      <point x="118" y="0" type="line"/>
    </contour>
    <contour>
      <point x="486" y="0" type="move" name="ogonek"/>
    </contour>
    <contour>
      <point x="300" y="559" type="move" name="top"/>
    </contour>
    <contour>
      <point x="44" y="559" type="move" name="topleft"/>
    </contour>
    <contour>
      <point x="302" y="0" type="move" name="bottom"/>
    </contour>
  </outline>
</glyph>
<glyph name="e.sc.ss01" format="1">
  <advance width="481"/>
  <outline>
    <contour>
      <point x="337" y="-3"/>
      <point x="406" y="14"/>
      <point x="446" y="37" type="curve"/>
      <point x="436" y="55" type="line"/>
      <point x="396" y="33"/>
      <point x="330" y="17"/>
      <point x="282" y="17" type="curve" smooth="yes"/>
      <point x="174" y="17"/>
      <point x="95" y="73"/>
      <point x="95" y="151" type="curve" smooth="yes"/>
      <point x="95" y="230"/>
      <point x="175" y="287"/>
      <point x="285" y="287" type="curve" smooth="yes"/>
      <point x="375" y="287" type="line"/>
      <point x="375" y="306" type="line"/>
      <point x="285" y="306" type="line" smooth="yes"/>
      <point x="189" y="306"/>
      <point x="120" y="355"/>
      <point x="120" y="423" type="curve" smooth="yes"/>
      <point x="120" y="492"/>
      <point x="188" y="543"/>
      <point x="284" y="543" type="curve" smooth="yes"/>
      <point x="328" y="543"/>
      <point x="381" y="532"/>
      <point x="411" y="517" type="curve"/>
      <point x="420" y="534" type="line"/>
      <point x="387" y="550"/>
      <point x="330" y="563"/>
      <point x="283" y="563" type="curve" smooth="yes"/>
      <point x="177" y="563"/>
      <point x="100" y="504"/>
      <point x="100" y="424" type="curve" smooth="yes"/>
      <point x="100" y="361"/>
      <point x="153" y="308"/>
      <point x="227" y="297" type="curve"/>
      <point x="139" y="287"/>
      <point x="75" y="225"/>
      <point x="75" y="150" type="curve" smooth="yes"/>
      <point x="75" y="62"/>
      <point x="162" y="-3"/>
      <point x="281" y="-3" type="curve" smooth="yes"/>
    </contour>
    <contour>
      <point x="446" y="37" type="move" name="ogonek"/>
    </contour>
    <contour>
      <point x="283" y="559" type="move" name="top"/>
    </contour>
    <contour>
      <point x="53" y="562" type="move" name="topleft"/>
    </contour>
    <contour>
      <point x="280" y="0" type="move" name="bottom"/>
    </contour>
  </outline>
</glyph>
<glyph name="e.ss01" format="1">
  <advance width="605"/>
  <outline>
    <contour>
      <point x="400" y="-3"/>
      <point x="473" y="26"/>
      <point x="520" y="82" type="curve"/>
      <point x="506" y="96" type="line"/>
      <point x="463" y="42"/>
      <point x="395" y="16"/>
      <point x="322" y="16" type="curve" smooth="yes"/>
      <point x="180" y="16"/>
      <point x="74" y="116"/>
      <point x="74" y="259" type="curve" smooth="yes"/>
      <point x="74" y="263" type="line" smooth="yes"/>
      <point x="74" y="399"/>
      <point x="171" y="501"/>
      <point x="309" y="501" type="curve" smooth="yes"/>
      <point x="439" y="501"/>
      <point x="523" y="399"/>
      <point x="531" y="292" type="curve"/>
      <point x="540" y="306" type="line"/>
      <point x="66" y="216" type="line"/>
      <point x="73" y="198" type="line"/>
      <point x="551" y="289" type="line"/>
      <point x="542" y="414"/>
      <point x="448" y="520"/>
      <point x="309" y="520" type="curve" smooth="yes"/>
      <point x="160" y="520"/>
      <point x="54" y="412"/>
      <point x="54" y="259" type="curve" smooth="yes"/>
      <point x="54" y="106"/>
      <point x="168" y="-3"/>
      <point x="322" y="-3" type="curve" smooth="yes"/>
    </contour>
    <contour>
      <point x="456" y="0" type="move" name="ogonek"/>
    </contour>
    <contour>
      <point x="298" y="0" type="move" name="bottom"/>
    </contour>
    <contour>
      <point x="298" y="517" type="move" name="top"/>
    </contour>
  </outline>
</glyph>
<glyph name="eng.sc" format="1">
  <advance width="679"/>
  <outline>
    <contour>
      <point x="138" y="0" type="line"/>
      <point x="138" y="536" type="line"/>
      <point x="533" y="0" type="line"/>
      <point x="561" y="0" type="line"/>
      <point x="561" y="559" type="line"/>
      <point x="540" y="559" type="line"/>
      <point x="540" y="23" type="line"/>
      <point x="146" y="559" type="line"/>
      <point x="118" y="559" type="line"/>
      <point x="118" y="0" type="line"/>
    </contour>
    <contour>
      <point x="510" y="-157"/>
      <point x="561" y="-101"/>
      <point x="561" y="0" type="curve"/>
      <point x="540" y="3" type="line"/>
      <point x="540" y="-89"/>
      <point x="497" y="-137"/>
      <point x="419" y="-137" type="curve" smooth="yes"/>
      <point x="369" y="-137"/>
      <point x="324" y="-112"/>
      <point x="291" y="-65" type="curve"/>
      <point x="277" y="-80" type="line"/>
      <point x="313" y="-129"/>
      <point x="364" y="-157"/>
      <point x="419" y="-157" type="curve" smooth="yes"/>
    </contour>
    <contour>
      <point x="340" y="559" type="move" name="top"/>
    </contour>
    <contour>
      <point x="340" y="0" type="move" name="bottom"/>
    </contour>
  </outline>
</glyph>
<glyph name="eng.sc.ss01" format="1">
  <advance width="673"/>
  <outline>
    <contour>
      <point x="569" y="0" type="line"/>
      <point x="569" y="356" type="line"/>
      <point x="569" y="474"/>
      <point x="484" y="559"/>
      <point x="366" y="559" type="curve"/>
      <point x="225" y="556"/>
      <point x="121" y="464"/>
      <point x="121" y="339" type="curve"/>
      <point x="138" y="338" type="line"/>
      <point x="138" y="451"/>
      <point x="233" y="536"/>
      <point x="365" y="539" type="curve"/>
      <point x="471" y="539"/>
      <point x="548" y="461"/>
      <point x="548" y="355" type="curve"/>
      <point x="548" y="0" type="line"/>
    </contour>
    <contour>
      <point x="518" y="-157"/>
      <point x="569" y="-101"/>
      <point x="569" y="0" type="curve"/>
      <point x="548" y="3" type="line"/>
      <point x="548" y="-89"/>
      <point x="505" y="-137"/>
      <point x="427" y="-137" type="curve" smooth="yes"/>
      <point x="377" y="-137"/>
      <point x="332" y="-112"/>
      <point x="299" y="-65" type="curve"/>
      <point x="286" y="-80" type="line"/>
      <point x="321" y="-129"/>
      <point x="372" y="-157"/>
      <point x="427" y="-157" type="curve" smooth="yes"/>
    </contour>
    <contour>
      <point x="138" y="0" type="line"/>
      <point x="138" y="559" type="line"/>
      <point x="118" y="559" type="line"/>
      <point x="118" y="0" type="line"/>
    </contour>
    <contour>
      <point x="185" y="8" type="move" name="ogonek"/>
    </contour>
    <contour>
      <point x="336" y="0" type="move" name="bottom"/>
    </contour>
    <contour>
      <point x="336" y="559" type="move" name="top"/>
    </contour>
  </outline>
</glyph>
<glyph name="exclam.sc" format="1">
  <advance width="192"/>
  <outline>
    <contour>
      <point x="107" y="188" type="line"/>
      <point x="107" y="467" type="line"/>
      <point x="107" y="599" type="line"/>
      <point x="87" y="599" type="line"/>
      <point x="87" y="467" type="line"/>
      <point x="87" y="188" type="line"/>
    </contour>
    <component base="period.sc" xOffset="9"/>
  </outline>
</glyph>
<glyph name="f.sc" format="1">
  <advance width="476"/>
  <outline>
    <contour>
      <point x="138" y="0" type="line"/>
      <point x="138" y="257" type="line"/>
      <point x="414" y="257" type="line"/>
      <point x="414" y="277" type="line"/>
      <point x="138" y="277" type="line"/>
      <point x="138" y="540" type="line"/>
      <point x="450" y="540" type="line"/>
      <point x="450" y="559" type="line"/>
      <point x="118" y="559" type="line"/>
      <point x="118" y="0" type="line"/>
    </contour>
  </outline>
</glyph>
<glyph name="f.sc.ss01" format="1">
  <advance width="438"/>
  <outline>
    <contour>
      <point x="130" y="0" type="line"/>
      <point x="130" y="401" type="line" smooth="yes"/>
      <point x="130" y="485"/>
      <point x="184" y="540"/>
      <point x="267" y="540" type="curve" smooth="yes"/>
      <point x="311" y="540"/>
      <point x="364" y="527"/>
      <point x="401" y="508" type="curve"/>
      <point x="409" y="527" type="line"/>
      <point x="369" y="547"/>
      <point x="316" y="559"/>
      <point x="266" y="559" type="curve" smooth="yes"/>
      <point x="171" y="559"/>
      <point x="110" y="497"/>
      <point x="110" y="401" type="curve" smooth="yes"/>
      <point x="110" y="0" type="line"/>
    </contour>
    <contour>
      <point x="367" y="255" type="line"/>
      <point x="367" y="275" type="line"/>
      <point x="123" y="275" type="line"/>
      <point x="123" y="255" type="line"/>
    </contour>
  </outline>
</glyph>
<glyph name="f.ss01" format="1">
  <advance width="303"/>
  <outline>
    <contour>
      <point x="135" y="0" type="line"/>
      <point x="135" y="503" type="line"/>
      <point x="135" y="514" type="line"/>
      <point x="135" y="613" type="line" smooth="yes"/>
      <point x="135" y="686"/>
      <point x="171" y="726"/>
      <point x="241" y="726" type="curve" smooth="yes"/>
      <point x="274" y="726"/>
      <point x="305" y="715"/>
      <point x="327" y="694" type="curve"/>
      <point x="341" y="708" type="line"/>
      <point x="317" y="733"/>
      <point x="277" y="745"/>
      <point x="240" y="745" type="curve" smooth="yes"/>
      <point x="160" y="745"/>
      <point x="115" y="694"/>
      <point x="115" y="618" type="curve" smooth="yes"/>
      <point x="115" y="0" type="line"/>
    </contour>
    <contour>
      <point x="310" y="498" type="line"/>
      <point x="310" y="517" type="line"/>
      <point x="125" y="517" type="line"/>
      <point x="125" y="498" type="line"/>
    </contour>
  </outline>
</glyph>
<glyph name="five.tf" format="1">
  <advance width="700"/>
  <outline>
    <contour>
      <point x="509" y="-3"/>
      <point x="585" y="80"/>
      <point x="585" y="189" type="curve" smooth="yes"/>
      <point x="585" y="304"/>
      <point x="513" y="374"/>
      <point x="298" y="376" type="curve" smooth="yes"/>
      <point x="155" y="377" type="line"/>
      <point x="161" y="367" type="line"/>
      <point x="197" y="689" type="line"/>
      <point x="190" y="681" type="line"/>
      <point x="546" y="681" type="line"/>
      <point x="546" y="700" type="line"/>
      <point x="179" y="700" type="line"/>
      <point x="141" y="358" type="line"/>
      <point x="297" y="357" type="line" smooth="yes"/>
      <point x="500" y="356"/>
      <point x="565" y="292"/>
      <point x="565" y="189" type="curve" smooth="yes"/>
      <point x="565" y="90"/>
      <point x="499" y="16"/>
      <point x="345" y="16" type="curve" smooth="yes"/>
      <point x="232" y="16"/>
      <point x="149" y="57"/>
      <point x="106" y="102" type="curve"/>
      <point x="92" y="89" type="line"/>
      <point x="138" y="38"/>
      <point x="230" y="-3"/>
      <point x="345" y="-3" type="curve" smooth="yes"/>
    </contour>
  </outline>
</glyph>
<glyph name="four.tf" format="1">
  <advance width="700"/>
  <outline>
    <contour>
      <point x="582" y="208" type="line"/>
      <point x="582" y="228" type="line"/>
      <point x="86" y="228" type="line"/>
      <point x="90" y="220" type="line"/>
      <point x="389" y="699" type="line"/>
      <point x="366" y="699" type="line"/>
      <point x="75" y="233" type="line"/>
      <point x="75" y="208" type="line"/>
    </contour>
    <contour>
      <point x="461" y="0" type="line"/>
      <point x="461" y="452" type="line"/>
      <point x="441" y="452" type="line"/>
      <point x="441" y="0" type="line"/>
    </contour>
  </outline>
</glyph>
<glyph name="four.tosf" format="1">
  <advance width="700"/>
  <outline>
    <contour>
      <point x="542" y="108" type="line"/>
      <point x="542" y="128" type="line"/>
      <point x="46" y="128" type="line"/>
      <point x="50" y="120" type="line"/>
      <point x="349" y="599" type="line"/>
      <point x="326" y="599" type="line"/>
      <point x="35" y="133" type="line"/>
      <point x="35" y="108" type="line"/>
    </contour>
    <contour>
      <point x="421" y="-100" type="line"/>
      <point x="421" y="352" type="line"/>
      <point x="401" y="352" type="line"/>
      <point x="401" y="-100" type="line"/>
    </contour>
  </outline>
</glyph>
<glyph name="g.sc" format="1">
  <advance width="647"/>
  <outline>
    <contour>
      <point x="546" y="69" type="curve"/>
      <point x="534" y="85" type="line"/>
      <point x="485" y="35"/>
      <point x="420" y="17"/>
      <point x="350" y="17" type="curve" smooth="yes"/>
      <point x="193" y="17"/>
      <point x="76" y="131"/>
      <point x="76" y="280" type="curve" smooth="yes"/>
      <point x="76" y="429"/>
      <point x="193" y="543"/>
      <point x="350" y="543" type="curve" smooth="yes"/>
      <point x="421" y="543"/>
      <point x="482" y="524"/>
      <point x="534" y="476" type="curve"/>
      <point x="546" y="490" type="line"/>
      <point x="497" y="538"/>
      <point x="427" y="562"/>
      <point x="350" y="562" type="curve" smooth="yes"/>
      <point x="181" y="562"/>
      <point x="56" y="441"/>
      <point x="56" y="280" type="curve" smooth="yes"/>
      <point x="56" y="118"/>
      <point x="181" y="-3"/>
      <point x="350" y="-3" type="curve" smooth="yes"/>
      <point x="427" y="-3"/>
      <point x="497" y="21"/>
    </contour>
    <contour>
      <point x="546" y="69" type="line"/>
      <point x="546" y="275" type="line"/>
      <point x="527" y="275" type="line"/>
      <point x="527" y="69" type="line"/>
    </contour>
    <contour>
      <point x="335" y="559" type="move" name="top"/>
    </contour>
    <contour>
      <point x="334" y="0" type="move" name="bottom"/>
    </contour>
  </outline>
</glyph>
<glyph name="g.sc.ss01" format="1">
  <advance width="647"/>
  <outline>
    <contour>
      <point x="412" y="-3"/>
      <point x="487" y="23"/>
      <point x="541" y="81" type="curve"/>
      <point x="533" y="99" type="line"/>
      <point x="481" y="42"/>
      <point x="408" y="16"/>
      <point x="339" y="16" type="curve" smooth="yes"/>
      <point x="205" y="16"/>
      <point x="76" y="114"/>
      <point x="76" y="279" type="curve" smooth="yes"/>
      <point x="76" y="429"/>
      <point x="193" y="543"/>
      <point x="350" y="543" type="curve" smooth="yes"/>
      <point x="421" y="543"/>
      <point x="482" y="524"/>
      <point x="534" y="476" type="curve"/>
      <point x="546" y="490" type="line"/>
      <point x="497" y="538"/>
      <point x="427" y="562"/>
      <point x="350" y="562" type="curve" smooth="yes"/>
      <point x="181" y="562"/>
      <point x="56" y="441"/>
      <point x="56" y="279" type="curve" smooth="yes"/>
      <point x="56" y="98"/>
      <point x="197" y="-3"/>
      <point x="339" y="-3" type="curve" smooth="yes"/>
    </contour>
    <contour>
      <point x="546" y="0" type="line"/>
      <point x="546" y="275" type="line"/>
      <point x="527" y="275" type="line"/>
      <point x="527" y="80" type="line"/>
      <point x="528" y="77" type="line"/>
      <point x="528" y="0" type="line"/>
    </contour>
    <contour>
      <point x="335" y="559" type="move" name="top"/>
    </contour>
    <contour>
      <point x="334" y="0" type="move" name="bottom"/>
    </contour>
  </outline>
</glyph>
<glyph name="germandbls.sc" format="1">
  <advance width="584"/>
  <outline>
    <contour>
      <point x="126" y="0" type="line"/>
      <point x="126" y="364" type="line" smooth="yes"/>
      <point x="126" y="478"/>
      <point x="202" y="540"/>
      <point x="319" y="540" type="curve" smooth="yes"/>
      <point x="389" y="540"/>
      <point x="438" y="522"/>
      <point x="476" y="498" type="curve"/>
      <point x="478" y="509" type="line"/>
      <point x="314" y="309" type="line"/>
      <point x="314" y="290" type="line"/>
      <point x="320" y="290" type="line"/>
      <point x="435" y="290"/>
      <point x="500" y="238"/>
      <point x="500" y="158" type="curve" smooth="yes"/>
      <point x="500" y="74"/>
      <point x="432" y="20"/>
      <point x="327" y="20" type="curve" smooth="yes"/>
      <point x="258" y="20" type="line"/>
      <point x="258" y="0" type="line"/>
      <point x="327" y="0" type="line" smooth="yes"/>
      <point x="445" y="0"/>
      <point x="520" y="62"/>
      <point x="520" y="158" type="curve" smooth="yes"/>
      <point x="520" y="241"/>
      <point x="456" y="309"/>
      <point x="321" y="309" type="curve"/>
      <point x="329" y="298" type="line"/>
      <point x="488" y="492" type="line"/>
      <point x="488" y="511" type="line"/>
      <point x="451" y="536"/>
      <point x="396" y="559"/>
      <point x="319" y="559" type="curve" smooth="yes"/>
      <point x="190" y="559"/>
      <point x="106" y="490"/>
      <point x="106" y="364" type="curve" smooth="yes"/>
      <point x="106" y="0" type="line"/>
    </contour>
  </outline>
</glyph>
<glyph name="gravecomb.loclVIET" format="1">
  <advance width="600"/>
  <outline>
    <contour>
      <point x="345" y="607" type="line"/>
      <point x="218" y="707" type="line"/>
      <point x="178" y="707" type="line"/>
      <point x="315" y="607" type="line"/>
    </contour>
    <contour>
      <point x="300" y="630" type="move" name="top"/>
    </contour>
    <contour>
      <point x="300" y="517" type="move" name="_top"/>
    </contour>
  </outline>
</glyph>
<glyph name="guilsinglleft.sc" format="1">
  <advance width="259"/>
  <outline>
    <contour>
      <point x="214" y="113" type="line"/>
      <point x="82" y="279" type="line"/>
      <point x="214" y="446" type="line"/>
      <point x="191" y="446" type="line"/>
      <point x="58" y="279" type="line"/>
      <point x="191" y="113" type="line"/>
    </contour>
  </outline>
</glyph>
<glyph name="guilsinglright.sc" format="1">
  <advance width="259"/>
  <outline>
    <contour>
      <point x="201" y="279" type="line"/>
      <point x="68" y="446" type="line"/>
      <point x="45" y="446" type="line"/>
      <point x="177" y="279" type="line"/>
      <point x="45" y="113" type="line"/>
      <point x="68" y="113" type="line"/>
    </contour>
  </outline>
</glyph>
<glyph name="h.sc" format="1">
  <advance width="679"/>
  <outline>
    <contour>
      <point x="138" y="0" type="line"/>
      <point x="138" y="272" type="line"/>
      <point x="540" y="272" type="line"/>
      <point x="540" y="0" type="line"/>
      <point x="561" y="0" type="line"/>
      <point x="561" y="559" type="line"/>
      <point x="540" y="559" type="line"/>
      <point x="540" y="292" type="line"/>
      <point x="138" y="292" type="line"/>
      <point x="138" y="559" type="line"/>
      <point x="118" y="559" type="line"/>
      <point x="118" y="0" type="line"/>
    </contour>
    <contour>
      <point x="340" y="430" type="move" name="center"/>
    </contour>
    <contour>
      <point x="340" y="0" type="move" name="bottom"/>
    </contour>
    <contour>
      <point x="340" y="559" type="move" name="top"/>
    </contour>
  </outline>
</glyph>
<glyph name="hookabovecomb.case" format="1">
  <advance width="600"/>
  <outline>
    <component base="hookabovecomb" yOffset="150"/>
    <contour>
      <point x="300" y="700" type="move" name="_top"/>
    </contour>
  </outline>
</glyph>
<glyph name="hookabovecomb.loclVIET" format="1">
  <advance width="600"/>
  <outline>
    <contour>
      <point x="339" y="619"/>
      <point x="357" y="644"/>
      <point x="357" y="674" type="curve" smooth="yes"/>
      <point x="357" y="707"/>
      <point x="334" y="729"/>
      <point x="297" y="729" type="curve" smooth="yes"/>
      <point x="278" y="729"/>
      <point x="259" y="723"/>
      <point x="245" y="713" type="curve"/>
      <point x="253" y="697" type="line"/>
      <point x="266" y="706"/>
      <point x="281" y="710"/>
      <point x="296" y="710" type="curve" smooth="yes"/>
      <point x="321" y="710"/>
      <point x="338" y="695"/>
      <point x="338" y="674" type="curve" smooth="yes"/>
      <point x="338" y="651"/>
      <point x="321" y="631"/>
      <point x="293" y="618" type="curve"/>
      <point x="303" y="603" type="line"/>
    </contour>
    <contour>
      <point x="300" y="660" type="move" name="top"/>
    </contour>
    <contour>
      <point x="300" y="517" type="move" name="_top"/>
    </contour>
  </outline>
</glyph>
<glyph name="i.sc" format="1">
  <advance width="264"/>
  <outline>
    <contour>
      <point x="142" y="0" type="line"/>
      <point x="142" y="559" type="line"/>
      <point x="122" y="559" type="line"/>
      <point x="122" y="0" type="line"/>
    </contour>
    <contour>
      <point x="142" y="0" type="move" name="ogonek"/>
    </contour>
    <contour>
      <point x="132" y="559" type="move" name="top"/>
    </contour>
    <contour>
      <point x="48" y="559" type="move" name="topleft"/>
    </contour>
    <contour>
      <point x="132" y="0" type="move" name="bottom"/>
    </contour>
  </outline>
</glyph>
<glyph name="i.sc.ss01" format="1">
  <advance width="402"/>
  <outline>
    <contour>
      <point x="211" y="8" type="line"/>
      <point x="211" y="551" type="line"/>
      <point x="191" y="551" type="line"/>
      <point x="191" y="8" type="line"/>
    </contour>
    <contour>
      <point x="334" y="0" type="line"/>
      <point x="334" y="19" type="line"/>
      <point x="68" y="19" type="line"/>
      <point x="68" y="0" type="line"/>
    </contour>
    <contour>
      <point x="334" y="540" type="line"/>
      <point x="334" y="559" type="line"/>
      <point x="68" y="559" type="line"/>
      <point x="68" y="540" type="line"/>
    </contour>
    <contour>
      <point x="211" y="0" type="move" name="ogonek"/>
    </contour>
    <contour>
      <point x="201" y="559" type="move" name="top"/>
    </contour>
    <contour>
      <point x="34" y="559" type="move" name="topleft"/>
    </contour>
    <contour>
      <point x="201" y="0" type="move" name="bottom"/>
    </contour>
  </outline>
</glyph>
<glyph name="j.sc" format="1">
  <advance width="410"/>
  <outline>
    <contour>
      <point x="247" y="-3"/>
      <point x="294" y="51"/>
      <point x="294" y="157" type="curve" smooth="yes"/>
      <point x="294" y="559" type="line"/>
      <point x="63" y="559" type="line"/>
      <point x="63" y="540" type="line"/>
      <point x="274" y="540" type="line"/>
      <point x="274" y="158" type="line" smooth="yes"/>
      <point x="274" y="62"/>
      <point x="235" y="17"/>
      <point x="153" y="17" type="curve" smooth="yes"/>
      <point x="99" y="17"/>
      <point x="55" y="43"/>
      <point x="24" y="89" type="curve"/>
      <point x="11" y="77" type="line"/>
      <point x="41" y="27"/>
      <point x="95" y="-3"/>
      <point x="153" y="-3" type="curve" smooth="yes"/>
    </contour>
    <contour>
      <point x="178" y="559" type="move" name="top"/>
    </contour>
  </outline>
</glyph>
<glyph name="j.sc.ss01" format="1">
  <advance width="412"/>
  <outline>
    <contour>
      <point x="245" y="-80"/>
      <point x="295" y="-24"/>
      <point x="295" y="78" type="curve"/>
      <point x="295" y="559" type="line"/>
      <point x="64" y="559" type="line"/>
      <point x="64" y="540" type="line"/>
      <point x="275" y="540" type="line"/>
      <point x="275" y="79" type="line"/>
      <point x="275" y="-12"/>
      <point x="232" y="-60"/>
      <point x="154" y="-60" type="curve"/>
      <point x="104" y="-60"/>
      <point x="59" y="-35"/>
      <point x="25" y="13" type="curve"/>
      <point x="12" y="-2" type="line"/>
      <point x="48" y="-52"/>
      <point x="99" y="-80"/>
      <point x="154" y="-80" type="curve"/>
    </contour>
    <contour>
      <point x="183" y="559" type="move" name="top"/>
    </contour>
  </outline>
</glyph>
<glyph name="k.sc" format="1">
  <advance width="586"/>
  <outline>
    <contour>
      <point x="282" y="289" type="line"/>
      <point x="294" y="301" type="line"/>
      <point x="547" y="559" type="line"/>
      <point x="521" y="559" type="line"/>
      <point x="138" y="172" type="line"/>
      <point x="139" y="145" type="line"/>
    </contour>
    <contour>
      <point x="142" y="0" type="line"/>
      <point x="142" y="559" type="line"/>
      <point x="122" y="559" type="line"/>
      <point x="122" y="0" type="line"/>
    </contour>
    <contour>
      <point x="566" y="0" type="line"/>
      <point x="287" y="313" type="line"/>
      <point x="272" y="299" type="line"/>
      <point x="539" y="0" type="line"/>
    </contour>
    <contour>
      <point x="316" y="559" type="move" name="top"/>
    </contour>
    <contour>
      <point x="316" y="0" type="move" name="bottom"/>
    </contour>
  </outline>
</glyph>
<glyph name="kgreenlandic.sc" format="1">
  <advance width="555"/>
  <outline>
    <contour>
      <point x="519" y="559" type="line"/>
      <point x="492" y="559" type="line"/>
      <point x="133" y="176" type="line"/>
      <point x="133" y="147" type="line"/>
    </contour>
    <contour>
      <point x="138" y="0" type="line"/>
      <point x="138" y="559" type="line"/>
      <point x="118" y="559" type="line"/>
      <point x="118" y="0" type="line"/>
    </contour>
    <contour>
      <point x="537" y="0" type="line"/>
      <point x="278" y="316" type="line"/>
      <point x="266" y="298" type="line"/>
      <point x="510" y="0" type="line"/>
    </contour>
    <contour>
      <point x="288" y="559" type="move" name="top"/>
    </contour>
    <contour>
      <point x="288" y="0" type="move" name="bottom"/>
    </contour>
  </outline>
</glyph>
<glyph name="l.sc" format="1">
  <advance width="399"/>
  <outline>
    <contour>
      <point x="391" y="0" type="line"/>
      <point x="391" y="20" type="line"/>
      <point x="138" y="20" type="line"/>
      <point x="138" y="559" type="line"/>
      <point x="118" y="559" type="line"/>
      <point x="118" y="0" type="line"/>
    </contour>
    <contour>
      <point x="255" y="0" type="move" name="bottom"/>
    </contour>
    <contour>
      <point x="136" y="559" type="move" name="top"/>
    </contour>
    <contour>
      <point x="372" y="559" type="move" name="topright"/>
    </contour>
    <contour>
      <point x="326" y="312" type="move" name="center"/>
    </contour>
  </outline>
</glyph>
<glyph name="l.ss01" format="1">
  <advance width="283"/>
  <outline>
    <contour>
      <point x="254" y="-3"/>
      <point x="274" y="1"/>
      <point x="289" y="7" type="curve"/>
      <point x="286" y="25" type="line"/>
      <point x="274" y="20"/>
      <point x="256" y="16"/>
      <point x="235" y="16" type="curve" smooth="yes"/>
      <point x="167" y="16"/>
      <point x="135" y="56"/>
      <point x="135" y="129" type="curve" smooth="yes"/>
      <point x="135" y="742" type="line"/>
      <point x="115" y="742" type="line"/>
      <point x="115" y="124" type="line" smooth="yes"/>
      <point x="115" y="48"/>
      <point x="156" y="-3"/>
      <point x="236" y="-3" type="curve" smooth="yes"/>
    </contour>
    <contour>
      <point x="187" y="0" type="move" name="bottom"/>
    </contour>
    <contour>
      <point x="251" y="350" type="move" name="dot"/>
    </contour>
    <contour>
      <point x="125" y="742" type="move" name="top"/>
    </contour>
    <contour>
      <point x="233" y="742" type="move" name="topright"/>
    </contour>
    <contour>
      <point x="125" y="350" type="move" name="center"/>
    </contour>
  </outline>
</glyph>
<glyph name="lslash.sc" format="1">
  <advance width="416"/>
  <outline>
    <contour>
      <point x="408" y="0" type="line"/>
      <point x="408" y="20" type="line"/>
      <point x="155" y="20" type="line"/>
      <point x="155" y="559" type="line"/>
      <point x="135" y="559" type="line"/>
      <point x="135" y="0" type="line"/>
    </contour>
    <contour>
      <point x="260" y="349" type="line"/>
      <point x="260" y="370" type="line"/>
      <point x="46" y="253" type="line"/>
      <point x="46" y="233" type="line"/>
    </contour>
    <contour>
      <point x="272" y="0" type="move" name="bottom"/>
    </contour>
    <contour>
      <point x="153" y="559" type="move" name="top"/>
    </contour>
    <contour>
      <point x="388" y="559" type="move" name="topright"/>
    </contour>
    <contour>
      <point x="343" y="312" type="move" name="center"/>
    </contour>
  </outline>
</glyph>
<glyph name="m.sc" format="1">
  <advance width="805"/>
  <outline>
    <contour>
      <point x="142" y="0" type="line"/>
      <point x="142" y="529" type="line"/>
      <point x="134" y="529" type="line"/>
      <point x="397" y="78" type="line"/>
      <point x="408" y="78" type="line"/>
      <point x="670" y="529" type="line"/>
      <point x="663" y="529" type="line"/>
      <point x="663" y="0" type="line"/>
      <point x="683" y="0" type="line"/>
      <point x="683" y="559" type="line"/>
      <point x="666" y="559" type="line"/>
      <point x="399" y="97" type="line"/>
      <point x="408" y="97" type="line"/>
      <point x="139" y="559" type="line"/>
      <point x="122" y="559" type="line"/>
      <point x="122" y="0" type="line"/>
    </contour>
    <contour>
      <point x="403" y="559" type="move" name="top"/>
    </contour>
    <contour>
      <point x="403" y="0" type="move" name="bottom"/>
    </contour>
  </outline>
</glyph>
